<?xml version='1.0' encoding='UTF-8' standalone='no'?>
<svg xmlns="http://www.w3.org/2000/svg" viewBox="0 0 350 560" xmlns:xlink="http://www.w3.org/1999/xlink" width="350pt" height="560pt">
 <title>Figure 1</title>
 <desc>
Creator: GL2PS 1.4.2, (C) 1999-2020 C. Geuzaine
For: Octave
CreationDate: Mon Nov 21 12:46:20 2022
</desc>
 <defs/>
 <polygon fill="#ffffff" points="0,0 350,0 350,560 0,560"/>
 <g>
  <polygon fill="#ffffff" points="0,560 350,560 350,0 0,0" shape-rendering="crispEdges"/>
  <clipPath id="cp00350560">
   <polygon points="0,560 350,560 350,0 0,0"/>
  </clipPath>
  <g clip-path="url(#cp00350560)">
   <polygon fill="#ffffff" points="45.6151,236.22 317.551,236.22 317.551,46.0159 45.6151,46.0159" shape-rendering="crispEdges"/>
   <polyline stroke-linecap="butt" stroke-linejoin="miter" fill="none" stroke-width="0.5" stroke="#262626" points="45.6151,236.22 45.6151,46.0159" stroke-dasharray="16,0" stroke-opacity="0.15"/>
   <polyline stroke-linecap="butt" stroke-linejoin="miter" fill="none" stroke-width="0.5" stroke="#262626" points="100.002,236.22 100.002,46.0159" stroke-dasharray="16,0" stroke-opacity="0.15"/>
   <polyline stroke-linecap="butt" stroke-linejoin="miter" fill="none" stroke-width="0.5" stroke="#262626" points="154.389,236.22 154.389,46.0159" stroke-dasharray="16,0" stroke-opacity="0.15"/>
   <polyline stroke-linecap="butt" stroke-linejoin="miter" fill="none" stroke-width="0.5" stroke="#262626" points="208.777,236.22 208.777,46.0159" stroke-dasharray="16,0" stroke-opacity="0.15"/>
   <polyline stroke-linecap="butt" stroke-linejoin="miter" fill="none" stroke-width="0.5" stroke="#262626" points="263.164,236.22 263.164,46.0159" stroke-dasharray="16,0" stroke-opacity="0.15"/>
   <polyline stroke-linecap="butt" stroke-linejoin="miter" fill="none" stroke-width="0.5" stroke="#262626" points="317.551,236.22 317.551,46.0159" stroke-dasharray="16,0" stroke-opacity="0.15"/>
   <polyline stroke-linecap="butt" stroke-linejoin="miter" fill="none" stroke-width="0.5" stroke="#262626" points="45.6151,236.22 45.6151,233.498"/>
   <polyline stroke-linecap="butt" stroke-linejoin="miter" fill="none" stroke-width="0.5" stroke="#262626" points="45.6151,46.0159 45.6151,48.7382"/>
   <polyline stroke-linecap="butt" stroke-linejoin="miter" fill="none" stroke-width="0.5" stroke="#262626" points="100.002,236.22 100.002,233.498"/>
   <polyline stroke-linecap="butt" stroke-linejoin="miter" fill="none" stroke-width="0.5" stroke="#262626" points="100.002,46.0159 100.002,48.7382"/>
   <polyline stroke-linecap="butt" stroke-linejoin="miter" fill="none" stroke-width="0.5" stroke="#262626" points="154.389,236.22 154.389,233.498"/>
   <polyline stroke-linecap="butt" stroke-linejoin="miter" fill="none" stroke-width="0.5" stroke="#262626" points="154.389,46.0159 154.389,48.7382"/>
   <polyline stroke-linecap="butt" stroke-linejoin="miter" fill="none" stroke-width="0.5" stroke="#262626" points="208.777,236.22 208.777,233.498"/>
   <polyline stroke-linecap="butt" stroke-linejoin="miter" fill="none" stroke-width="0.5" stroke="#262626" points="208.777,46.0159 208.777,48.7382"/>
   <polyline stroke-linecap="butt" stroke-linejoin="miter" fill="none" stroke-width="0.5" stroke="#262626" points="263.164,236.22 263.164,233.498"/>
   <polyline stroke-linecap="butt" stroke-linejoin="miter" fill="none" stroke-width="0.5" stroke="#262626" points="263.164,46.0159 263.164,48.7382"/>
   <polyline stroke-linecap="butt" stroke-linejoin="miter" fill="none" stroke-width="0.5" stroke="#262626" points="317.551,236.22 317.551,233.498"/>
   <polyline stroke-linecap="butt" stroke-linejoin="miter" fill="none" stroke-width="0.5" stroke="#262626" points="317.551,46.0159 317.551,48.7382"/>
   <g transform="translate(41.6151,257.732) rotate(-0,4,-11)" font-weight="normal" font-style="normal" font-family="FreeSans" xml:space="preserve" font-size="14">
    <text fill="rgb(38,38,38)" y="-0" x="0 ">0</text>
   </g>
   <g transform="translate(90.0023,257.732) rotate(-0,10,-11)" font-weight="normal" font-style="normal" font-family="FreeSans" xml:space="preserve" font-size="14">
    <text fill="rgb(38,38,38)" y="-0" x="0 8 12 ">0.2</text>
   </g>
   <g transform="translate(144.389,257.732) rotate(-0,10,-11)" font-weight="normal" font-style="normal" font-family="FreeSans" xml:space="preserve" font-size="14">
    <text fill="rgb(38,38,38)" y="-0" x="0 8 12 ">0.4</text>
   </g>
   <g transform="translate(198.777,257.732) rotate(-0,10,-11)" font-weight="normal" font-style="normal" font-family="FreeSans" xml:space="preserve" font-size="14">
    <text fill="rgb(38,38,38)" y="-0" x="0 8 12 ">0.6</text>
   </g>
   <g transform="translate(253.164,257.732) rotate(-0,10,-11)" font-weight="normal" font-style="normal" font-family="FreeSans" xml:space="preserve" font-size="14">
    <text fill="rgb(38,38,38)" y="-0" x="0 8 12 ">0.8</text>
   </g>
   <g transform="translate(313.551,257.732) rotate(-0,4,-11)" font-weight="normal" font-style="normal" font-family="FreeSans" xml:space="preserve" font-size="14">
    <text fill="rgb(38,38,38)" y="-0" x="0 ">1</text>
   </g>
   <polyline stroke-linecap="butt" stroke-linejoin="miter" fill="none" stroke-width="0.5" stroke="#262626" points="45.6151,236.22 317.551,236.22" stroke-dasharray="16,0" stroke-opacity="0.15"/>
   <polyline stroke-linecap="butt" stroke-linejoin="miter" fill="none" stroke-width="0.5" stroke="#262626" points="45.6151,204.52 317.551,204.52" stroke-dasharray="16,0" stroke-opacity="0.15"/>
   <polyline stroke-linecap="butt" stroke-linejoin="miter" fill="none" stroke-width="0.5" stroke="#262626" points="45.6151,172.819 317.551,172.819" stroke-dasharray="16,0" stroke-opacity="0.15"/>
   <polyline stroke-linecap="butt" stroke-linejoin="miter" fill="none" stroke-width="0.5" stroke="#262626" points="45.6151,141.118 317.551,141.118" stroke-dasharray="16,0" stroke-opacity="0.15"/>
   <polyline stroke-linecap="butt" stroke-linejoin="miter" fill="none" stroke-width="0.5" stroke="#262626" points="45.6151,109.417 317.551,109.417" stroke-dasharray="16,0" stroke-opacity="0.15"/>
   <polyline stroke-linecap="butt" stroke-linejoin="miter" fill="none" stroke-width="0.5" stroke="#262626" points="45.6151,77.7167 317.551,77.7167" stroke-dasharray="16,0" stroke-opacity="0.15"/>
   <polyline stroke-linecap="butt" stroke-linejoin="miter" fill="none" stroke-width="0.5" stroke="#262626" points="45.6151,46.0159 317.551,46.0159" stroke-dasharray="16,0" stroke-opacity="0.15"/>
   <polyline stroke-linecap="butt" stroke-linejoin="miter" fill="none" stroke-width="0.5" stroke="#262626" points="45.6151,236.22 48.3338,236.22"/>
   <polyline stroke-linecap="butt" stroke-linejoin="miter" fill="none" stroke-width="0.5" stroke="#262626" points="317.551,236.22 314.832,236.22"/>
   <polyline stroke-linecap="butt" stroke-linejoin="miter" fill="none" stroke-width="0.5" stroke="#262626" points="45.6151,204.52 48.3338,204.52"/>
   <polyline stroke-linecap="butt" stroke-linejoin="miter" fill="none" stroke-width="0.5" stroke="#262626" points="317.551,204.52 314.832,204.52"/>
   <polyline stroke-linecap="butt" stroke-linejoin="miter" fill="none" stroke-width="0.5" stroke="#262626" points="45.6151,172.819 48.3338,172.819"/>
   <polyline stroke-linecap="butt" stroke-linejoin="miter" fill="none" stroke-width="0.5" stroke="#262626" points="317.551,172.819 314.832,172.819"/>
   <polyline stroke-linecap="butt" stroke-linejoin="miter" fill="none" stroke-width="0.5" stroke="#262626" points="45.6151,141.118 48.3338,141.118"/>
   <polyline stroke-linecap="butt" stroke-linejoin="miter" fill="none" stroke-width="0.5" stroke="#262626" points="317.551,141.118 314.832,141.118"/>
   <polyline stroke-linecap="butt" stroke-linejoin="miter" fill="none" stroke-width="0.5" stroke="#262626" points="45.6151,109.417 48.3338,109.417"/>
   <polyline stroke-linecap="butt" stroke-linejoin="miter" fill="none" stroke-width="0.5" stroke="#262626" points="317.551,109.417 314.832,109.417"/>
   <polyline stroke-linecap="butt" stroke-linejoin="miter" fill="none" stroke-width="0.5" stroke="#262626" points="45.6151,77.7167 48.3338,77.7167"/>
   <polyline stroke-linecap="butt" stroke-linejoin="miter" fill="none" stroke-width="0.5" stroke="#262626" points="317.551,77.7167 314.832,77.7167"/>
   <polyline stroke-linecap="butt" stroke-linejoin="miter" fill="none" stroke-width="0.5" stroke="#262626" points="45.6151,46.0159 48.3338,46.0159"/>
   <polyline stroke-linecap="butt" stroke-linejoin="miter" fill="none" stroke-width="0.5" stroke="#262626" points="317.551,46.0159 314.832,46.0159"/>
   <g transform="translate(25.6167,241.72) rotate(-0,13,-5.5)" font-weight="normal" font-style="normal" font-family="FreeSans" xml:space="preserve" font-size="14">
    <text fill="rgb(38,38,38)" y="-0" x="0 5 ">-2</text>
   </g>
   <g transform="translate(25.6167,210.02) rotate(-0,13,-5.5)" font-weight="normal" font-style="normal" font-family="FreeSans" xml:space="preserve" font-size="14">
    <text fill="rgb(38,38,38)" y="-0" x="0 5 ">-1</text>
   </g>
   <g transform="translate(30.6167,178.319) rotate(-0,8,-5.5)" font-weight="normal" font-style="normal" font-family="FreeSans" xml:space="preserve" font-size="14">
    <text fill="rgb(38,38,38)" y="-0" x="0 ">0</text>
   </g>
   <g transform="translate(30.6167,146.618) rotate(-0,8,-5.5)" font-weight="normal" font-style="normal" font-family="FreeSans" xml:space="preserve" font-size="14">
    <text fill="rgb(38,38,38)" y="-0" x="0 ">1</text>
   </g>
   <g transform="translate(30.6167,114.917) rotate(-0,8,-5.5)" font-weight="normal" font-style="normal" font-family="FreeSans" xml:space="preserve" font-size="14">
    <text fill="rgb(38,38,38)" y="-0" x="0 ">2</text>
   </g>
   <g transform="translate(30.6167,83.2167) rotate(-0,8,-5.5)" font-weight="normal" font-style="normal" font-family="FreeSans" xml:space="preserve" font-size="14">
    <text fill="rgb(38,38,38)" y="-0" x="0 ">3</text>
   </g>
   <g transform="translate(30.6167,51.516) rotate(-0,8,-5.5)" font-weight="normal" font-style="normal" font-family="FreeSans" xml:space="preserve" font-size="14">
    <text fill="rgb(38,38,38)" y="-0" x="0 ">4</text>
   </g>
   <polyline stroke-linecap="square" stroke-linejoin="miter" fill="none" stroke-width="0.5" stroke="#262626" points="45.6151,236.22 317.551,236.22" stroke-dasharray="16,0"/>
   <polyline stroke-linecap="square" stroke-linejoin="miter" fill="none" stroke-width="0.5" stroke="#262626" points="45.6151,46.0159 317.551,46.0159" stroke-dasharray="16,0"/>
   <polyline stroke-linecap="square" stroke-linejoin="miter" fill="none" stroke-width="0.5" stroke="#262626" points="45.6151,236.22 45.6151,46.0159" stroke-dasharray="16,0"/>
   <polyline stroke-linecap="square" stroke-linejoin="miter" fill="none" stroke-width="0.5" stroke="#262626" points="317.551,236.22 317.551,46.0159" stroke-dasharray="16,0"/>
   <g transform="translate(8.61672,141.118) rotate(-90,12,0)" font-weight="normal" font-style="italic" font-family="FreeSans" xml:space="preserve" font-size="15.4">
    <text fill="rgb(38,38,38)" y="-2" x="0 ">h</text>
    <text fill="rgb(38,38,38)" y="-2" font-style="normal" x="8 ">,</text>
    <text fill="rgb(38,38,38)" y="-2" x="12 ">H</text>
   </g>
   <g transform="translate(171.583,275.732) rotate(-0,10,-13)" font-weight="normal" font-style="italic" font-family="FreeSans" xml:space="preserve" font-size="15.4">
    <text fill="rgb(38,38,38)" y="-4" x="0 ">x</text>
    <text fill="rgb(38,38,38)" y="-4" font-style="normal" x="8 ">,</text>
    <text fill="rgb(38,38,38)" y="-4" x="12 ">y</text>
   </g>
   <polyline stroke-linecap="butt" stroke-linejoin="round" fill="none" stroke-width="1.25" stroke="#0000ff" points="45.6151,159.505 66.0103,159.568 91.8442,159.663 120.397,159.822 151.67,160.202 188.381,160.836 231.891,161.755 284.919,163.309 317.551,164.482"/>
   <polyline stroke-linecap="square" stroke-linejoin="miter" fill="none" stroke-width="1.25" stroke="#0000ff" points="45.6151,156.505 48.6151,159.505 45.6151,162.505 42.6151,159.505 45.6151,156.505"/>
   <polyline stroke-linecap="square" stroke-linejoin="miter" fill="none" stroke-width="1.25" stroke="#0000ff" points="66.0103,156.568 69.0103,159.568 66.0103,162.568 63.0103,159.568 66.0103,156.568"/>
   <polyline stroke-linecap="square" stroke-linejoin="miter" fill="none" stroke-width="1.25" stroke="#0000ff" points="91.8442,156.663 94.8442,159.663 91.8442,162.663 88.8442,159.663 91.8442,156.663"/>
   <polyline stroke-linecap="square" stroke-linejoin="miter" fill="none" stroke-width="1.25" stroke="#0000ff" points="120.397,156.822 123.397,159.822 120.397,162.822 117.397,159.822 120.397,156.822"/>
   <polyline stroke-linecap="square" stroke-linejoin="miter" fill="none" stroke-width="1.25" stroke="#0000ff" points="151.67,157.202 154.67,160.202 151.67,163.202 148.67,160.202 151.67,157.202"/>
   <polyline stroke-linecap="square" stroke-linejoin="miter" fill="none" stroke-width="1.25" stroke="#0000ff" points="188.381,157.836 191.381,160.836 188.381,163.836 185.381,160.836 188.381,157.836"/>
   <polyline stroke-linecap="square" stroke-linejoin="miter" fill="none" stroke-width="1.25" stroke="#0000ff" points="231.891,158.755 234.891,161.755 231.891,164.755 228.891,161.755 231.891,158.755"/>
   <polyline stroke-linecap="square" stroke-linejoin="miter" fill="none" stroke-width="1.25" stroke="#0000ff" points="284.919,160.309 287.919,163.309 284.919,166.309 281.919,163.309 284.919,160.309"/>
   <polyline stroke-linecap="square" stroke-linejoin="miter" fill="none" stroke-width="1.25" stroke="#0000ff" points="317.551,161.482 320.551,164.482 317.551,167.482 314.551,164.482 317.551,161.482"/>
   <polyline stroke-linecap="butt" stroke-linejoin="round" fill="none" stroke-width="1.25" stroke="#ff0000" points="45.6151,114.49 98.0987,117.184 143.24,119.403 181.583,121.305 216.935,123.049 249.567,124.792 279.48,126.377 305.314,127.645 317.551,128.279"/>
   <polyline stroke-linecap="square" stroke-linejoin="miter" fill="none" stroke-width="1.25" stroke="#ff0000" points="45.6151,111.49 48.6151,114.49 45.6151,117.49 42.6151,114.49 45.6151,111.49"/>
   <polyline stroke-linecap="square" stroke-linejoin="miter" fill="none" stroke-width="1.25" stroke="#ff0000" points="98.0987,114.184 101.099,117.184 98.0987,120.184 95.0987,117.184 98.0987,114.184"/>
   <polyline stroke-linecap="square" stroke-linejoin="miter" fill="none" stroke-width="1.25" stroke="#ff0000" points="143.24,116.403 146.24,119.403 143.24,122.403 140.24,119.403 143.24,116.403"/>
   <polyline stroke-linecap="square" stroke-linejoin="miter" fill="none" stroke-width="1.25" stroke="#ff0000" points="181.583,118.305 184.583,121.305 181.583,124.305 178.583,121.305 181.583,118.305"/>
   <polyline stroke-linecap="square" stroke-linejoin="miter" fill="none" stroke-width="1.25" stroke="#ff0000" points="216.935,120.049 219.935,123.049 216.935,126.049 213.935,123.049 216.935,120.049"/>
   <polyline stroke-linecap="square" stroke-linejoin="miter" fill="none" stroke-width="1.25" stroke="#ff0000" points="249.567,121.792 252.567,124.792 249.567,127.792 246.567,124.792 249.567,121.792"/>
   <polyline stroke-linecap="square" stroke-linejoin="miter" fill="none" stroke-width="1.25" stroke="#ff0000" points="279.48,123.377 282.48,126.377 279.48,129.377 276.48,126.377 279.48,123.377"/>
   <polyline stroke-linecap="square" stroke-linejoin="miter" fill="none" stroke-width="1.25" stroke="#ff0000" points="305.314,124.645 308.314,127.645 305.314,130.645 302.314,127.645 305.314,124.645"/>
   <polyline stroke-linecap="square" stroke-linejoin="miter" fill="none" stroke-width="1.25" stroke="#ff0000" points="317.551,125.279 320.551,128.279 317.551,131.279 314.551,128.279 317.551,125.279"/>
   <polyline stroke-linecap="butt" stroke-linejoin="round" fill="none" stroke-width="0.5" stroke="#00ffff" points="284.919,163.309 284.919,126.644 243.055,162.082 256.482,125.159 198.44,161.049 226.843,123.578 162.817,160.395 203.716,122.397 139.977,160.06 176.749,121.065 116.798,159.802 141.164,119.301 90.6558,159.659 99.9828,117.277 67.0885,159.572"/>
   <polyline stroke-linecap="butt" stroke-linejoin="round" fill="none" stroke-width="0.5" stroke="#00ff00" points="284.919,163.309 284.919,126.644 284.919,46.9539 170.706,145.926 75.528,228.403 75.528,159.603 75.528,116.025"/>
   <polyline stroke-linecap="round" stroke-linejoin="round" fill="none" stroke-width="0.5" stroke="#00ff00" points="287.919,163.309 287.346,165.072 285.846,166.162 283.992,166.162 282.492,165.072 281.919,163.309 282.492,161.545 283.992,160.456 285.846,160.456 287.346,161.545 287.919,163.309"/>
   <polyline stroke-linecap="round" stroke-linejoin="round" fill="none" stroke-width="0.5" stroke="#00ff00" points="287.919,126.644 287.346,128.408 285.846,129.497 283.992,129.497 282.492,128.408 281.919,126.644 282.492,124.881 283.992,123.791 285.846,123.791 287.346,124.881 287.919,126.644"/>
   <polyline stroke-linecap="round" stroke-linejoin="round" fill="none" stroke-width="0.5" stroke="#00ff00" points="287.919,46.9539 287.346,48.7172 285.846,49.807 283.992,49.807 282.492,48.7172 281.919,46.9539 282.492,45.1905 283.992,44.1006 285.846,44.1006 287.346,45.1905 287.919,46.9539"/>
   <polyline stroke-linecap="round" stroke-linejoin="round" fill="none" stroke-width="0.5" stroke="#00ff00" points="173.706,145.926 173.133,147.69 171.633,148.779 169.779,148.779 168.279,147.69 167.706,145.926 168.279,144.163 169.779,143.073 171.633,143.073 173.133,144.163 173.706,145.926"/>
   <polyline stroke-linecap="round" stroke-linejoin="round" fill="none" stroke-width="0.5" stroke="#00ff00" points="78.528,228.403 77.9551,230.167 76.4551,231.256 74.601,231.256 73.101,230.167 72.528,228.403 73.101,226.64 74.601,225.55 76.4551,225.55 77.9551,226.64 78.528,228.403"/>
   <polyline stroke-linecap="round" stroke-linejoin="round" fill="none" stroke-width="0.5" stroke="#00ff00" points="78.528,159.603 77.9551,161.366 76.4551,162.456 74.601,162.456 73.101,161.366 72.528,159.603 73.101,157.84 74.601,156.75 76.4551,156.75 77.9551,157.84 78.528,159.603"/>
   <polyline stroke-linecap="round" stroke-linejoin="round" fill="none" stroke-width="0.5" stroke="#00ff00" points="78.528,116.025 77.9551,117.789 76.4551,118.879 74.601,118.879 73.101,117.789 72.528,116.025 73.101,114.262 74.601,113.172 76.4551,113.172 77.9551,114.262 78.528,116.025"/>
   <polyline stroke-linecap="butt" stroke-linejoin="round" fill="none" stroke-width="0.5" stroke="#ff00ff" points="146.183,160.135 170.706,145.926 210.732,122.743" stroke-dasharray="8,3,2,3"/>
   <polyline stroke-linecap="square" stroke-linejoin="miter" fill="none" stroke-width="0.5" stroke="#ff00ff" points="143.183,160.135 149.183,160.135"/>
   <polyline stroke-linecap="square" stroke-linejoin="miter" fill="none" stroke-width="0.5" stroke="#ff00ff" points="146.183,157.135 146.183,163.135"/>
   <polyline stroke-linecap="square" stroke-linejoin="miter" fill="none" stroke-width="0.5" stroke="#ff00ff" points="144.062,158.014 148.305,162.257"/>
   <polyline stroke-linecap="square" stroke-linejoin="miter" fill="none" stroke-width="0.5" stroke="#ff00ff" points="144.062,162.257 148.305,158.014"/>
   <polyline stroke-linecap="square" stroke-linejoin="miter" fill="none" stroke-width="0.5" stroke="#ff00ff" points="167.706,145.926 173.706,145.926"/>
   <polyline stroke-linecap="square" stroke-linejoin="miter" fill="none" stroke-width="0.5" stroke="#ff00ff" points="170.706,142.926 170.706,148.926"/>
   <polyline stroke-linecap="square" stroke-linejoin="miter" fill="none" stroke-width="0.5" stroke="#ff00ff" points="168.584,143.805 172.827,148.048"/>
   <polyline stroke-linecap="square" stroke-linejoin="miter" fill="none" stroke-width="0.5" stroke="#ff00ff" points="168.584,148.048 172.827,143.805"/>
   <polyline stroke-linecap="square" stroke-linejoin="miter" fill="none" stroke-width="0.5" stroke="#ff00ff" points="207.732,122.743 213.732,122.743"/>
   <polyline stroke-linecap="square" stroke-linejoin="miter" fill="none" stroke-width="0.5" stroke="#ff00ff" points="210.732,119.743 210.732,125.743"/>
   <polyline stroke-linecap="square" stroke-linejoin="miter" fill="none" stroke-width="0.5" stroke="#ff00ff" points="208.611,120.622 212.854,124.864"/>
   <polyline stroke-linecap="square" stroke-linejoin="miter" fill="none" stroke-width="0.5" stroke="#ff00ff" points="208.611,124.864 212.854,120.622"/>
  </g>
  <clipPath id="cp00350560">
   <polygon points="0,560 350,560 350,0 0,0"/>
  </clipPath>
  <g clip-path="url(#cp00350560)">
   <polygon fill="#ffffff" points="45.6151,498.411 317.551,498.411 317.551,308.207 45.6151,308.207" shape-rendering="crispEdges"/>
   <polyline stroke-linecap="butt" stroke-linejoin="miter" fill="none" stroke-width="0.5" stroke="#262626" points="45.6151,498.411 45.6151,308.207" stroke-dasharray="16,0" stroke-opacity="0.15"/>
   <polyline stroke-linecap="butt" stroke-linejoin="miter" fill="none" stroke-width="0.5" stroke="#262626" points="100.002,498.411 100.002,308.207" stroke-dasharray="16,0" stroke-opacity="0.15"/>
   <polyline stroke-linecap="butt" stroke-linejoin="miter" fill="none" stroke-width="0.5" stroke="#262626" points="154.389,498.411 154.389,308.207" stroke-dasharray="16,0" stroke-opacity="0.15"/>
   <polyline stroke-linecap="butt" stroke-linejoin="miter" fill="none" stroke-width="0.5" stroke="#262626" points="208.777,498.411 208.777,308.207" stroke-dasharray="16,0" stroke-opacity="0.15"/>
   <polyline stroke-linecap="butt" stroke-linejoin="miter" fill="none" stroke-width="0.5" stroke="#262626" points="263.164,498.411 263.164,308.207" stroke-dasharray="16,0" stroke-opacity="0.15"/>
   <polyline stroke-linecap="butt" stroke-linejoin="miter" fill="none" stroke-width="0.5" stroke="#262626" points="317.551,498.411 317.551,308.207" stroke-dasharray="16,0" stroke-opacity="0.15"/>
   <polyline stroke-linecap="butt" stroke-linejoin="miter" fill="none" stroke-width="0.5" stroke="#262626" points="45.6151,498.411 45.6151,495.689"/>
   <polyline stroke-linecap="butt" stroke-linejoin="miter" fill="none" stroke-width="0.5" stroke="#262626" points="45.6151,308.207 45.6151,310.929"/>
   <polyline stroke-linecap="butt" stroke-linejoin="miter" fill="none" stroke-width="0.5" stroke="#262626" points="100.002,498.411 100.002,495.689"/>
   <polyline stroke-linecap="butt" stroke-linejoin="miter" fill="none" stroke-width="0.5" stroke="#262626" points="100.002,308.207 100.002,310.929"/>
   <polyline stroke-linecap="butt" stroke-linejoin="miter" fill="none" stroke-width="0.5" stroke="#262626" points="154.389,498.411 154.389,495.689"/>
   <polyline stroke-linecap="butt" stroke-linejoin="miter" fill="none" stroke-width="0.5" stroke="#262626" points="154.389,308.207 154.389,310.929"/>
   <polyline stroke-linecap="butt" stroke-linejoin="miter" fill="none" stroke-width="0.5" stroke="#262626" points="208.777,498.411 208.777,495.689"/>
   <polyline stroke-linecap="butt" stroke-linejoin="miter" fill="none" stroke-width="0.5" stroke="#262626" points="208.777,308.207 208.777,310.929"/>
   <polyline stroke-linecap="butt" stroke-linejoin="miter" fill="none" stroke-width="0.5" stroke="#262626" points="263.164,498.411 263.164,495.689"/>
   <polyline stroke-linecap="butt" stroke-linejoin="miter" fill="none" stroke-width="0.5" stroke="#262626" points="263.164,308.207 263.164,310.929"/>
   <polyline stroke-linecap="butt" stroke-linejoin="miter" fill="none" stroke-width="0.5" stroke="#262626" points="317.551,498.411 317.551,495.689"/>
   <polyline stroke-linecap="butt" stroke-linejoin="miter" fill="none" stroke-width="0.5" stroke="#262626" points="317.551,308.207 317.551,310.929"/>
   <g transform="translate(41.6151,519.923) rotate(-0,4,-11)" font-weight="normal" font-style="normal" font-family="FreeSans" xml:space="preserve" font-size="14">
    <text fill="rgb(38,38,38)" y="-0" x="0 ">0</text>
   </g>
   <g transform="translate(90.0023,519.923) rotate(-0,10,-11)" font-weight="normal" font-style="normal" font-family="FreeSans" xml:space="preserve" font-size="14">
    <text fill="rgb(38,38,38)" y="-0" x="0 8 12 ">0.2</text>
   </g>
   <g transform="translate(144.389,519.923) rotate(-0,10,-11)" font-weight="normal" font-style="normal" font-family="FreeSans" xml:space="preserve" font-size="14">
    <text fill="rgb(38,38,38)" y="-0" x="0 8 12 ">0.4</text>
   </g>
   <g transform="translate(198.777,519.923) rotate(-0,10,-11)" font-weight="normal" font-style="normal" font-family="FreeSans" xml:space="preserve" font-size="14">
    <text fill="rgb(38,38,38)" y="-0" x="0 8 12 ">0.6</text>
   </g>
   <g transform="translate(253.164,519.923) rotate(-0,10,-11)" font-weight="normal" font-style="normal" font-family="FreeSans" xml:space="preserve" font-size="14">
    <text fill="rgb(38,38,38)" y="-0" x="0 8 12 ">0.8</text>
   </g>
   <g transform="translate(313.551,519.923) rotate(-0,4,-11)" font-weight="normal" font-style="normal" font-family="FreeSans" xml:space="preserve" font-size="14">
    <text fill="rgb(38,38,38)" y="-0" x="0 ">1</text>
   </g>
   <polyline stroke-linecap="butt" stroke-linejoin="miter" fill="none" stroke-width="0.5" stroke="#262626" points="45.6151,498.411 317.551,498.411" stroke-dasharray="16,0" stroke-opacity="0.15"/>
   <polyline stroke-linecap="butt" stroke-linejoin="miter" fill="none" stroke-width="0.5" stroke="#262626" points="45.6151,460.37 317.551,460.37" stroke-dasharray="16,0" stroke-opacity="0.15"/>
   <polyline stroke-linecap="butt" stroke-linejoin="miter" fill="none" stroke-width="0.5" stroke="#262626" points="45.6151,422.329 317.551,422.329" stroke-dasharray="16,0" stroke-opacity="0.15"/>
   <polyline stroke-linecap="butt" stroke-linejoin="miter" fill="none" stroke-width="0.5" stroke="#262626" points="45.6151,384.289 317.551,384.289" stroke-dasharray="16,0" stroke-opacity="0.15"/>
   <polyline stroke-linecap="butt" stroke-linejoin="miter" fill="none" stroke-width="0.5" stroke="#262626" points="45.6151,346.248 317.551,346.248" stroke-dasharray="16,0" stroke-opacity="0.15"/>
   <polyline stroke-linecap="butt" stroke-linejoin="miter" fill="none" stroke-width="0.5" stroke="#262626" points="45.6151,308.207 317.551,308.207" stroke-dasharray="16,0" stroke-opacity="0.15"/>
   <polyline stroke-linecap="butt" stroke-linejoin="miter" fill="none" stroke-width="0.5" stroke="#262626" points="45.6151,498.411 48.3338,498.411"/>
   <polyline stroke-linecap="butt" stroke-linejoin="miter" fill="none" stroke-width="0.5" stroke="#262626" points="317.551,498.411 314.832,498.411"/>
   <polyline stroke-linecap="butt" stroke-linejoin="miter" fill="none" stroke-width="0.5" stroke="#262626" points="45.6151,460.37 48.3338,460.37"/>
   <polyline stroke-linecap="butt" stroke-linejoin="miter" fill="none" stroke-width="0.5" stroke="#262626" points="317.551,460.37 314.832,460.37"/>
   <polyline stroke-linecap="butt" stroke-linejoin="miter" fill="none" stroke-width="0.5" stroke="#262626" points="45.6151,422.329 48.3338,422.329"/>
   <polyline stroke-linecap="butt" stroke-linejoin="miter" fill="none" stroke-width="0.5" stroke="#262626" points="317.551,422.329 314.832,422.329"/>
   <polyline stroke-linecap="butt" stroke-linejoin="miter" fill="none" stroke-width="0.5" stroke="#262626" points="45.6151,384.289 48.3338,384.289"/>
   <polyline stroke-linecap="butt" stroke-linejoin="miter" fill="none" stroke-width="0.5" stroke="#262626" points="317.551,384.289 314.832,384.289"/>
   <polyline stroke-linecap="butt" stroke-linejoin="miter" fill="none" stroke-width="0.5" stroke="#262626" points="45.6151,346.248 48.3338,346.248"/>
   <polyline stroke-linecap="butt" stroke-linejoin="miter" fill="none" stroke-width="0.5" stroke="#262626" points="317.551,346.248 314.832,346.248"/>
   <polyline stroke-linecap="butt" stroke-linejoin="miter" fill="none" stroke-width="0.5" stroke="#262626" points="45.6151,308.207 48.3338,308.207"/>
   <polyline stroke-linecap="butt" stroke-linejoin="miter" fill="none" stroke-width="0.5" stroke="#262626" points="317.551,308.207 314.832,308.207"/>
   <g transform="translate(30.6167,503.911) rotate(-0,8,-5.5)" font-weight="normal" font-style="normal" font-family="FreeSans" xml:space="preserve" font-size="14">
    <text fill="rgb(38,38,38)" y="-0" x="0 ">0</text>
   </g>
   <g transform="translate(18.6167,465.87) rotate(-0,20,-5.5)" font-weight="normal" font-style="normal" font-family="FreeSans" xml:space="preserve" font-size="14">
    <text fill="rgb(38,38,38)" y="-0" x="0 8 12 ">0.2</text>
   </g>
   <g transform="translate(18.6167,427.829) rotate(-0,20,-5.5)" font-weight="normal" font-style="normal" font-family="FreeSans" xml:space="preserve" font-size="14">
    <text fill="rgb(38,38,38)" y="-0" x="0 8 12 ">0.4</text>
   </g>
   <g transform="translate(18.6167,389.789) rotate(-0,20,-5.5)" font-weight="normal" font-style="normal" font-family="FreeSans" xml:space="preserve" font-size="14">
    <text fill="rgb(38,38,38)" y="-0" x="0 8 12 ">0.6</text>
   </g>
   <g transform="translate(18.6167,351.748) rotate(-0,20,-5.5)" font-weight="normal" font-style="normal" font-family="FreeSans" xml:space="preserve" font-size="14">
    <text fill="rgb(38,38,38)" y="-0" x="0 8 12 ">0.8</text>
   </g>
   <g transform="translate(30.6167,313.707) rotate(-0,8,-5.5)" font-weight="normal" font-style="normal" font-family="FreeSans" xml:space="preserve" font-size="14">
    <text fill="rgb(38,38,38)" y="-0" x="0 ">1</text>
   </g>
   <polyline stroke-linecap="square" stroke-linejoin="miter" fill="none" stroke-width="0.5" stroke="#262626" points="45.6151,498.411 317.551,498.411" stroke-dasharray="16,0"/>
   <polyline stroke-linecap="square" stroke-linejoin="miter" fill="none" stroke-width="0.5" stroke="#262626" points="45.6151,308.207 317.551,308.207" stroke-dasharray="16,0"/>
   <polyline stroke-linecap="square" stroke-linejoin="miter" fill="none" stroke-width="0.5" stroke="#262626" points="45.6151,498.411 45.6151,308.207" stroke-dasharray="16,0"/>
   <polyline stroke-linecap="square" stroke-linejoin="miter" fill="none" stroke-width="0.5" stroke="#262626" points="317.551,498.411 317.551,308.207" stroke-dasharray="16,0"/>
   <g transform="translate(177.583,533.923) rotate(-0,4,-9)" font-weight="normal" font-style="italic" font-family="FreeSans" xml:space="preserve" font-size="15.4">
    <text fill="rgb(38,38,38)" y="-0" x="0 ">x</text>
   </g>
   <g transform="translate(9.61672,403.309) rotate(-90,4,0)" font-weight="normal" font-style="italic" font-family="FreeSans" xml:space="preserve" font-size="15.4">
    <text fill="rgb(38,38,38)" y="-4" x="0 ">y</text>
   </g>
   <polyline stroke-linecap="butt" stroke-linejoin="round" fill="none" stroke-width="0.5" stroke="#ff00ff" points="170.706,498.411 170.706,308.207" stroke-dasharray="9,7"/>
   <polyline stroke-linecap="butt" stroke-linejoin="round" fill="none" stroke-width="0.5" stroke="#0000ff" points="284.919,498.411 284.919,308.207" stroke-dasharray="9,7"/>
   <polyline stroke-linecap="butt" stroke-linejoin="round" fill="none" stroke-width="0.5" stroke="#ff0000" points="75.528,498.411 75.528,308.207" stroke-dasharray="9,7"/>
   <polyline stroke-linecap="butt" stroke-linejoin="round" fill="none" stroke-width="1.25" stroke="#000000" points="45.6151,498.411 66.0103,461.702 91.8442,430.128 120.397,403.309 151.67,378.582 188.381,355.758 231.891,334.835 284.919,316.766 317.551,308.207"/>
   <polyline stroke-linecap="round" stroke-linejoin="round" fill="none" stroke-width="1.25" stroke="#000000" points="48.6151,498.411 48.0421,500.175 46.5421,501.264 44.688,501.264 43.188,500.175 42.6151,498.411 43.188,496.648 44.688,495.558 46.5421,495.558 48.0421,496.648 48.6151,498.411"/>
   <polyline stroke-linecap="round" stroke-linejoin="round" fill="none" stroke-width="1.25" stroke="#000000" points="69.0103,461.702 68.4373,463.465 66.9373,464.555 65.0832,464.555 63.5832,463.465 63.0103,461.702 63.5832,459.938 65.0832,458.849 66.9373,458.849 68.4373,459.938 69.0103,461.702"/>
   <polyline stroke-linecap="round" stroke-linejoin="round" fill="none" stroke-width="1.25" stroke="#000000" points="94.8442,430.128 94.2712,431.891 92.7712,432.981 90.9171,432.981 89.4171,431.891 88.8442,430.128 89.4171,428.365 90.9171,427.275 92.7712,427.275 94.2712,428.365 94.8442,430.128"/>
   <polyline stroke-linecap="round" stroke-linejoin="round" fill="none" stroke-width="1.25" stroke="#000000" points="123.397,403.309 122.825,405.072 121.325,406.162 119.47,406.162 117.97,405.072 117.397,403.309 117.97,401.546 119.47,400.456 121.325,400.456 122.825,401.546 123.397,403.309"/>
   <polyline stroke-linecap="round" stroke-linejoin="round" fill="none" stroke-width="1.25" stroke="#000000" points="154.67,378.582 154.097,380.346 152.597,381.436 150.743,381.436 149.243,380.346 148.67,378.582 149.243,376.819 150.743,375.729 152.597,375.729 154.097,376.819 154.67,378.582"/>
   <polyline stroke-linecap="round" stroke-linejoin="round" fill="none" stroke-width="1.25" stroke="#000000" points="191.381,355.758 190.809,357.521 189.309,358.611 187.454,358.611 185.954,357.521 185.381,355.758 185.954,353.995 187.454,352.905 189.309,352.905 190.809,353.995 191.381,355.758"/>
   <polyline stroke-linecap="round" stroke-linejoin="round" fill="none" stroke-width="1.25" stroke="#000000" points="234.891,334.835 234.318,336.599 232.818,337.689 230.964,337.689 229.464,336.599 228.891,334.835 229.464,333.072 230.964,331.982 232.818,331.982 234.318,333.072 234.891,334.835"/>
   <polyline stroke-linecap="round" stroke-linejoin="round" fill="none" stroke-width="1.25" stroke="#000000" points="287.919,316.766 287.346,318.529 285.846,319.619 283.992,319.619 282.492,318.529 281.919,316.766 282.492,315.003 283.992,313.913 285.846,313.913 287.346,315.003 287.919,316.766"/>
   <polyline stroke-linecap="round" stroke-linejoin="round" fill="none" stroke-width="1.25" stroke="#000000" points="320.551,308.207 319.978,309.97 318.478,311.06 316.624,311.06 315.124,309.97 314.551,308.207 315.124,306.443 316.624,305.354 318.478,305.354 319.978,306.443 320.551,308.207"/>
   <polyline stroke-linecap="butt" stroke-linejoin="round" fill="none" stroke-width="0.5" stroke="#000000" points="45.6151,498.411 317.551,308.207" stroke-dasharray="9,7"/>
   <polyline stroke-linecap="butt" stroke-linejoin="round" fill="none" stroke-width="0.5" stroke="#00ffff" points="284.919,331.031 243.055,331.031 243.055,350.921 198.44,350.921 198.44,371.652 162.817,371.652 162.817,387.828 139.977,387.828 139.977,406.69 116.798,406.69 116.798,431.58 90.6558,431.58 90.6558,460.384 67.0885,460.384 67.0885,483.392"/>
   <polyline stroke-linecap="butt" stroke-linejoin="round" fill="none" stroke-width="0.5" stroke="#00ff00" points="284.919,331.031 243.055,350.921 198.44,371.652 162.817,387.828 139.977,406.69 116.798,431.58 90.6558,460.384 67.0885,483.392"/>
   <polyline stroke-linecap="square" stroke-linejoin="miter" fill="none" stroke-width="0.5" stroke="#00ff00" points="284.919,328.031 287.919,331.031 284.919,334.031 281.919,331.031 284.919,328.031"/>
   <polyline stroke-linecap="square" stroke-linejoin="miter" fill="none" stroke-width="0.5" stroke="#00ff00" points="243.055,347.921 246.055,350.921 243.055,353.921 240.055,350.921 243.055,347.921"/>
   <polyline stroke-linecap="square" stroke-linejoin="miter" fill="none" stroke-width="0.5" stroke="#00ff00" points="198.44,368.652 201.44,371.652 198.44,374.652 195.44,371.652 198.44,368.652"/>
   <polyline stroke-linecap="square" stroke-linejoin="miter" fill="none" stroke-width="0.5" stroke="#00ff00" points="162.817,384.828 165.817,387.828 162.817,390.828 159.817,387.828 162.817,384.828"/>
   <polyline stroke-linecap="square" stroke-linejoin="miter" fill="none" stroke-width="0.5" stroke="#00ff00" points="139.977,403.69 142.977,406.69 139.977,409.69 136.977,406.69 139.977,403.69"/>
   <polyline stroke-linecap="square" stroke-linejoin="miter" fill="none" stroke-width="0.5" stroke="#00ff00" points="116.798,428.58 119.798,431.58 116.798,434.58 113.798,431.58 116.798,428.58"/>
   <polyline stroke-linecap="square" stroke-linejoin="miter" fill="none" stroke-width="0.5" stroke="#00ff00" points="90.6558,457.384 93.6558,460.384 90.6558,463.384 87.6558,460.384 90.6558,457.384"/>
   <polyline stroke-linecap="square" stroke-linejoin="miter" fill="none" stroke-width="0.5" stroke="#00ff00" points="67.0885,480.392 70.0885,483.392 67.0885,486.392 64.0885,483.392 67.0885,480.392"/>
   <polyline stroke-linecap="butt" stroke-linejoin="round" fill="none" stroke-width="0.5" stroke="#ff00ff" points="80.5369,308.017 247.541,498.602" stroke-dasharray="8,3,2,3"/>
  </g>
 </g>
</svg>
