<?xml version='1.0' encoding='UTF-8' standalone='no'?>
<svg viewBox="0 0 522 831" xmlns:xlink="http://www.w3.org/1999/xlink" width="522pt" xmlns="http://www.w3.org/2000/svg" height="831pt">
 <title>Figure 2</title>
 <desc>
Creator: GL2PS 1.4.2, (C) 1999-2020 C. Geuzaine
For: Octave
CreationDate: Mon Nov 21 21:31:17 2022
</desc>
 <defs/>
 <polygon fill="#ffffff" points="0,0 522,0 522,831 0,831"/>
 <g>
  <polygon fill="#ffffff" shape-rendering="crispEdges" points="0,831 522,831 522,0 0,0"/>
  <clipPath id="cp00522831">
   <polygon points="0,831 522,831 522,0 0,0"/>
  </clipPath>
  <g clip-path="url(#cp00522831)">
   <polygon fill="#ffffff" shape-rendering="crispEdges" points="67.9216,353.774 472.839,353.774 472.839,66.4133 67.9216,66.4133"/>
   <polyline fill="none" stroke-linecap="butt" stroke-linejoin="miter" stroke-width="0.5" stroke="#262626" stroke-opacity="0.15" stroke-dasharray="16,0" points="67.9216,353.774 67.9216,66.4133"/>
   <polyline fill="none" stroke-linecap="butt" stroke-linejoin="miter" stroke-width="0.5" stroke="#262626" stroke-opacity="0.15" stroke-dasharray="16,0" points="148.905,353.774 148.905,66.4133"/>
   <polyline fill="none" stroke-linecap="butt" stroke-linejoin="miter" stroke-width="0.5" stroke="#262626" stroke-opacity="0.15" stroke-dasharray="16,0" points="229.888,353.774 229.888,66.4133"/>
   <polyline fill="none" stroke-linecap="butt" stroke-linejoin="miter" stroke-width="0.5" stroke="#262626" stroke-opacity="0.15" stroke-dasharray="16,0" points="310.872,353.774 310.872,66.4133"/>
   <polyline fill="none" stroke-linecap="butt" stroke-linejoin="miter" stroke-width="0.5" stroke="#262626" stroke-opacity="0.15" stroke-dasharray="16,0" points="391.855,353.774 391.855,66.4133"/>
   <polyline fill="none" stroke-linecap="butt" stroke-linejoin="miter" stroke-width="0.5" stroke="#262626" stroke-opacity="0.15" stroke-dasharray="16,0" points="472.839,353.774 472.839,66.4133"/>
   <polyline fill="none" stroke-linecap="butt" stroke-linejoin="miter" stroke-width="0.5" stroke="#262626" points="67.9216,353.774 67.9216,349.72"/>
   <polyline fill="none" stroke-linecap="butt" stroke-linejoin="miter" stroke-width="0.5" stroke="#262626" points="67.9216,66.4133 67.9216,70.4676"/>
   <polyline fill="none" stroke-linecap="butt" stroke-linejoin="miter" stroke-width="0.5" stroke="#262626" points="148.905,353.774 148.905,349.72"/>
   <polyline fill="none" stroke-linecap="butt" stroke-linejoin="miter" stroke-width="0.5" stroke="#262626" points="148.905,66.4133 148.905,70.4676"/>
   <polyline fill="none" stroke-linecap="butt" stroke-linejoin="miter" stroke-width="0.5" stroke="#262626" points="229.888,353.774 229.888,349.72"/>
   <polyline fill="none" stroke-linecap="butt" stroke-linejoin="miter" stroke-width="0.5" stroke="#262626" points="229.888,66.4133 229.888,70.4676"/>
   <polyline fill="none" stroke-linecap="butt" stroke-linejoin="miter" stroke-width="0.5" stroke="#262626" points="310.872,353.774 310.872,349.72"/>
   <polyline fill="none" stroke-linecap="butt" stroke-linejoin="miter" stroke-width="0.5" stroke="#262626" points="310.872,66.4133 310.872,70.4676"/>
   <polyline fill="none" stroke-linecap="butt" stroke-linejoin="miter" stroke-width="0.5" stroke="#262626" points="391.855,353.774 391.855,349.72"/>
   <polyline fill="none" stroke-linecap="butt" stroke-linejoin="miter" stroke-width="0.5" stroke="#262626" points="391.855,66.4133 391.855,70.4676"/>
   <polyline fill="none" stroke-linecap="butt" stroke-linejoin="miter" stroke-width="0.5" stroke="#262626" points="472.839,353.774 472.839,349.72"/>
   <polyline fill="none" stroke-linecap="butt" stroke-linejoin="miter" stroke-width="0.5" stroke="#262626" points="472.839,66.4133 472.839,70.4676"/>
   <g transform="translate(63.9216,375.287) rotate(-0,4,-11)" xml:space="preserve" font-size="14" font-style="normal" font-weight="normal" font-family="FreeSans">
    <text fill="rgb(38,38,38)" y="-0" x="0 ">0</text>
   </g>
   <g transform="translate(138.905,375.287) rotate(-0,10,-11)" xml:space="preserve" font-size="14" font-style="normal" font-weight="normal" font-family="FreeSans">
    <text fill="rgb(38,38,38)" y="-0" x="0 8 12 ">0.2</text>
   </g>
   <g transform="translate(219.888,375.287) rotate(-0,10,-11)" xml:space="preserve" font-size="14" font-style="normal" font-weight="normal" font-family="FreeSans">
    <text fill="rgb(38,38,38)" y="-0" x="0 8 12 ">0.4</text>
   </g>
   <g transform="translate(300.872,375.287) rotate(-0,10,-11)" xml:space="preserve" font-size="14" font-style="normal" font-weight="normal" font-family="FreeSans">
    <text fill="rgb(38,38,38)" y="-0" x="0 8 12 ">0.6</text>
   </g>
   <g transform="translate(381.855,375.287) rotate(-0,10,-11)" xml:space="preserve" font-size="14" font-style="normal" font-weight="normal" font-family="FreeSans">
    <text fill="rgb(38,38,38)" y="-0" x="0 8 12 ">0.8</text>
   </g>
   <g transform="translate(468.839,375.287) rotate(-0,4,-11)" xml:space="preserve" font-size="14" font-style="normal" font-weight="normal" font-family="FreeSans">
    <text fill="rgb(38,38,38)" y="-0" x="0 ">1</text>
   </g>
   <polyline fill="none" stroke-linecap="butt" stroke-linejoin="miter" stroke-width="0.5" stroke="#262626" stroke-opacity="0.15" stroke-dasharray="16,0" points="67.9216,353.774 472.839,353.774"/>
   <polyline fill="none" stroke-linecap="butt" stroke-linejoin="miter" stroke-width="0.5" stroke="#262626" stroke-opacity="0.15" stroke-dasharray="16,0" points="67.9216,312.723 472.839,312.723"/>
   <polyline fill="none" stroke-linecap="butt" stroke-linejoin="miter" stroke-width="0.5" stroke="#262626" stroke-opacity="0.15" stroke-dasharray="16,0" points="67.9216,271.671 472.839,271.671"/>
   <polyline fill="none" stroke-linecap="butt" stroke-linejoin="miter" stroke-width="0.5" stroke="#262626" stroke-opacity="0.15" stroke-dasharray="16,0" points="67.9216,230.619 472.839,230.619"/>
   <polyline fill="none" stroke-linecap="butt" stroke-linejoin="miter" stroke-width="0.5" stroke="#262626" stroke-opacity="0.15" stroke-dasharray="16,0" points="67.9216,189.568 472.839,189.568"/>
   <polyline fill="none" stroke-linecap="butt" stroke-linejoin="miter" stroke-width="0.5" stroke="#262626" stroke-opacity="0.15" stroke-dasharray="16,0" points="67.9216,148.516 472.839,148.516"/>
   <polyline fill="none" stroke-linecap="butt" stroke-linejoin="miter" stroke-width="0.5" stroke="#262626" stroke-opacity="0.15" stroke-dasharray="16,0" points="67.9216,107.465 472.839,107.465"/>
   <polyline fill="none" stroke-linecap="butt" stroke-linejoin="miter" stroke-width="0.5" stroke="#262626" stroke-opacity="0.15" stroke-dasharray="16,0" points="67.9216,66.4133 472.839,66.4133"/>
   <polyline fill="none" stroke-linecap="butt" stroke-linejoin="miter" stroke-width="0.5" stroke="#262626" points="67.9216,353.774 71.9699,353.774"/>
   <polyline fill="none" stroke-linecap="butt" stroke-linejoin="miter" stroke-width="0.5" stroke="#262626" points="472.839,353.774 468.79,353.774"/>
   <polyline fill="none" stroke-linecap="butt" stroke-linejoin="miter" stroke-width="0.5" stroke="#262626" points="67.9216,312.723 71.9699,312.723"/>
   <polyline fill="none" stroke-linecap="butt" stroke-linejoin="miter" stroke-width="0.5" stroke="#262626" points="472.839,312.723 468.79,312.723"/>
   <polyline fill="none" stroke-linecap="butt" stroke-linejoin="miter" stroke-width="0.5" stroke="#262626" points="67.9216,271.671 71.9699,271.671"/>
   <polyline fill="none" stroke-linecap="butt" stroke-linejoin="miter" stroke-width="0.5" stroke="#262626" points="472.839,271.671 468.79,271.671"/>
   <polyline fill="none" stroke-linecap="butt" stroke-linejoin="miter" stroke-width="0.5" stroke="#262626" points="67.9216,230.619 71.9699,230.619"/>
   <polyline fill="none" stroke-linecap="butt" stroke-linejoin="miter" stroke-width="0.5" stroke="#262626" points="472.839,230.619 468.79,230.619"/>
   <polyline fill="none" stroke-linecap="butt" stroke-linejoin="miter" stroke-width="0.5" stroke="#262626" points="67.9216,189.568 71.9699,189.568"/>
   <polyline fill="none" stroke-linecap="butt" stroke-linejoin="miter" stroke-width="0.5" stroke="#262626" points="472.839,189.568 468.79,189.568"/>
   <polyline fill="none" stroke-linecap="butt" stroke-linejoin="miter" stroke-width="0.5" stroke="#262626" points="67.9216,148.516 71.9699,148.516"/>
   <polyline fill="none" stroke-linecap="butt" stroke-linejoin="miter" stroke-width="0.5" stroke="#262626" points="472.839,148.516 468.79,148.516"/>
   <polyline fill="none" stroke-linecap="butt" stroke-linejoin="miter" stroke-width="0.5" stroke="#262626" points="67.9216,107.465 71.9699,107.465"/>
   <polyline fill="none" stroke-linecap="butt" stroke-linejoin="miter" stroke-width="0.5" stroke="#262626" points="472.839,107.465 468.79,107.465"/>
   <polyline fill="none" stroke-linecap="butt" stroke-linejoin="miter" stroke-width="0.5" stroke="#262626" points="67.9216,66.4133 71.9699,66.4133"/>
   <polyline fill="none" stroke-linecap="butt" stroke-linejoin="miter" stroke-width="0.5" stroke="#262626" points="472.839,66.4133 468.79,66.4133"/>
   <g transform="translate(39.923,359.274) rotate(-0,21,-5.5)" xml:space="preserve" font-size="14" font-style="normal" font-weight="normal" font-family="FreeSans">
    <text fill="rgb(38,38,38)" y="-0" x="0 5 13 ">-20</text>
   </g>
   <g transform="translate(39.923,318.223) rotate(-0,21,-5.5)" xml:space="preserve" font-size="14" font-style="normal" font-weight="normal" font-family="FreeSans">
    <text fill="rgb(38,38,38)" y="-0" x="0 5 13 ">-10</text>
   </g>
   <g transform="translate(52.923,277.171) rotate(-0,8,-5.5)" xml:space="preserve" font-size="14" font-style="normal" font-weight="normal" font-family="FreeSans">
    <text fill="rgb(38,38,38)" y="-0" x="0 ">0</text>
   </g>
   <g transform="translate(44.923,236.119) rotate(-0,16,-5.5)" xml:space="preserve" font-size="14" font-style="normal" font-weight="normal" font-family="FreeSans">
    <text fill="rgb(38,38,38)" y="-0" x="0 8 ">10</text>
   </g>
   <g transform="translate(44.923,195.068) rotate(-0,16,-5.5)" xml:space="preserve" font-size="14" font-style="normal" font-weight="normal" font-family="FreeSans">
    <text fill="rgb(38,38,38)" y="-0" x="0 8 ">20</text>
   </g>
   <g transform="translate(44.923,154.016) rotate(-0,16,-5.5)" xml:space="preserve" font-size="14" font-style="normal" font-weight="normal" font-family="FreeSans">
    <text fill="rgb(38,38,38)" y="-0" x="0 8 ">30</text>
   </g>
   <g transform="translate(44.923,112.965) rotate(-0,16,-5.5)" xml:space="preserve" font-size="14" font-style="normal" font-weight="normal" font-family="FreeSans">
    <text fill="rgb(38,38,38)" y="-0" x="0 8 ">40</text>
   </g>
   <g transform="translate(44.923,71.9134) rotate(-0,16,-5.5)" xml:space="preserve" font-size="14" font-style="normal" font-weight="normal" font-family="FreeSans">
    <text fill="rgb(38,38,38)" y="-0" x="0 8 ">50</text>
   </g>
   <polyline fill="none" stroke-linecap="square" stroke-linejoin="miter" stroke-width="0.5" stroke="#262626" stroke-dasharray="16,0" points="67.9216,353.774 472.839,353.774"/>
   <polyline fill="none" stroke-linecap="square" stroke-linejoin="miter" stroke-width="0.5" stroke="#262626" stroke-dasharray="16,0" points="67.9216,66.4133 472.839,66.4133"/>
   <polyline fill="none" stroke-linecap="square" stroke-linejoin="miter" stroke-width="0.5" stroke="#262626" stroke-dasharray="16,0" points="67.9216,353.774 67.9216,66.4133"/>
   <polyline fill="none" stroke-linecap="square" stroke-linejoin="miter" stroke-width="0.5" stroke="#262626" stroke-dasharray="16,0" points="472.839,353.774 472.839,66.4133"/>
   <g transform="translate(22.923,210.094) rotate(-90,12,0)" xml:space="preserve" font-size="15.4" font-style="italic" font-weight="normal" font-family="FreeSans">
    <text fill="rgb(38,38,38)" y="-2" x="0 ">h</text>
    <text fill="rgb(38,38,38)" y="-2" font-style="normal" x="8 ">,</text>
    <text fill="rgb(38,38,38)" y="-2" x="12 ">H</text>
   </g>
   <g transform="translate(260.38,393.287) rotate(-0,10,-13)" xml:space="preserve" font-size="15.4" font-style="italic" font-weight="normal" font-family="FreeSans">
    <text fill="rgb(38,38,38)" y="-4" x="0 ">x</text>
    <text fill="rgb(38,38,38)" y="-4" font-style="normal" x="8 ">,</text>
    <text fill="rgb(38,38,38)" y="-4" x="12 ">y</text>
   </g>
   <polyline fill="none" stroke-linecap="butt" stroke-linejoin="round" stroke-width="1.25" stroke="#0000ff" points="68.0228,258.391 88.1674,260.727 108.413,261.297 128.659,261.576 148.905,261.728 189.397,261.884 229.888,261.991 270.38,262.073 310.872,262.147 351.364,262.221 391.855,262.295 432.347,262.369 472.839,262.434"/>
   <polyline fill="none" stroke-linecap="square" stroke-linejoin="miter" stroke-width="1.25" stroke="#0000ff" points="68.0228,255.391 71.0228,258.391 68.0228,261.391 65.0228,258.391 68.0228,255.391"/>
   <polyline fill="none" stroke-linecap="square" stroke-linejoin="miter" stroke-width="1.25" stroke="#0000ff" points="88.1674,257.727 91.1674,260.727 88.1674,263.727 85.1674,260.727 88.1674,257.727"/>
   <polyline fill="none" stroke-linecap="square" stroke-linejoin="miter" stroke-width="1.25" stroke="#0000ff" points="108.413,258.297 111.413,261.297 108.413,264.297 105.413,261.297 108.413,258.297"/>
   <polyline fill="none" stroke-linecap="square" stroke-linejoin="miter" stroke-width="1.25" stroke="#0000ff" points="128.659,258.576 131.659,261.576 128.659,264.576 125.659,261.576 128.659,258.576"/>
   <polyline fill="none" stroke-linecap="square" stroke-linejoin="miter" stroke-width="1.25" stroke="#0000ff" points="148.905,258.728 151.905,261.728 148.905,264.728 145.905,261.728 148.905,258.728"/>
   <polyline fill="none" stroke-linecap="square" stroke-linejoin="miter" stroke-width="1.25" stroke="#0000ff" points="189.397,258.884 192.397,261.884 189.397,264.884 186.397,261.884 189.397,258.884"/>
   <polyline fill="none" stroke-linecap="square" stroke-linejoin="miter" stroke-width="1.25" stroke="#0000ff" points="229.888,258.991 232.888,261.991 229.888,264.991 226.888,261.991 229.888,258.991"/>
   <polyline fill="none" stroke-linecap="square" stroke-linejoin="miter" stroke-width="1.25" stroke="#0000ff" points="270.38,259.073 273.38,262.073 270.38,265.073 267.38,262.073 270.38,259.073"/>
   <polyline fill="none" stroke-linecap="square" stroke-linejoin="miter" stroke-width="1.25" stroke="#0000ff" points="310.872,259.147 313.872,262.147 310.872,265.147 307.872,262.147 310.872,259.147"/>
   <polyline fill="none" stroke-linecap="square" stroke-linejoin="miter" stroke-width="1.25" stroke="#0000ff" points="351.364,259.221 354.364,262.221 351.364,265.221 348.364,262.221 351.364,259.221"/>
   <polyline fill="none" stroke-linecap="square" stroke-linejoin="miter" stroke-width="1.25" stroke="#0000ff" points="391.855,259.295 394.855,262.295 391.855,265.295 388.855,262.295 391.855,259.295"/>
   <polyline fill="none" stroke-linecap="square" stroke-linejoin="miter" stroke-width="1.25" stroke="#0000ff" points="432.347,259.369 435.347,262.369 432.347,265.369 429.347,262.369 432.347,259.369"/>
   <polyline fill="none" stroke-linecap="square" stroke-linejoin="miter" stroke-width="1.25" stroke="#0000ff" points="472.839,259.434 475.839,262.434 472.839,265.434 469.839,262.434 472.839,259.434"/>
   <polyline fill="none" stroke-linecap="butt" stroke-linejoin="round" stroke-width="1.25" stroke="#ff0000" points="68.5998,186.612 176.034,187.433 237.177,188.172 277.264,188.911 302.369,189.568 337.191,191.046 363.106,192.401 383.352,193.796 401.978,195.11 420.199,196.506 438.421,197.86 455.832,199.092 472.839,200.282"/>
   <polyline fill="none" stroke-linecap="square" stroke-linejoin="miter" stroke-width="1.25" stroke="#ff0000" points="68.5998,183.612 71.5998,186.612 68.5998,189.612 65.5998,186.612 68.5998,183.612"/>
   <polyline fill="none" stroke-linecap="square" stroke-linejoin="miter" stroke-width="1.25" stroke="#ff0000" points="176.034,184.433 179.034,187.433 176.034,190.433 173.034,187.433 176.034,184.433"/>
   <polyline fill="none" stroke-linecap="square" stroke-linejoin="miter" stroke-width="1.25" stroke="#ff0000" points="237.177,185.172 240.177,188.172 237.177,191.172 234.177,188.172 237.177,185.172"/>
   <polyline fill="none" stroke-linecap="square" stroke-linejoin="miter" stroke-width="1.25" stroke="#ff0000" points="277.264,185.911 280.264,188.911 277.264,191.911 274.264,188.911 277.264,185.911"/>
   <polyline fill="none" stroke-linecap="square" stroke-linejoin="miter" stroke-width="1.25" stroke="#ff0000" points="302.369,186.568 305.369,189.568 302.369,192.568 299.369,189.568 302.369,186.568"/>
   <polyline fill="none" stroke-linecap="square" stroke-linejoin="miter" stroke-width="1.25" stroke="#ff0000" points="337.191,188.046 340.191,191.046 337.191,194.046 334.191,191.046 337.191,188.046"/>
   <polyline fill="none" stroke-linecap="square" stroke-linejoin="miter" stroke-width="1.25" stroke="#ff0000" points="363.106,189.401 366.106,192.401 363.106,195.401 360.106,192.401 363.106,189.401"/>
   <polyline fill="none" stroke-linecap="square" stroke-linejoin="miter" stroke-width="1.25" stroke="#ff0000" points="383.352,190.796 386.352,193.796 383.352,196.796 380.352,193.796 383.352,190.796"/>
   <polyline fill="none" stroke-linecap="square" stroke-linejoin="miter" stroke-width="1.25" stroke="#ff0000" points="401.978,192.11 404.978,195.11 401.978,198.11 398.978,195.11 401.978,192.11"/>
   <polyline fill="none" stroke-linecap="square" stroke-linejoin="miter" stroke-width="1.25" stroke="#ff0000" points="420.199,193.506 423.199,196.506 420.199,199.506 417.199,196.506 420.199,193.506"/>
   <polyline fill="none" stroke-linecap="square" stroke-linejoin="miter" stroke-width="1.25" stroke="#ff0000" points="438.421,194.86 441.421,197.86 438.421,200.86 435.421,197.86 438.421,194.86"/>
   <polyline fill="none" stroke-linecap="square" stroke-linejoin="miter" stroke-width="1.25" stroke="#ff0000" points="455.832,196.092 458.832,199.092 455.832,202.092 452.832,199.092 455.832,196.092"/>
   <polyline fill="none" stroke-linecap="square" stroke-linejoin="miter" stroke-width="1.25" stroke="#ff0000" points="472.839,197.282 475.839,200.282 472.839,203.282 469.839,200.282 472.839,197.282"/>
   <polyline fill="none" stroke-linecap="butt" stroke-linejoin="round" stroke-width="0.5" stroke="#00ffff" points="424.249,262.354 424.249,196.807 360.362,262.237 386.778,194.038 277.828,262.087 340.783,191.234 195.009,261.899 295.977,189.401 143.751,261.69 183.548,187.524 90.6555,260.797"/>
   <polyline fill="none" stroke-linecap="butt" stroke-linejoin="round" stroke-width="0.5" stroke="#00ff00" points="424.249,262.354 424.249,196.807 424.249,97.2976 254.183,218.77 112.462,319.997 112.462,261.353 112.462,186.947"/>
   <polyline fill="none" stroke-linecap="round" stroke-linejoin="round" stroke-width="0.5" stroke="#00ff00" points="427.249,262.354 426.676,264.117 425.176,265.207 423.322,265.207 421.822,264.117 421.249,262.354 421.822,260.591 423.322,259.501 425.176,259.501 426.676,260.591 427.249,262.354"/>
   <polyline fill="none" stroke-linecap="round" stroke-linejoin="round" stroke-width="0.5" stroke="#00ff00" points="427.249,196.807 426.676,198.57 425.176,199.66 423.322,199.66 421.822,198.57 421.249,196.807 421.822,195.043 423.322,193.954 425.176,193.954 426.676,195.043 427.249,196.807"/>
   <polyline fill="none" stroke-linecap="round" stroke-linejoin="round" stroke-width="0.5" stroke="#00ff00" points="427.249,97.2976 426.676,99.061 425.176,100.151 423.322,100.151 421.822,99.061 421.249,97.2976 421.822,95.5343 423.322,94.4445 425.176,94.4445 426.676,95.5343 427.249,97.2976"/>
   <polyline fill="none" stroke-linecap="round" stroke-linejoin="round" stroke-width="0.5" stroke="#00ff00" points="257.183,218.77 256.611,220.534 255.111,221.623 253.256,221.623 251.756,220.534 251.183,218.77 251.756,217.007 253.256,215.917 255.111,215.917 256.611,217.007 257.183,218.77"/>
   <polyline fill="none" stroke-linecap="round" stroke-linejoin="round" stroke-width="0.5" stroke="#00ff00" points="115.462,319.997 114.89,321.761 113.39,322.851 111.535,322.851 110.035,321.761 109.462,319.997 110.035,318.234 111.535,317.144 113.39,317.144 114.89,318.234 115.462,319.997"/>
   <polyline fill="none" stroke-linecap="round" stroke-linejoin="round" stroke-width="0.5" stroke="#00ff00" points="115.462,261.353 114.89,263.116 113.39,264.206 111.535,264.206 110.035,263.116 109.462,261.353 110.035,259.59 111.535,258.5 113.39,258.5 114.89,259.59 115.462,261.353"/>
   <polyline fill="none" stroke-linecap="round" stroke-linejoin="round" stroke-width="0.5" stroke="#00ff00" points="115.462,186.947 114.89,188.711 113.39,189.801 111.535,189.801 110.035,188.711 109.462,186.947 110.035,185.184 111.535,184.094 113.39,184.094 114.89,185.184 115.462,186.947"/>
   <polyline fill="none" stroke-linecap="butt" stroke-linejoin="round" stroke-width="0.5" stroke="#ff00ff" stroke-dasharray="8,3,2,3" points="163.329,261.784 254.183,218.77 314.774,190.094"/>
   <polyline fill="none" stroke-linecap="square" stroke-linejoin="miter" stroke-width="0.5" stroke="#ff00ff" points="160.329,261.784 166.329,261.784"/>
   <polyline fill="none" stroke-linecap="square" stroke-linejoin="miter" stroke-width="0.5" stroke="#ff00ff" points="163.329,258.784 163.329,264.784"/>
   <polyline fill="none" stroke-linecap="square" stroke-linejoin="miter" stroke-width="0.5" stroke="#ff00ff" points="161.208,259.663 165.451,263.905"/>
   <polyline fill="none" stroke-linecap="square" stroke-linejoin="miter" stroke-width="0.5" stroke="#ff00ff" points="161.208,263.905 165.451,259.663"/>
   <polyline fill="none" stroke-linecap="square" stroke-linejoin="miter" stroke-width="0.5" stroke="#ff00ff" points="251.183,218.77 257.183,218.77"/>
   <polyline fill="none" stroke-linecap="square" stroke-linejoin="miter" stroke-width="0.5" stroke="#ff00ff" points="254.183,215.77 254.183,221.77"/>
   <polyline fill="none" stroke-linecap="square" stroke-linejoin="miter" stroke-width="0.5" stroke="#ff00ff" points="252.062,216.649 256.305,220.892"/>
   <polyline fill="none" stroke-linecap="square" stroke-linejoin="miter" stroke-width="0.5" stroke="#ff00ff" points="252.062,220.892 256.305,216.649"/>
   <polyline fill="none" stroke-linecap="square" stroke-linejoin="miter" stroke-width="0.5" stroke="#ff00ff" points="311.774,190.094 317.774,190.094"/>
   <polyline fill="none" stroke-linecap="square" stroke-linejoin="miter" stroke-width="0.5" stroke="#ff00ff" points="314.774,187.094 314.774,193.094"/>
   <polyline fill="none" stroke-linecap="square" stroke-linejoin="miter" stroke-width="0.5" stroke="#ff00ff" points="312.652,187.973 316.895,192.216"/>
   <polyline fill="none" stroke-linecap="square" stroke-linejoin="miter" stroke-width="0.5" stroke="#ff00ff" points="312.652,192.216 316.895,187.973"/>
  </g>
  <clipPath id="cp00522831">
   <polygon points="0,831 522,831 522,0 0,0"/>
  </clipPath>
  <g clip-path="url(#cp00522831)">
   <polygon fill="#ffffff" shape-rendering="crispEdges" points="67.9216,740.283 472.839,740.283 472.839,452.922 67.9216,452.922"/>
   <polyline fill="none" stroke-linecap="butt" stroke-linejoin="miter" stroke-width="0.5" stroke="#262626" stroke-opacity="0.15" stroke-dasharray="16,0" points="67.9216,740.283 67.9216,452.922"/>
   <polyline fill="none" stroke-linecap="butt" stroke-linejoin="miter" stroke-width="0.5" stroke="#262626" stroke-opacity="0.15" stroke-dasharray="16,0" points="148.905,740.283 148.905,452.922"/>
   <polyline fill="none" stroke-linecap="butt" stroke-linejoin="miter" stroke-width="0.5" stroke="#262626" stroke-opacity="0.15" stroke-dasharray="16,0" points="229.888,740.283 229.888,452.922"/>
   <polyline fill="none" stroke-linecap="butt" stroke-linejoin="miter" stroke-width="0.5" stroke="#262626" stroke-opacity="0.15" stroke-dasharray="16,0" points="310.872,740.283 310.872,452.922"/>
   <polyline fill="none" stroke-linecap="butt" stroke-linejoin="miter" stroke-width="0.5" stroke="#262626" stroke-opacity="0.15" stroke-dasharray="16,0" points="391.855,740.283 391.855,452.922"/>
   <polyline fill="none" stroke-linecap="butt" stroke-linejoin="miter" stroke-width="0.5" stroke="#262626" stroke-opacity="0.15" stroke-dasharray="16,0" points="472.839,740.283 472.839,452.922"/>
   <polyline fill="none" stroke-linecap="butt" stroke-linejoin="miter" stroke-width="0.5" stroke="#262626" points="67.9216,740.283 67.9216,736.228"/>
   <polyline fill="none" stroke-linecap="butt" stroke-linejoin="miter" stroke-width="0.5" stroke="#262626" points="67.9216,452.922 67.9216,456.976"/>
   <polyline fill="none" stroke-linecap="butt" stroke-linejoin="miter" stroke-width="0.5" stroke="#262626" points="148.905,740.283 148.905,736.228"/>
   <polyline fill="none" stroke-linecap="butt" stroke-linejoin="miter" stroke-width="0.5" stroke="#262626" points="148.905,452.922 148.905,456.976"/>
   <polyline fill="none" stroke-linecap="butt" stroke-linejoin="miter" stroke-width="0.5" stroke="#262626" points="229.888,740.283 229.888,736.228"/>
   <polyline fill="none" stroke-linecap="butt" stroke-linejoin="miter" stroke-width="0.5" stroke="#262626" points="229.888,452.922 229.888,456.976"/>
   <polyline fill="none" stroke-linecap="butt" stroke-linejoin="miter" stroke-width="0.5" stroke="#262626" points="310.872,740.283 310.872,736.228"/>
   <polyline fill="none" stroke-linecap="butt" stroke-linejoin="miter" stroke-width="0.5" stroke="#262626" points="310.872,452.922 310.872,456.976"/>
   <polyline fill="none" stroke-linecap="butt" stroke-linejoin="miter" stroke-width="0.5" stroke="#262626" points="391.855,740.283 391.855,736.228"/>
   <polyline fill="none" stroke-linecap="butt" stroke-linejoin="miter" stroke-width="0.5" stroke="#262626" points="391.855,452.922 391.855,456.976"/>
   <polyline fill="none" stroke-linecap="butt" stroke-linejoin="miter" stroke-width="0.5" stroke="#262626" points="472.839,740.283 472.839,736.228"/>
   <polyline fill="none" stroke-linecap="butt" stroke-linejoin="miter" stroke-width="0.5" stroke="#262626" points="472.839,452.922 472.839,456.976"/>
   <g transform="translate(63.9216,761.796) rotate(-0,4,-11)" xml:space="preserve" font-size="14" font-style="normal" font-weight="normal" font-family="FreeSans">
    <text fill="rgb(38,38,38)" y="-0" x="0 ">0</text>
   </g>
   <g transform="translate(138.905,761.796) rotate(-0,10,-11)" xml:space="preserve" font-size="14" font-style="normal" font-weight="normal" font-family="FreeSans">
    <text fill="rgb(38,38,38)" y="-0" x="0 8 12 ">0.2</text>
   </g>
   <g transform="translate(219.888,761.796) rotate(-0,10,-11)" xml:space="preserve" font-size="14" font-style="normal" font-weight="normal" font-family="FreeSans">
    <text fill="rgb(38,38,38)" y="-0" x="0 8 12 ">0.4</text>
   </g>
   <g transform="translate(300.872,761.796) rotate(-0,10,-11)" xml:space="preserve" font-size="14" font-style="normal" font-weight="normal" font-family="FreeSans">
    <text fill="rgb(38,38,38)" y="-0" x="0 8 12 ">0.6</text>
   </g>
   <g transform="translate(381.855,761.796) rotate(-0,10,-11)" xml:space="preserve" font-size="14" font-style="normal" font-weight="normal" font-family="FreeSans">
    <text fill="rgb(38,38,38)" y="-0" x="0 8 12 ">0.8</text>
   </g>
   <g transform="translate(468.839,761.796) rotate(-0,4,-11)" xml:space="preserve" font-size="14" font-style="normal" font-weight="normal" font-family="FreeSans">
    <text fill="rgb(38,38,38)" y="-0" x="0 ">1</text>
   </g>
   <polyline fill="none" stroke-linecap="butt" stroke-linejoin="miter" stroke-width="0.5" stroke="#262626" stroke-opacity="0.15" stroke-dasharray="16,0" points="67.9216,740.283 472.839,740.283"/>
   <polyline fill="none" stroke-linecap="butt" stroke-linejoin="miter" stroke-width="0.5" stroke="#262626" stroke-opacity="0.15" stroke-dasharray="16,0" points="67.9216,682.81 472.839,682.81"/>
   <polyline fill="none" stroke-linecap="butt" stroke-linejoin="miter" stroke-width="0.5" stroke="#262626" stroke-opacity="0.15" stroke-dasharray="16,0" points="67.9216,625.338 472.839,625.338"/>
   <polyline fill="none" stroke-linecap="butt" stroke-linejoin="miter" stroke-width="0.5" stroke="#262626" stroke-opacity="0.15" stroke-dasharray="16,0" points="67.9216,567.866 472.839,567.866"/>
   <polyline fill="none" stroke-linecap="butt" stroke-linejoin="miter" stroke-width="0.5" stroke="#262626" stroke-opacity="0.15" stroke-dasharray="16,0" points="67.9216,510.394 472.839,510.394"/>
   <polyline fill="none" stroke-linecap="butt" stroke-linejoin="miter" stroke-width="0.5" stroke="#262626" stroke-opacity="0.15" stroke-dasharray="16,0" points="67.9216,452.922 472.839,452.922"/>
   <polyline fill="none" stroke-linecap="butt" stroke-linejoin="miter" stroke-width="0.5" stroke="#262626" points="67.9216,740.283 71.9699,740.283"/>
   <polyline fill="none" stroke-linecap="butt" stroke-linejoin="miter" stroke-width="0.5" stroke="#262626" points="472.839,740.283 468.79,740.283"/>
   <polyline fill="none" stroke-linecap="butt" stroke-linejoin="miter" stroke-width="0.5" stroke="#262626" points="67.9216,682.81 71.9699,682.81"/>
   <polyline fill="none" stroke-linecap="butt" stroke-linejoin="miter" stroke-width="0.5" stroke="#262626" points="472.839,682.81 468.79,682.81"/>
   <polyline fill="none" stroke-linecap="butt" stroke-linejoin="miter" stroke-width="0.5" stroke="#262626" points="67.9216,625.338 71.9699,625.338"/>
   <polyline fill="none" stroke-linecap="butt" stroke-linejoin="miter" stroke-width="0.5" stroke="#262626" points="472.839,625.338 468.79,625.338"/>
   <polyline fill="none" stroke-linecap="butt" stroke-linejoin="miter" stroke-width="0.5" stroke="#262626" points="67.9216,567.866 71.9699,567.866"/>
   <polyline fill="none" stroke-linecap="butt" stroke-linejoin="miter" stroke-width="0.5" stroke="#262626" points="472.839,567.866 468.79,567.866"/>
   <polyline fill="none" stroke-linecap="butt" stroke-linejoin="miter" stroke-width="0.5" stroke="#262626" points="67.9216,510.394 71.9699,510.394"/>
   <polyline fill="none" stroke-linecap="butt" stroke-linejoin="miter" stroke-width="0.5" stroke="#262626" points="472.839,510.394 468.79,510.394"/>
   <polyline fill="none" stroke-linecap="butt" stroke-linejoin="miter" stroke-width="0.5" stroke="#262626" points="67.9216,452.922 71.9699,452.922"/>
   <polyline fill="none" stroke-linecap="butt" stroke-linejoin="miter" stroke-width="0.5" stroke="#262626" points="472.839,452.922 468.79,452.922"/>
   <g transform="translate(52.923,745.783) rotate(-0,8,-5.5)" xml:space="preserve" font-size="14" font-style="normal" font-weight="normal" font-family="FreeSans">
    <text fill="rgb(38,38,38)" y="-0" x="0 ">0</text>
   </g>
   <g transform="translate(40.923,688.31) rotate(-0,20,-5.5)" xml:space="preserve" font-size="14" font-style="normal" font-weight="normal" font-family="FreeSans">
    <text fill="rgb(38,38,38)" y="-0" x="0 8 12 ">0.2</text>
   </g>
   <g transform="translate(40.923,630.838) rotate(-0,20,-5.5)" xml:space="preserve" font-size="14" font-style="normal" font-weight="normal" font-family="FreeSans">
    <text fill="rgb(38,38,38)" y="-0" x="0 8 12 ">0.4</text>
   </g>
   <g transform="translate(40.923,573.366) rotate(-0,20,-5.5)" xml:space="preserve" font-size="14" font-style="normal" font-weight="normal" font-family="FreeSans">
    <text fill="rgb(38,38,38)" y="-0" x="0 8 12 ">0.6</text>
   </g>
   <g transform="translate(40.923,515.894) rotate(-0,20,-5.5)" xml:space="preserve" font-size="14" font-style="normal" font-weight="normal" font-family="FreeSans">
    <text fill="rgb(38,38,38)" y="-0" x="0 8 12 ">0.8</text>
   </g>
   <g transform="translate(52.923,458.422) rotate(-0,8,-5.5)" xml:space="preserve" font-size="14" font-style="normal" font-weight="normal" font-family="FreeSans">
    <text fill="rgb(38,38,38)" y="-0" x="0 ">1</text>
   </g>
   <polyline fill="none" stroke-linecap="square" stroke-linejoin="miter" stroke-width="0.5" stroke="#262626" stroke-dasharray="16,0" points="67.9216,740.283 472.839,740.283"/>
   <polyline fill="none" stroke-linecap="square" stroke-linejoin="miter" stroke-width="0.5" stroke="#262626" stroke-dasharray="16,0" points="67.9216,452.922 472.839,452.922"/>
   <polyline fill="none" stroke-linecap="square" stroke-linejoin="miter" stroke-width="0.5" stroke="#262626" stroke-dasharray="16,0" points="67.9216,740.283 67.9216,452.922"/>
   <polyline fill="none" stroke-linecap="square" stroke-linejoin="miter" stroke-width="0.5" stroke="#262626" stroke-dasharray="16,0" points="472.839,740.283 472.839,452.922"/>
   <g transform="translate(266.38,775.796) rotate(-0,4,-9)" xml:space="preserve" font-size="15.4" font-style="italic" font-weight="normal" font-family="FreeSans">
    <text fill="rgb(38,38,38)" y="-0" x="0 ">x</text>
   </g>
   <g transform="translate(31.923,596.602) rotate(-90,4,0)" xml:space="preserve" font-size="15.4" font-style="italic" font-weight="normal" font-family="FreeSans">
    <text fill="rgb(38,38,38)" y="-4" x="0 ">y</text>
   </g>
   <polyline fill="none" stroke-linecap="butt" stroke-linejoin="round" stroke-width="0.5" stroke="#ff00ff" stroke-dasharray="9,7" points="254.183,740.283 254.183,452.922"/>
   <polyline fill="none" stroke-linecap="butt" stroke-linejoin="round" stroke-width="0.5" stroke="#0000ff" stroke-dasharray="9,7" points="424.249,740.283 424.249,452.922"/>
   <polyline fill="none" stroke-linecap="butt" stroke-linejoin="round" stroke-width="0.5" stroke="#ff0000" stroke-dasharray="9,7" points="112.462,740.283 112.462,452.922"/>
   <polyline fill="none" stroke-linecap="butt" stroke-linejoin="round" stroke-width="1.25" stroke="#000000" points="68.0228,739.801 88.1674,663.557 108.413,620.166 128.659,591.717 148.905,573.901 189.397,549.188 229.888,530.797 270.38,516.429 310.872,503.21 351.364,490.279 391.855,477.347 432.347,464.991 472.839,452.922"/>
   <polyline fill="none" stroke-linecap="round" stroke-linejoin="round" stroke-width="1.25" stroke="#000000" points="71.0228,739.801 70.4499,741.565 68.9499,742.654 67.0958,742.654 65.5958,741.565 65.0228,739.801 65.5958,738.038 67.0958,736.948 68.9499,736.948 70.4499,738.038 71.0228,739.801"/>
   <polyline fill="none" stroke-linecap="round" stroke-linejoin="round" stroke-width="1.25" stroke="#000000" points="91.1674,663.557 90.5945,665.321 89.0945,666.41 87.2404,666.41 85.7404,665.321 85.1674,663.557 85.7404,661.794 87.2404,660.704 89.0945,660.704 90.5945,661.794 91.1674,663.557"/>
   <polyline fill="none" stroke-linecap="round" stroke-linejoin="round" stroke-width="1.25" stroke="#000000" points="111.413,620.166 110.84,621.929 109.34,623.019 107.486,623.019 105.986,621.929 105.413,620.166 105.986,618.402 107.486,617.313 109.34,617.313 110.84,618.402 111.413,620.166"/>
   <polyline fill="none" stroke-linecap="round" stroke-linejoin="round" stroke-width="1.25" stroke="#000000" points="131.659,591.717 131.086,593.48 129.586,594.57 127.732,594.57 126.232,593.48 125.659,591.717 126.232,589.954 127.732,588.864 129.586,588.864 131.086,589.954 131.659,591.717"/>
   <polyline fill="none" stroke-linecap="round" stroke-linejoin="round" stroke-width="1.25" stroke="#000000" points="151.905,573.901 151.332,575.664 149.832,576.754 147.978,576.754 146.478,575.664 145.905,573.901 146.478,572.137 147.978,571.048 149.832,571.048 151.332,572.137 151.905,573.901"/>
   <polyline fill="none" stroke-linecap="round" stroke-linejoin="round" stroke-width="1.25" stroke="#000000" points="192.397,549.188 191.824,550.951 190.324,552.041 188.47,552.041 186.97,550.951 186.397,549.188 186.97,547.424 188.47,546.334 190.324,546.334 191.824,547.424 192.397,549.188"/>
   <polyline fill="none" stroke-linecap="round" stroke-linejoin="round" stroke-width="1.25" stroke="#000000" points="232.888,530.797 232.315,532.56 230.815,533.65 228.961,533.65 227.461,532.56 226.888,530.797 227.461,529.033 228.961,527.943 230.815,527.943 232.315,529.033 232.888,530.797"/>
   <polyline fill="none" stroke-linecap="round" stroke-linejoin="round" stroke-width="1.25" stroke="#000000" points="273.38,516.429 272.807,518.192 271.307,519.282 269.453,519.282 267.953,518.192 267.38,516.429 267.953,514.665 269.453,513.575 271.307,513.575 272.807,514.665 273.38,516.429"/>
   <polyline fill="none" stroke-linecap="round" stroke-linejoin="round" stroke-width="1.25" stroke="#000000" points="313.872,503.21 313.299,504.973 311.799,506.063 309.945,506.063 308.445,504.973 307.872,503.21 308.445,501.447 309.945,500.357 311.799,500.357 313.299,501.447 313.872,503.21"/>
   <polyline fill="none" stroke-linecap="round" stroke-linejoin="round" stroke-width="1.25" stroke="#000000" points="354.364,490.279 353.791,492.042 352.291,493.132 350.436,493.132 348.936,492.042 348.364,490.279 348.936,488.515 350.436,487.426 352.291,487.426 353.791,488.515 354.364,490.279"/>
   <polyline fill="none" stroke-linecap="round" stroke-linejoin="round" stroke-width="1.25" stroke="#000000" points="394.855,477.348 394.282,479.111 392.782,480.201 390.928,480.201 389.428,479.111 388.855,477.348 389.428,475.584 390.928,474.494 392.782,474.494 394.282,475.584 394.855,477.348"/>
   <polyline fill="none" stroke-linecap="round" stroke-linejoin="round" stroke-width="1.25" stroke="#000000" points="435.347,464.991 434.774,466.754 433.274,467.844 431.42,467.844 429.92,466.754 429.347,464.991 429.92,463.228 431.42,462.138 433.274,462.138 434.774,463.228 435.347,464.991"/>
   <polyline fill="none" stroke-linecap="round" stroke-linejoin="round" stroke-width="1.25" stroke="#000000" points="475.839,452.922 475.266,454.685 473.766,455.775 471.912,455.775 470.412,454.685 469.839,452.922 470.412,451.159 471.912,450.069 473.766,450.069 475.266,451.159 475.839,452.922"/>
   <polyline fill="none" stroke-linecap="butt" stroke-linejoin="round" stroke-width="0.5" stroke="#000000" stroke-dasharray="9,7" points="67.9216,740.283 472.839,452.922"/>
   <polyline fill="none" stroke-linecap="butt" stroke-linejoin="round" stroke-width="0.5" stroke="#00ffff" points="424.249,487.405 360.362,487.405 360.362,513.997 277.828,513.997 277.828,546.639 195.009,546.639 195.009,578.437 143.751,578.437 143.751,658.225 90.6555,658.225 90.6555,724.149"/>
   <polyline fill="none" stroke-linecap="butt" stroke-linejoin="round" stroke-width="0.5" stroke="#00ff00" points="424.249,487.405 360.362,513.997 277.828,546.639 195.009,578.437 143.751,658.225 90.6555,724.149"/>
   <polyline fill="none" stroke-linecap="square" stroke-linejoin="miter" stroke-width="0.5" stroke="#00ff00" points="424.249,484.405 427.249,487.405 424.249,490.405 421.249,487.405 424.249,484.405"/>
   <polyline fill="none" stroke-linecap="square" stroke-linejoin="miter" stroke-width="0.5" stroke="#00ff00" points="360.362,510.997 363.362,513.997 360.362,516.997 357.362,513.997 360.362,510.997"/>
   <polyline fill="none" stroke-linecap="square" stroke-linejoin="miter" stroke-width="0.5" stroke="#00ff00" points="277.828,543.639 280.828,546.639 277.828,549.639 274.828,546.639 277.828,543.639"/>
   <polyline fill="none" stroke-linecap="square" stroke-linejoin="miter" stroke-width="0.5" stroke="#00ff00" points="195.009,575.437 198.009,578.437 195.009,581.437 192.009,578.437 195.009,575.437"/>
   <polyline fill="none" stroke-linecap="square" stroke-linejoin="miter" stroke-width="0.5" stroke="#00ff00" points="143.751,655.225 146.751,658.225 143.751,661.225 140.751,658.225 143.751,655.225"/>
   <polyline fill="none" stroke-linecap="square" stroke-linejoin="miter" stroke-width="0.5" stroke="#00ff00" points="90.6555,721.149 93.6555,724.149 90.6555,727.149 87.6555,724.149 90.6555,721.149"/>
   <polyline fill="none" stroke-linecap="butt" stroke-linejoin="round" stroke-width="0.5" stroke="#ff00ff" stroke-dasharray="8,3,2,3" points="67.9216,519.973 472.839,711.546"/>
  </g>
 </g>
</svg>
