<?xml version='1.0' encoding='UTF-8' standalone='no'?>
<svg viewBox="0 0 522 831" xmlns="http://www.w3.org/2000/svg" xmlns:xlink="http://www.w3.org/1999/xlink" height="831pt" width="522pt">
 <title>Figure 1</title>
 <desc>
Creator: GL2PS 1.4.2, (C) 1999-2020 C. Geuzaine
For: Octave
CreationDate: Sat Oct 15 15:53:48 2022
</desc>
 <defs/>
 <polygon points="0,0 522,0 522,831 0,831" fill="#ffffff"/>
 <g>
  <polygon points="0,831 522,831 522,0 0,0" fill="#ffffff" shape-rendering="crispEdges"/>
  <clipPath id="cp00522831">
   <polygon points="0,831 522,831 522,0 0,0"/>
  </clipPath>
  <g clip-path="url(#cp00522831)">
   <polygon points="70.9931,353.774 472.839,353.774 472.839,66.4134 70.9931,66.4134" fill="#ffffff" shape-rendering="crispEdges"/>
   <polyline stroke-linejoin="miter" stroke-dasharray="16,0" points="70.9931,353.774 70.9931,66.4134" fill="none" stroke="#262626" stroke-linecap="butt" stroke-width="0.5" stroke-opacity="0.15"/>
   <polyline stroke-linejoin="miter" stroke-dasharray="16,0" points="151.362,353.774 151.362,66.4134" fill="none" stroke="#262626" stroke-linecap="butt" stroke-width="0.5" stroke-opacity="0.15"/>
   <polyline stroke-linejoin="miter" stroke-dasharray="16,0" points="231.731,353.774 231.731,66.4134" fill="none" stroke="#262626" stroke-linecap="butt" stroke-width="0.5" stroke-opacity="0.15"/>
   <polyline stroke-linejoin="miter" stroke-dasharray="16,0" points="312.1,353.774 312.1,66.4134" fill="none" stroke="#262626" stroke-linecap="butt" stroke-width="0.5" stroke-opacity="0.15"/>
   <polyline stroke-linejoin="miter" stroke-dasharray="16,0" points="392.47,353.774 392.47,66.4134" fill="none" stroke="#262626" stroke-linecap="butt" stroke-width="0.5" stroke-opacity="0.15"/>
   <polyline stroke-linejoin="miter" stroke-dasharray="16,0" points="472.839,353.774 472.839,66.4134" fill="none" stroke="#262626" stroke-linecap="butt" stroke-width="0.5" stroke-opacity="0.15"/>
   <polyline stroke-linejoin="miter" points="70.9931,353.774 70.9931,349.751" fill="none" stroke="#262626" stroke-linecap="butt" stroke-width="0.5"/>
   <polyline stroke-linejoin="miter" points="70.9931,66.4134 70.9931,70.4368" fill="none" stroke="#262626" stroke-linecap="butt" stroke-width="0.5"/>
   <polyline stroke-linejoin="miter" points="151.362,353.774 151.362,349.751" fill="none" stroke="#262626" stroke-linecap="butt" stroke-width="0.5"/>
   <polyline stroke-linejoin="miter" points="151.362,66.4134 151.362,70.4368" fill="none" stroke="#262626" stroke-linecap="butt" stroke-width="0.5"/>
   <polyline stroke-linejoin="miter" points="231.731,353.774 231.731,349.751" fill="none" stroke="#262626" stroke-linecap="butt" stroke-width="0.5"/>
   <polyline stroke-linejoin="miter" points="231.731,66.4134 231.731,70.4368" fill="none" stroke="#262626" stroke-linecap="butt" stroke-width="0.5"/>
   <polyline stroke-linejoin="miter" points="312.1,353.774 312.1,349.751" fill="none" stroke="#262626" stroke-linecap="butt" stroke-width="0.5"/>
   <polyline stroke-linejoin="miter" points="312.1,66.4134 312.1,70.4368" fill="none" stroke="#262626" stroke-linecap="butt" stroke-width="0.5"/>
   <polyline stroke-linejoin="miter" points="392.47,353.774 392.47,349.751" fill="none" stroke="#262626" stroke-linecap="butt" stroke-width="0.5"/>
   <polyline stroke-linejoin="miter" points="392.47,66.4134 392.47,70.4368" fill="none" stroke="#262626" stroke-linecap="butt" stroke-width="0.5"/>
   <polyline stroke-linejoin="miter" points="472.839,353.774 472.839,349.751" fill="none" stroke="#262626" stroke-linecap="butt" stroke-width="0.5"/>
   <polyline stroke-linejoin="miter" points="472.839,66.4134 472.839,70.4368" fill="none" stroke="#262626" stroke-linecap="butt" stroke-width="0.5"/>
   <g transform="translate(66.4931,378.789) rotate(-0,4.5,-13)" font-size="16" font-weight="normal" font-family="FreeSans" font-style="normal" xml:space="preserve">
    <text x="0 " y="-0" fill="rgb(38,38,38)">0</text>
   </g>
   <g transform="translate(140.362,378.789) rotate(-0,11,-13)" font-size="16" font-weight="normal" font-family="FreeSans" font-style="normal" xml:space="preserve">
    <text x="0 9 13 " y="-0" fill="rgb(38,38,38)">0.2</text>
   </g>
   <g transform="translate(220.731,378.789) rotate(-0,11,-13)" font-size="16" font-weight="normal" font-family="FreeSans" font-style="normal" xml:space="preserve">
    <text x="0 9 13 " y="-0" fill="rgb(38,38,38)">0.4</text>
   </g>
   <g transform="translate(301.1,378.789) rotate(-0,11,-13)" font-size="16" font-weight="normal" font-family="FreeSans" font-style="normal" xml:space="preserve">
    <text x="0 9 13 " y="-0" fill="rgb(38,38,38)">0.6</text>
   </g>
   <g transform="translate(381.47,378.789) rotate(-0,11,-13)" font-size="16" font-weight="normal" font-family="FreeSans" font-style="normal" xml:space="preserve">
    <text x="0 9 13 " y="-0" fill="rgb(38,38,38)">0.8</text>
   </g>
   <g transform="translate(468.339,378.789) rotate(-0,4.5,-13)" font-size="16" font-weight="normal" font-family="FreeSans" font-style="normal" xml:space="preserve">
    <text x="0 " y="-0" fill="rgb(38,38,38)">1</text>
   </g>
   <polyline stroke-linejoin="miter" stroke-dasharray="16,0" points="70.9931,353.774 472.839,353.774" fill="none" stroke="#262626" stroke-linecap="butt" stroke-width="0.5" stroke-opacity="0.15"/>
   <polyline stroke-linejoin="miter" stroke-dasharray="16,0" points="70.9931,312.723 472.839,312.723" fill="none" stroke="#262626" stroke-linecap="butt" stroke-width="0.5" stroke-opacity="0.15"/>
   <polyline stroke-linejoin="miter" stroke-dasharray="16,0" points="70.9931,271.671 472.839,271.671" fill="none" stroke="#262626" stroke-linecap="butt" stroke-width="0.5" stroke-opacity="0.15"/>
   <polyline stroke-linejoin="miter" stroke-dasharray="16,0" points="70.9931,230.619 472.839,230.619" fill="none" stroke="#262626" stroke-linecap="butt" stroke-width="0.5" stroke-opacity="0.15"/>
   <polyline stroke-linejoin="miter" stroke-dasharray="16,0" points="70.9931,189.568 472.839,189.568" fill="none" stroke="#262626" stroke-linecap="butt" stroke-width="0.5" stroke-opacity="0.15"/>
   <polyline stroke-linejoin="miter" stroke-dasharray="16,0" points="70.9931,148.516 472.839,148.516" fill="none" stroke="#262626" stroke-linecap="butt" stroke-width="0.5" stroke-opacity="0.15"/>
   <polyline stroke-linejoin="miter" stroke-dasharray="16,0" points="70.9931,107.465 472.839,107.465" fill="none" stroke="#262626" stroke-linecap="butt" stroke-width="0.5" stroke-opacity="0.15"/>
   <polyline stroke-linejoin="miter" stroke-dasharray="16,0" points="70.9931,66.4134 472.839,66.4134" fill="none" stroke="#262626" stroke-linecap="butt" stroke-width="0.5" stroke-opacity="0.15"/>
   <polyline stroke-linejoin="miter" points="70.9931,353.774 75.01,353.774" fill="none" stroke="#262626" stroke-linecap="butt" stroke-width="0.5"/>
   <polyline stroke-linejoin="miter" points="472.839,353.774 468.822,353.774" fill="none" stroke="#262626" stroke-linecap="butt" stroke-width="0.5"/>
   <polyline stroke-linejoin="miter" points="70.9931,312.723 75.01,312.723" fill="none" stroke="#262626" stroke-linecap="butt" stroke-width="0.5"/>
   <polyline stroke-linejoin="miter" points="472.839,312.723 468.822,312.723" fill="none" stroke="#262626" stroke-linecap="butt" stroke-width="0.5"/>
   <polyline stroke-linejoin="miter" points="70.9931,271.671 75.01,271.671" fill="none" stroke="#262626" stroke-linecap="butt" stroke-width="0.5"/>
   <polyline stroke-linejoin="miter" points="472.839,271.671 468.822,271.671" fill="none" stroke="#262626" stroke-linecap="butt" stroke-width="0.5"/>
   <polyline stroke-linejoin="miter" points="70.9931,230.619 75.01,230.619" fill="none" stroke="#262626" stroke-linecap="butt" stroke-width="0.5"/>
   <polyline stroke-linejoin="miter" points="472.839,230.619 468.822,230.619" fill="none" stroke="#262626" stroke-linecap="butt" stroke-width="0.5"/>
   <polyline stroke-linejoin="miter" points="70.9931,189.568 75.01,189.568" fill="none" stroke="#262626" stroke-linecap="butt" stroke-width="0.5"/>
   <polyline stroke-linejoin="miter" points="472.839,189.568 468.822,189.568" fill="none" stroke="#262626" stroke-linecap="butt" stroke-width="0.5"/>
   <polyline stroke-linejoin="miter" points="70.9931,148.516 75.01,148.516" fill="none" stroke="#262626" stroke-linecap="butt" stroke-width="0.5"/>
   <polyline stroke-linejoin="miter" points="472.839,148.516 468.822,148.516" fill="none" stroke="#262626" stroke-linecap="butt" stroke-width="0.5"/>
   <polyline stroke-linejoin="miter" points="70.9931,107.465 75.01,107.465" fill="none" stroke="#262626" stroke-linecap="butt" stroke-width="0.5"/>
   <polyline stroke-linejoin="miter" points="472.839,107.465 468.822,107.465" fill="none" stroke="#262626" stroke-linecap="butt" stroke-width="0.5"/>
   <polyline stroke-linejoin="miter" points="70.9931,66.4134 75.01,66.4134" fill="none" stroke="#262626" stroke-linecap="butt" stroke-width="0.5"/>
   <polyline stroke-linejoin="miter" points="472.839,66.4134 468.822,66.4134" fill="none" stroke="#262626" stroke-linecap="butt" stroke-width="0.5"/>
   <g transform="translate(21.9962,360.274) rotate(-0,41,-6.5)" font-size="16" font-weight="normal" font-family="FreeSans" font-style="normal" xml:space="preserve">
    <text x="0 5 14 23 32 " y="-0" fill="rgb(38,38,38)">-2000</text>
   </g>
   <g transform="translate(21.9962,319.223) rotate(-0,41,-6.5)" font-size="16" font-weight="normal" font-family="FreeSans" font-style="normal" xml:space="preserve">
    <text x="0 5 14 23 32 " y="-0" fill="rgb(38,38,38)">-1000</text>
   </g>
   <g transform="translate(53.9962,278.171) rotate(-0,9,-6.5)" font-size="16" font-weight="normal" font-family="FreeSans" font-style="normal" xml:space="preserve">
    <text x="0 " y="-0" fill="rgb(38,38,38)">0</text>
   </g>
   <g transform="translate(26.9962,237.119) rotate(-0,36,-6.5)" font-size="16" font-weight="normal" font-family="FreeSans" font-style="normal" xml:space="preserve">
    <text x="0 9 18 27 " y="-0" fill="rgb(38,38,38)">1000</text>
   </g>
   <g transform="translate(26.9962,196.068) rotate(-0,36,-6.5)" font-size="16" font-weight="normal" font-family="FreeSans" font-style="normal" xml:space="preserve">
    <text x="0 9 18 27 " y="-0" fill="rgb(38,38,38)">2000</text>
   </g>
   <g transform="translate(26.9962,155.016) rotate(-0,36,-6.5)" font-size="16" font-weight="normal" font-family="FreeSans" font-style="normal" xml:space="preserve">
    <text x="0 9 18 27 " y="-0" fill="rgb(38,38,38)">3000</text>
   </g>
   <g transform="translate(26.9962,113.965) rotate(-0,36,-6.5)" font-size="16" font-weight="normal" font-family="FreeSans" font-style="normal" xml:space="preserve">
    <text x="0 9 18 27 " y="-0" fill="rgb(38,38,38)">4000</text>
   </g>
   <g transform="translate(26.9962,72.9134) rotate(-0,36,-6.5)" font-size="16" font-weight="normal" font-family="FreeSans" font-style="normal" xml:space="preserve">
    <text x="0 9 18 27 " y="-0" fill="rgb(38,38,38)">5000</text>
   </g>
   <polyline stroke-linejoin="miter" stroke-dasharray="16,0" points="70.9931,353.774 472.839,353.774" fill="none" stroke="#262626" stroke-linecap="square" stroke-width="0.5"/>
   <polyline stroke-linejoin="miter" stroke-dasharray="16,0" points="70.9931,66.4134 472.839,66.4134" fill="none" stroke="#262626" stroke-linecap="square" stroke-width="0.5"/>
   <polyline stroke-linejoin="miter" stroke-dasharray="16,0" points="70.9931,353.774 70.9931,66.4134" fill="none" stroke="#262626" stroke-linecap="square" stroke-width="0.5"/>
   <polyline stroke-linejoin="miter" stroke-dasharray="16,0" points="472.839,353.774 472.839,66.4134" fill="none" stroke="#262626" stroke-linecap="square" stroke-width="0.5"/>
   <g transform="translate(2.49622,210.094) rotate(-90,14.5,0)" font-size="17.6" font-weight="normal" font-family="FreeSans" font-style="italic" xml:space="preserve">
    <text x="0 " y="-3" fill="rgb(38,38,38)">h</text>
    <text x="10 " y="-3" fill="rgb(38,38,38)" font-style="normal">,</text>
    <text x="15 " y="-3" fill="rgb(38,38,38)">H</text>
   </g>
   <g transform="translate(259.916,398.789) rotate(-0,12,-15)" font-size="17.6" font-weight="normal" font-family="FreeSans" font-style="italic" xml:space="preserve">
    <text x="0 " y="-4" fill="rgb(38,38,38)">x</text>
    <text x="9 " y="-4" fill="rgb(38,38,38)" font-style="normal">,</text>
    <text x="14 " y="-4" fill="rgb(38,38,38)">y</text>
   </g>
   <polyline stroke-linejoin="round" points="70.9931,254.429 101.132,254.511 139.307,254.635 181.501,254.84 227.713,255.332 281.962,256.154 346.257,257.344 424.617,259.356 472.839,260.874" fill="none" stroke="#0000ff" stroke-linecap="butt" stroke-width="0.5"/>
   <polyline stroke-linejoin="miter" points="70.9931,251.429 73.9931,254.429 70.9931,257.429 67.9931,254.429 70.9931,251.429" fill="none" stroke="#0000ff" stroke-linecap="square" stroke-width="0.5"/>
   <polyline stroke-linejoin="miter" points="101.132,251.511 104.132,254.511 101.132,257.511 98.1316,254.511 101.132,251.511" fill="none" stroke="#0000ff" stroke-linecap="square" stroke-width="0.5"/>
   <polyline stroke-linejoin="miter" points="139.307,251.635 142.307,254.635 139.307,257.635 136.307,254.635 139.307,251.635" fill="none" stroke="#0000ff" stroke-linecap="square" stroke-width="0.5"/>
   <polyline stroke-linejoin="miter" points="181.501,251.84 184.501,254.84 181.501,257.84 178.501,254.84 181.501,251.84" fill="none" stroke="#0000ff" stroke-linecap="square" stroke-width="0.5"/>
   <polyline stroke-linejoin="miter" points="227.713,252.333 230.713,255.333 227.713,258.333 224.713,255.333 227.713,252.333" fill="none" stroke="#0000ff" stroke-linecap="square" stroke-width="0.5"/>
   <polyline stroke-linejoin="miter" points="281.962,253.154 284.962,256.154 281.962,259.154 278.962,256.154 281.962,253.154" fill="none" stroke="#0000ff" stroke-linecap="square" stroke-width="0.5"/>
   <polyline stroke-linejoin="miter" points="346.257,254.344 349.257,257.344 346.257,260.344 343.257,257.344 346.257,254.344" fill="none" stroke="#0000ff" stroke-linecap="square" stroke-width="0.5"/>
   <polyline stroke-linejoin="miter" points="424.617,256.356 427.617,259.356 424.617,262.356 421.617,259.356 424.617,256.356" fill="none" stroke="#0000ff" stroke-linecap="square" stroke-width="0.5"/>
   <polyline stroke-linejoin="miter" points="472.839,257.874 475.839,260.874 472.839,263.874 469.839,260.874 472.839,257.874" fill="none" stroke="#0000ff" stroke-linecap="square" stroke-width="0.5"/>
   <polyline stroke-linejoin="round" points="70.9931,196.136 148.549,199.626 215.256,202.499 271.916,204.962 324.156,207.22 372.377,209.478 416.58,211.531 454.756,213.173 472.839,213.994" fill="none" stroke="#ff0000" stroke-linecap="butt" stroke-width="0.5"/>
   <polyline stroke-linejoin="miter" points="70.9931,193.136 73.9931,196.136 70.9931,199.136 67.9931,196.136 70.9931,193.136" fill="none" stroke="#ff0000" stroke-linecap="square" stroke-width="0.5"/>
   <polyline stroke-linejoin="miter" points="148.549,196.626 151.549,199.626 148.549,202.626 145.549,199.626 148.549,196.626" fill="none" stroke="#ff0000" stroke-linecap="square" stroke-width="0.5"/>
   <polyline stroke-linejoin="miter" points="215.256,199.499 218.256,202.499 215.256,205.499 212.256,202.499 215.256,199.499" fill="none" stroke="#ff0000" stroke-linecap="square" stroke-width="0.5"/>
   <polyline stroke-linejoin="miter" points="271.916,201.962 274.916,204.962 271.916,207.962 268.916,204.962 271.916,201.962" fill="none" stroke="#ff0000" stroke-linecap="square" stroke-width="0.5"/>
   <polyline stroke-linejoin="miter" points="324.156,204.22 327.156,207.22 324.156,210.22 321.156,207.22 324.156,204.22" fill="none" stroke="#ff0000" stroke-linecap="square" stroke-width="0.5"/>
   <polyline stroke-linejoin="miter" points="372.377,206.478 375.377,209.478 372.377,212.478 369.377,209.478 372.377,206.478" fill="none" stroke="#ff0000" stroke-linecap="square" stroke-width="0.5"/>
   <polyline stroke-linejoin="miter" points="416.58,208.531 419.58,211.531 416.58,214.531 413.58,211.531 416.58,208.531" fill="none" stroke="#ff0000" stroke-linecap="square" stroke-width="0.5"/>
   <polyline stroke-linejoin="miter" points="454.756,210.173 457.756,213.173 454.756,216.173 451.756,213.173 454.756,210.173" fill="none" stroke="#ff0000" stroke-linecap="square" stroke-width="0.5"/>
   <polyline stroke-linejoin="miter" points="472.839,210.994 475.839,213.994 472.839,216.994 469.839,213.994 472.839,210.994" fill="none" stroke="#ff0000" stroke-linecap="square" stroke-width="0.5"/>
   <polyline stroke-linejoin="round" points="424.617,259.356 424.617,211.876 362.754,257.768 381.46,209.9 295.173,256.398 335.304,207.742 240.255,255.522 298.619,206.116 205.123,255.092 256.581,204.296 170.081,254.784 202.631,201.955 132.082,254.611 142.537,199.355 98.795,254.505" fill="none" stroke="#00ffff" stroke-linecap="butt" stroke-width="0.5"/>
   <polyline stroke-linejoin="round" points="424.617,259.356 424.617,211.876 424.617,99.4575 255.842,232.768 115.196,343.861 115.196,254.557 115.196,198.125" fill="none" stroke="#00ff00" stroke-linecap="butt" stroke-width="0.5"/>
   <polyline stroke-linejoin="round" points="427.617,259.356 427.044,261.119 425.544,262.209 423.69,262.209 422.19,261.119 421.617,259.356 422.19,257.592 423.69,256.502 425.544,256.502 427.044,257.592 427.617,259.356" fill="none" stroke="#00ff00" stroke-linecap="round" stroke-width="0.5"/>
   <polyline stroke-linejoin="round" points="427.617,211.876 427.044,213.64 425.544,214.729 423.69,214.729 422.19,213.64 421.617,211.876 422.19,210.113 423.69,209.023 425.544,209.023 427.044,210.113 427.617,211.876" fill="none" stroke="#00ff00" stroke-linecap="round" stroke-width="0.5"/>
   <polyline stroke-linejoin="round" points="427.617,99.4575 427.044,101.221 425.544,102.311 423.69,102.311 422.19,101.221 421.617,99.4575 422.19,97.6942 423.69,96.6043 425.544,96.6043 427.044,97.6942 427.617,99.4575" fill="none" stroke="#00ff00" stroke-linecap="round" stroke-width="0.5"/>
   <polyline stroke-linejoin="round" points="258.842,232.768 258.269,234.532 256.769,235.622 254.915,235.622 253.415,234.532 252.842,232.768 253.415,231.005 254.915,229.915 256.769,229.915 258.269,231.005 258.842,232.768" fill="none" stroke="#00ff00" stroke-linecap="round" stroke-width="0.5"/>
   <polyline stroke-linejoin="round" points="118.196,343.861 117.623,345.624 116.123,346.714 114.269,346.714 112.769,345.624 112.196,343.861 112.769,342.098 114.269,341.008 116.123,341.008 117.623,342.098 118.196,343.861" fill="none" stroke="#00ff00" stroke-linecap="round" stroke-width="0.5"/>
   <polyline stroke-linejoin="round" points="118.196,254.557 117.623,256.32 116.123,257.41 114.269,257.41 112.769,256.32 112.196,254.557 112.769,252.793 114.269,251.704 116.123,251.704 117.623,252.793 118.196,254.557" fill="none" stroke="#00ff00" stroke-linecap="round" stroke-width="0.5"/>
   <polyline stroke-linejoin="round" points="118.196,198.125 117.623,199.888 116.123,200.978 114.269,200.978 112.769,199.888 112.196,198.125 112.769,196.362 114.269,195.272 116.123,195.272 117.623,196.362 118.196,198.125" fill="none" stroke="#00ff00" stroke-linecap="round" stroke-width="0.5"/>
   <polyline stroke-linejoin="round" stroke-dasharray="9,7" points="212.4,255.169 255.842,232.768 306.846,206.472" fill="none" stroke="#ff00ff" stroke-linecap="butt" stroke-width="0.5"/>
  </g>
  <clipPath id="cp00522831">
   <polygon points="0,831 522,831 522,0 0,0"/>
  </clipPath>
  <g clip-path="url(#cp00522831)">
   <polygon points="70.9931,740.283 472.839,740.283 472.839,452.922 70.9931,452.922" fill="#ffffff" shape-rendering="crispEdges"/>
   <polyline stroke-linejoin="miter" stroke-dasharray="16,0" points="70.9931,740.283 70.9931,452.922" fill="none" stroke="#262626" stroke-linecap="butt" stroke-width="0.5" stroke-opacity="0.15"/>
   <polyline stroke-linejoin="miter" stroke-dasharray="16,0" points="151.362,740.283 151.362,452.922" fill="none" stroke="#262626" stroke-linecap="butt" stroke-width="0.5" stroke-opacity="0.15"/>
   <polyline stroke-linejoin="miter" stroke-dasharray="16,0" points="231.731,740.283 231.731,452.922" fill="none" stroke="#262626" stroke-linecap="butt" stroke-width="0.5" stroke-opacity="0.15"/>
   <polyline stroke-linejoin="miter" stroke-dasharray="16,0" points="312.1,740.283 312.1,452.922" fill="none" stroke="#262626" stroke-linecap="butt" stroke-width="0.5" stroke-opacity="0.15"/>
   <polyline stroke-linejoin="miter" stroke-dasharray="16,0" points="392.47,740.283 392.47,452.922" fill="none" stroke="#262626" stroke-linecap="butt" stroke-width="0.5" stroke-opacity="0.15"/>
   <polyline stroke-linejoin="miter" stroke-dasharray="16,0" points="472.839,740.283 472.839,452.922" fill="none" stroke="#262626" stroke-linecap="butt" stroke-width="0.5" stroke-opacity="0.15"/>
   <polyline stroke-linejoin="miter" points="70.9931,740.283 70.9931,736.259" fill="none" stroke="#262626" stroke-linecap="butt" stroke-width="0.5"/>
   <polyline stroke-linejoin="miter" points="70.9931,452.922 70.9931,456.945" fill="none" stroke="#262626" stroke-linecap="butt" stroke-width="0.5"/>
   <polyline stroke-linejoin="miter" points="151.362,740.283 151.362,736.259" fill="none" stroke="#262626" stroke-linecap="butt" stroke-width="0.5"/>
   <polyline stroke-linejoin="miter" points="151.362,452.922 151.362,456.945" fill="none" stroke="#262626" stroke-linecap="butt" stroke-width="0.5"/>
   <polyline stroke-linejoin="miter" points="231.731,740.283 231.731,736.259" fill="none" stroke="#262626" stroke-linecap="butt" stroke-width="0.5"/>
   <polyline stroke-linejoin="miter" points="231.731,452.922 231.731,456.945" fill="none" stroke="#262626" stroke-linecap="butt" stroke-width="0.5"/>
   <polyline stroke-linejoin="miter" points="312.1,740.283 312.1,736.259" fill="none" stroke="#262626" stroke-linecap="butt" stroke-width="0.5"/>
   <polyline stroke-linejoin="miter" points="312.1,452.922 312.1,456.945" fill="none" stroke="#262626" stroke-linecap="butt" stroke-width="0.5"/>
   <polyline stroke-linejoin="miter" points="392.47,740.283 392.47,736.259" fill="none" stroke="#262626" stroke-linecap="butt" stroke-width="0.5"/>
   <polyline stroke-linejoin="miter" points="392.47,452.922 392.47,456.945" fill="none" stroke="#262626" stroke-linecap="butt" stroke-width="0.5"/>
   <polyline stroke-linejoin="miter" points="472.839,740.283 472.839,736.259" fill="none" stroke="#262626" stroke-linecap="butt" stroke-width="0.5"/>
   <polyline stroke-linejoin="miter" points="472.839,452.922 472.839,456.945" fill="none" stroke="#262626" stroke-linecap="butt" stroke-width="0.5"/>
   <g transform="translate(66.4931,765.298) rotate(-0,4.5,-13)" font-size="16" font-weight="normal" font-family="FreeSans" font-style="normal" xml:space="preserve">
    <text x="0 " y="-0" fill="rgb(38,38,38)">0</text>
   </g>
   <g transform="translate(140.362,765.298) rotate(-0,11,-13)" font-size="16" font-weight="normal" font-family="FreeSans" font-style="normal" xml:space="preserve">
    <text x="0 9 13 " y="-0" fill="rgb(38,38,38)">0.2</text>
   </g>
   <g transform="translate(220.731,765.298) rotate(-0,11,-13)" font-size="16" font-weight="normal" font-family="FreeSans" font-style="normal" xml:space="preserve">
    <text x="0 9 13 " y="-0" fill="rgb(38,38,38)">0.4</text>
   </g>
   <g transform="translate(301.1,765.298) rotate(-0,11,-13)" font-size="16" font-weight="normal" font-family="FreeSans" font-style="normal" xml:space="preserve">
    <text x="0 9 13 " y="-0" fill="rgb(38,38,38)">0.6</text>
   </g>
   <g transform="translate(381.47,765.298) rotate(-0,11,-13)" font-size="16" font-weight="normal" font-family="FreeSans" font-style="normal" xml:space="preserve">
    <text x="0 9 13 " y="-0" fill="rgb(38,38,38)">0.8</text>
   </g>
   <g transform="translate(468.339,765.298) rotate(-0,4.5,-13)" font-size="16" font-weight="normal" font-family="FreeSans" font-style="normal" xml:space="preserve">
    <text x="0 " y="-0" fill="rgb(38,38,38)">1</text>
   </g>
   <polyline stroke-linejoin="miter" stroke-dasharray="16,0" points="70.9931,740.283 472.839,740.283" fill="none" stroke="#262626" stroke-linecap="butt" stroke-width="0.5" stroke-opacity="0.15"/>
   <polyline stroke-linejoin="miter" stroke-dasharray="16,0" points="70.9931,682.81 472.839,682.81" fill="none" stroke="#262626" stroke-linecap="butt" stroke-width="0.5" stroke-opacity="0.15"/>
   <polyline stroke-linejoin="miter" stroke-dasharray="16,0" points="70.9931,625.338 472.839,625.338" fill="none" stroke="#262626" stroke-linecap="butt" stroke-width="0.5" stroke-opacity="0.15"/>
   <polyline stroke-linejoin="miter" stroke-dasharray="16,0" points="70.9931,567.866 472.839,567.866" fill="none" stroke="#262626" stroke-linecap="butt" stroke-width="0.5" stroke-opacity="0.15"/>
   <polyline stroke-linejoin="miter" stroke-dasharray="16,0" points="70.9931,510.394 472.839,510.394" fill="none" stroke="#262626" stroke-linecap="butt" stroke-width="0.5" stroke-opacity="0.15"/>
   <polyline stroke-linejoin="miter" stroke-dasharray="16,0" points="70.9931,452.922 472.839,452.922" fill="none" stroke="#262626" stroke-linecap="butt" stroke-width="0.5" stroke-opacity="0.15"/>
   <polyline stroke-linejoin="miter" points="70.9931,740.283 75.01,740.283" fill="none" stroke="#262626" stroke-linecap="butt" stroke-width="0.5"/>
   <polyline stroke-linejoin="miter" points="472.839,740.283 468.822,740.283" fill="none" stroke="#262626" stroke-linecap="butt" stroke-width="0.5"/>
   <polyline stroke-linejoin="miter" points="70.9931,682.81 75.01,682.81" fill="none" stroke="#262626" stroke-linecap="butt" stroke-width="0.5"/>
   <polyline stroke-linejoin="miter" points="472.839,682.81 468.822,682.81" fill="none" stroke="#262626" stroke-linecap="butt" stroke-width="0.5"/>
   <polyline stroke-linejoin="miter" points="70.9931,625.338 75.01,625.338" fill="none" stroke="#262626" stroke-linecap="butt" stroke-width="0.5"/>
   <polyline stroke-linejoin="miter" points="472.839,625.338 468.822,625.338" fill="none" stroke="#262626" stroke-linecap="butt" stroke-width="0.5"/>
   <polyline stroke-linejoin="miter" points="70.9931,567.866 75.01,567.866" fill="none" stroke="#262626" stroke-linecap="butt" stroke-width="0.5"/>
   <polyline stroke-linejoin="miter" points="472.839,567.866 468.822,567.866" fill="none" stroke="#262626" stroke-linecap="butt" stroke-width="0.5"/>
   <polyline stroke-linejoin="miter" points="70.9931,510.394 75.01,510.394" fill="none" stroke="#262626" stroke-linecap="butt" stroke-width="0.5"/>
   <polyline stroke-linejoin="miter" points="472.839,510.394 468.822,510.394" fill="none" stroke="#262626" stroke-linecap="butt" stroke-width="0.5"/>
   <polyline stroke-linejoin="miter" points="70.9931,452.922 75.01,452.922" fill="none" stroke="#262626" stroke-linecap="butt" stroke-width="0.5"/>
   <polyline stroke-linejoin="miter" points="472.839,452.922 468.822,452.922" fill="none" stroke="#262626" stroke-linecap="butt" stroke-width="0.5"/>
   <g transform="translate(53.9962,746.783) rotate(-0,9,-6.5)" font-size="16" font-weight="normal" font-family="FreeSans" font-style="normal" xml:space="preserve">
    <text x="0 " y="-0" fill="rgb(38,38,38)">0</text>
   </g>
   <g transform="translate(40.9962,689.31) rotate(-0,22,-6.5)" font-size="16" font-weight="normal" font-family="FreeSans" font-style="normal" xml:space="preserve">
    <text x="0 9 13 " y="-0" fill="rgb(38,38,38)">0.2</text>
   </g>
   <g transform="translate(40.9962,631.838) rotate(-0,22,-6.5)" font-size="16" font-weight="normal" font-family="FreeSans" font-style="normal" xml:space="preserve">
    <text x="0 9 13 " y="-0" fill="rgb(38,38,38)">0.4</text>
   </g>
   <g transform="translate(40.9962,574.366) rotate(-0,22,-6.5)" font-size="16" font-weight="normal" font-family="FreeSans" font-style="normal" xml:space="preserve">
    <text x="0 9 13 " y="-0" fill="rgb(38,38,38)">0.6</text>
   </g>
   <g transform="translate(40.9962,516.894) rotate(-0,22,-6.5)" font-size="16" font-weight="normal" font-family="FreeSans" font-style="normal" xml:space="preserve">
    <text x="0 9 13 " y="-0" fill="rgb(38,38,38)">0.8</text>
   </g>
   <g transform="translate(53.9962,459.422) rotate(-0,9,-6.5)" font-size="16" font-weight="normal" font-family="FreeSans" font-style="normal" xml:space="preserve">
    <text x="0 " y="-0" fill="rgb(38,38,38)">1</text>
   </g>
   <polyline stroke-linejoin="miter" stroke-dasharray="16,0" points="70.9931,740.283 472.839,740.283" fill="none" stroke="#262626" stroke-linecap="square" stroke-width="0.5"/>
   <polyline stroke-linejoin="miter" stroke-dasharray="16,0" points="70.9931,452.922 472.839,452.922" fill="none" stroke="#262626" stroke-linecap="square" stroke-width="0.5"/>
   <polyline stroke-linejoin="miter" stroke-dasharray="16,0" points="70.9931,740.283 70.9931,452.922" fill="none" stroke="#262626" stroke-linecap="square" stroke-width="0.5"/>
   <polyline stroke-linejoin="miter" stroke-dasharray="16,0" points="472.839,740.283 472.839,452.922" fill="none" stroke="#262626" stroke-linecap="square" stroke-width="0.5"/>
   <g transform="translate(30.9962,596.602) rotate(-90,5,0)" font-size="17.6" font-weight="normal" font-family="FreeSans" font-style="italic" xml:space="preserve">
    <text x="0 " y="-4" fill="rgb(38,38,38)">y</text>
   </g>
   <g transform="translate(266.916,781.298) rotate(-0,5,-11)" font-size="17.6" font-weight="normal" font-family="FreeSans" font-style="italic" xml:space="preserve">
    <text x="0 " y="-0" fill="rgb(38,38,38)">x</text>
   </g>
   <polyline stroke-linejoin="round" points="70.9931,740.283 101.132,684.822 139.307,637.12 181.501,596.602 227.713,559.245 281.962,524.762 346.257,493.152 424.617,465.853 472.839,452.922" fill="none" stroke="#000000" stroke-linecap="butt" stroke-width="0.5"/>
   <polyline stroke-linejoin="round" points="73.9931,740.283 73.4202,742.046 71.9202,743.136 70.0661,743.136 68.5661,742.046 67.9931,740.283 68.5661,738.519 70.0661,737.429 71.9202,737.429 73.4202,738.519 73.9931,740.283" fill="none" stroke="#000000" stroke-linecap="round" stroke-width="0.5"/>
   <polyline stroke-linejoin="round" points="104.132,684.822 103.559,686.585 102.059,687.675 100.205,687.675 98.7045,686.585 98.1316,684.822 98.7045,683.059 100.205,681.969 102.059,681.969 103.559,683.059 104.132,684.822" fill="none" stroke="#000000" stroke-linecap="round" stroke-width="0.5"/>
   <polyline stroke-linejoin="round" points="142.307,637.12 141.734,638.883 140.234,639.973 138.38,639.973 136.88,638.883 136.307,637.12 136.88,635.357 138.38,634.267 140.234,634.267 141.734,635.357 142.307,637.12" fill="none" stroke="#000000" stroke-linecap="round" stroke-width="0.5"/>
   <polyline stroke-linejoin="round" points="184.501,596.602 183.928,598.366 182.428,599.455 180.574,599.455 179.074,598.366 178.501,596.602 179.074,594.839 180.574,593.749 182.428,593.749 183.928,594.839 184.501,596.602" fill="none" stroke="#000000" stroke-linecap="round" stroke-width="0.5"/>
   <polyline stroke-linejoin="round" points="230.713,559.245 230.14,561.009 228.64,562.099 226.786,562.099 225.286,561.009 224.713,559.245 225.286,557.482 226.786,556.392 228.64,556.392 230.14,557.482 230.713,559.245" fill="none" stroke="#000000" stroke-linecap="round" stroke-width="0.5"/>
   <polyline stroke-linejoin="round" points="284.962,524.762 284.389,526.525 282.889,527.615 281.035,527.615 279.535,526.525 278.962,524.762 279.535,522.999 281.035,521.909 282.889,521.909 284.389,522.999 284.962,524.762" fill="none" stroke="#000000" stroke-linecap="round" stroke-width="0.5"/>
   <polyline stroke-linejoin="round" points="349.257,493.152 348.684,494.916 347.184,496.006 345.33,496.006 343.83,494.916 343.257,493.152 343.83,491.389 345.33,490.299 347.184,490.299 348.684,491.389 349.257,493.152" fill="none" stroke="#000000" stroke-linecap="round" stroke-width="0.5"/>
   <polyline stroke-linejoin="round" points="427.617,465.853 427.044,467.616 425.544,468.706 423.69,468.706 422.19,467.616 421.617,465.853 422.19,464.09 423.69,463 425.544,463 427.044,464.09 427.617,465.853" fill="none" stroke="#000000" stroke-linecap="round" stroke-width="0.5"/>
   <polyline stroke-linejoin="round" points="475.839,452.922 475.266,454.685 473.766,455.775 471.912,455.775 470.412,454.685 469.839,452.922 470.412,451.159 471.912,450.069 473.766,450.069 475.266,451.159 475.839,452.922" fill="none" stroke="#000000" stroke-linecap="round" stroke-width="0.5"/>
   <polyline stroke-linejoin="round" stroke-dasharray="9,7" points="70.9931,740.283 472.839,452.922" fill="none" stroke="#000000" stroke-linecap="butt" stroke-width="0.5"/>
   <polyline stroke-linejoin="round" points="424.617,487.405 362.754,487.405 362.754,518.267 295.173,518.267 295.173,551.273 240.255,551.273 240.255,577.507 205.123,577.507 205.123,607.568 170.081,607.568 170.081,646.148 132.082,646.148 132.082,689.122 98.795,689.122 98.795,720.401" fill="none" stroke="#00ffff" stroke-linecap="butt" stroke-width="0.5"/>
   <polyline stroke-linejoin="round" points="424.617,487.405 362.754,518.267 295.173,551.273 240.255,577.507 205.123,607.568 170.081,646.148 132.082,689.122 98.795,720.401" fill="none" stroke="#00ff00" stroke-linecap="butt" stroke-width="0.5"/>
   <polyline stroke-linejoin="miter" points="424.617,484.405 427.617,487.405 424.617,490.405 421.617,487.405 424.617,484.405" fill="none" stroke="#00ff00" stroke-linecap="square" stroke-width="0.5"/>
   <polyline stroke-linejoin="miter" points="362.754,515.267 365.754,518.267 362.754,521.267 359.754,518.267 362.754,515.267" fill="none" stroke="#00ff00" stroke-linecap="square" stroke-width="0.5"/>
   <polyline stroke-linejoin="miter" points="295.173,548.273 298.173,551.273 295.173,554.273 292.173,551.273 295.173,548.273" fill="none" stroke="#00ff00" stroke-linecap="square" stroke-width="0.5"/>
   <polyline stroke-linejoin="miter" points="240.255,574.507 243.255,577.507 240.255,580.507 237.255,577.507 240.255,574.507" fill="none" stroke="#00ff00" stroke-linecap="square" stroke-width="0.5"/>
   <polyline stroke-linejoin="miter" points="205.123,604.568 208.123,607.568 205.123,610.568 202.123,607.568 205.123,604.568" fill="none" stroke="#00ff00" stroke-linecap="square" stroke-width="0.5"/>
   <polyline stroke-linejoin="miter" points="170.081,643.148 173.081,646.148 170.081,649.148 167.081,646.148 170.081,643.148" fill="none" stroke="#00ff00" stroke-linecap="square" stroke-width="0.5"/>
   <polyline stroke-linejoin="miter" points="132.082,686.122 135.082,689.122 132.082,692.122 129.082,689.122 132.082,686.122" fill="none" stroke="#00ff00" stroke-linecap="square" stroke-width="0.5"/>
   <polyline stroke-linejoin="miter" points="98.795,717.401 101.795,720.401 98.795,723.401 95.795,720.401 98.795,717.401" fill="none" stroke="#00ff00" stroke-linecap="square" stroke-width="0.5"/>
   <polyline stroke-linejoin="round" points="70.9931,452.922 413.648,740.57" fill="none" stroke="#ff00ff" stroke-linecap="butt" stroke-width="0.5"/>
   <polyline stroke-linejoin="round" stroke-dasharray="9,7" points="255.842,740.283 255.842,452.922" fill="none" stroke="#ff00ff" stroke-linecap="butt" stroke-width="0.5"/>
   <polyline stroke-linejoin="round" stroke-dasharray="9,7" points="424.617,740.283 424.617,452.922" fill="none" stroke="#0000ff" stroke-linecap="butt" stroke-width="0.5"/>
   <polyline stroke-linejoin="round" stroke-dasharray="9,7" points="115.196,740.283 115.196,452.922" fill="none" stroke="#ff0000" stroke-linecap="butt" stroke-width="0.5"/>
  </g>
 </g>
</svg>
