<?xml version='1.0' encoding='UTF-8' standalone='no'?>
<svg width="350pt" xmlns="http://www.w3.org/2000/svg" xmlns:xlink="http://www.w3.org/1999/xlink" viewBox="0 0 350 560" height="560pt">
 <title>Figure 1</title>
 <desc>
Creator: GL2PS 1.4.2, (C) 1999-2020 C. Geuzaine
For: Octave
CreationDate: Mon Nov 21 11:10:26 2022
</desc>
 <defs/>
 <polygon fill="#ffffff" points="0,0 350,0 350,560 0,560"/>
 <g>
  <polygon fill="#ffffff" points="0,560 350,560 350,0 0,0" shape-rendering="crispEdges"/>
  <clipPath id="cp00350560">
   <polygon points="0,560 350,560 350,0 0,0"/>
  </clipPath>
  <g clip-path="url(#cp00350560)">
   <polygon fill="#ffffff" points="52.9867,236.22 317.551,236.22 317.551,46.0159 52.9867,46.0159" shape-rendering="crispEdges"/>
   <polyline fill="none" points="52.9867,236.22 52.9867,46.0159" stroke-width="0.5" stroke="#262626" stroke-linecap="butt" stroke-opacity="0.15" stroke-linejoin="miter" stroke-dasharray="16,0"/>
   <polyline fill="none" points="105.9,236.22 105.9,46.0159" stroke-width="0.5" stroke="#262626" stroke-linecap="butt" stroke-opacity="0.15" stroke-linejoin="miter" stroke-dasharray="16,0"/>
   <polyline fill="none" points="158.812,236.22 158.812,46.0159" stroke-width="0.5" stroke="#262626" stroke-linecap="butt" stroke-opacity="0.15" stroke-linejoin="miter" stroke-dasharray="16,0"/>
   <polyline fill="none" points="211.725,236.22 211.725,46.0159" stroke-width="0.5" stroke="#262626" stroke-linecap="butt" stroke-opacity="0.15" stroke-linejoin="miter" stroke-dasharray="16,0"/>
   <polyline fill="none" points="264.638,236.22 264.638,46.0159" stroke-width="0.5" stroke="#262626" stroke-linecap="butt" stroke-opacity="0.15" stroke-linejoin="miter" stroke-dasharray="16,0"/>
   <polyline fill="none" points="317.551,236.22 317.551,46.0159" stroke-width="0.5" stroke="#262626" stroke-linecap="butt" stroke-opacity="0.15" stroke-linejoin="miter" stroke-dasharray="16,0"/>
   <polyline fill="none" points="52.9867,236.22 52.9867,233.572" stroke-width="0.5" stroke="#262626" stroke-linecap="butt" stroke-linejoin="miter"/>
   <polyline fill="none" points="52.9867,46.0159 52.9867,48.6644" stroke-width="0.5" stroke="#262626" stroke-linecap="butt" stroke-linejoin="miter"/>
   <polyline fill="none" points="105.9,236.22 105.9,233.572" stroke-width="0.5" stroke="#262626" stroke-linecap="butt" stroke-linejoin="miter"/>
   <polyline fill="none" points="105.9,46.0159 105.9,48.6644" stroke-width="0.5" stroke="#262626" stroke-linecap="butt" stroke-linejoin="miter"/>
   <polyline fill="none" points="158.812,236.22 158.812,233.572" stroke-width="0.5" stroke="#262626" stroke-linecap="butt" stroke-linejoin="miter"/>
   <polyline fill="none" points="158.812,46.0159 158.812,48.6644" stroke-width="0.5" stroke="#262626" stroke-linecap="butt" stroke-linejoin="miter"/>
   <polyline fill="none" points="211.725,236.22 211.725,233.572" stroke-width="0.5" stroke="#262626" stroke-linecap="butt" stroke-linejoin="miter"/>
   <polyline fill="none" points="211.725,46.0159 211.725,48.6644" stroke-width="0.5" stroke="#262626" stroke-linecap="butt" stroke-linejoin="miter"/>
   <polyline fill="none" points="264.638,236.22 264.638,233.572" stroke-width="0.5" stroke="#262626" stroke-linecap="butt" stroke-linejoin="miter"/>
   <polyline fill="none" points="264.638,46.0159 264.638,48.6644" stroke-width="0.5" stroke="#262626" stroke-linecap="butt" stroke-linejoin="miter"/>
   <polyline fill="none" points="317.551,236.22 317.551,233.572" stroke-width="0.5" stroke="#262626" stroke-linecap="butt" stroke-linejoin="miter"/>
   <polyline fill="none" points="317.551,46.0159 317.551,48.6644" stroke-width="0.5" stroke="#262626" stroke-linecap="butt" stroke-linejoin="miter"/>
   <g font-family="FreeSans" font-style="normal" xml:space="preserve" transform="translate(48.4867,261.233) rotate(-0,4.5,-13)" font-weight="normal" font-size="16">
    <text fill="rgb(38,38,38)" x="0 " y="-0">0</text>
   </g>
   <g font-family="FreeSans" font-style="normal" xml:space="preserve" transform="translate(94.8995,261.233) rotate(-0,11,-13)" font-weight="normal" font-size="16">
    <text fill="rgb(38,38,38)" x="0 9 13 " y="-0">0.2</text>
   </g>
   <g font-family="FreeSans" font-style="normal" xml:space="preserve" transform="translate(147.812,261.233) rotate(-0,11,-13)" font-weight="normal" font-size="16">
    <text fill="rgb(38,38,38)" x="0 9 13 " y="-0">0.4</text>
   </g>
   <g font-family="FreeSans" font-style="normal" xml:space="preserve" transform="translate(200.725,261.233) rotate(-0,11,-13)" font-weight="normal" font-size="16">
    <text fill="rgb(38,38,38)" x="0 9 13 " y="-0">0.6</text>
   </g>
   <g font-family="FreeSans" font-style="normal" xml:space="preserve" transform="translate(253.638,261.233) rotate(-0,11,-13)" font-weight="normal" font-size="16">
    <text fill="rgb(38,38,38)" x="0 9 13 " y="-0">0.8</text>
   </g>
   <g font-family="FreeSans" font-style="normal" xml:space="preserve" transform="translate(313.051,261.233) rotate(-0,4.5,-13)" font-weight="normal" font-size="16">
    <text fill="rgb(38,38,38)" x="0 " y="-0">1</text>
   </g>
   <polyline fill="none" points="52.9867,236.22 317.551,236.22" stroke-width="0.5" stroke="#262626" stroke-linecap="butt" stroke-opacity="0.15" stroke-linejoin="miter" stroke-dasharray="16,0"/>
   <polyline fill="none" points="52.9867,204.52 317.551,204.52" stroke-width="0.5" stroke="#262626" stroke-linecap="butt" stroke-opacity="0.15" stroke-linejoin="miter" stroke-dasharray="16,0"/>
   <polyline fill="none" points="52.9867,172.819 317.551,172.819" stroke-width="0.5" stroke="#262626" stroke-linecap="butt" stroke-opacity="0.15" stroke-linejoin="miter" stroke-dasharray="16,0"/>
   <polyline fill="none" points="52.9867,141.118 317.551,141.118" stroke-width="0.5" stroke="#262626" stroke-linecap="butt" stroke-opacity="0.15" stroke-linejoin="miter" stroke-dasharray="16,0"/>
   <polyline fill="none" points="52.9867,109.417 317.551,109.417" stroke-width="0.5" stroke="#262626" stroke-linecap="butt" stroke-opacity="0.15" stroke-linejoin="miter" stroke-dasharray="16,0"/>
   <polyline fill="none" points="52.9867,77.7167 317.551,77.7167" stroke-width="0.5" stroke="#262626" stroke-linecap="butt" stroke-opacity="0.15" stroke-linejoin="miter" stroke-dasharray="16,0"/>
   <polyline fill="none" points="52.9867,46.0159 317.551,46.0159" stroke-width="0.5" stroke="#262626" stroke-linecap="butt" stroke-opacity="0.15" stroke-linejoin="miter" stroke-dasharray="16,0"/>
   <polyline fill="none" points="52.9867,236.22 55.6279,236.22" stroke-width="0.5" stroke="#262626" stroke-linecap="butt" stroke-linejoin="miter"/>
   <polyline fill="none" points="317.551,236.22 314.91,236.22" stroke-width="0.5" stroke="#262626" stroke-linecap="butt" stroke-linejoin="miter"/>
   <polyline fill="none" points="52.9867,204.52 55.6279,204.52" stroke-width="0.5" stroke="#262626" stroke-linecap="butt" stroke-linejoin="miter"/>
   <polyline fill="none" points="317.551,204.52 314.91,204.52" stroke-width="0.5" stroke="#262626" stroke-linecap="butt" stroke-linejoin="miter"/>
   <polyline fill="none" points="52.9867,172.819 55.6279,172.819" stroke-width="0.5" stroke="#262626" stroke-linecap="butt" stroke-linejoin="miter"/>
   <polyline fill="none" points="317.551,172.819 314.91,172.819" stroke-width="0.5" stroke="#262626" stroke-linecap="butt" stroke-linejoin="miter"/>
   <polyline fill="none" points="52.9867,141.118 55.6279,141.118" stroke-width="0.5" stroke="#262626" stroke-linecap="butt" stroke-linejoin="miter"/>
   <polyline fill="none" points="317.551,141.118 314.91,141.118" stroke-width="0.5" stroke="#262626" stroke-linecap="butt" stroke-linejoin="miter"/>
   <polyline fill="none" points="52.9867,109.417 55.6279,109.417" stroke-width="0.5" stroke="#262626" stroke-linecap="butt" stroke-linejoin="miter"/>
   <polyline fill="none" points="317.551,109.417 314.91,109.417" stroke-width="0.5" stroke="#262626" stroke-linecap="butt" stroke-linejoin="miter"/>
   <polyline fill="none" points="52.9867,77.7167 55.6279,77.7167" stroke-width="0.5" stroke="#262626" stroke-linecap="butt" stroke-linejoin="miter"/>
   <polyline fill="none" points="317.551,77.7167 314.91,77.7167" stroke-width="0.5" stroke="#262626" stroke-linecap="butt" stroke-linejoin="miter"/>
   <polyline fill="none" points="52.9867,46.0159 55.6279,46.0159" stroke-width="0.5" stroke="#262626" stroke-linecap="butt" stroke-linejoin="miter"/>
   <polyline fill="none" points="317.551,46.0159 314.91,46.0159" stroke-width="0.5" stroke="#262626" stroke-linecap="butt" stroke-linejoin="miter"/>
   <g font-family="FreeSans" font-style="normal" xml:space="preserve" transform="translate(21.9998,242.72) rotate(-0,23,-6.5)" font-weight="normal" font-size="16">
    <text fill="rgb(38,38,38)" x="0 5 14 " y="-0">-20</text>
   </g>
   <g font-family="FreeSans" font-style="normal" xml:space="preserve" transform="translate(21.9998,211.02) rotate(-0,23,-6.5)" font-weight="normal" font-size="16">
    <text fill="rgb(38,38,38)" x="0 5 14 " y="-0">-10</text>
   </g>
   <g font-family="FreeSans" font-style="normal" xml:space="preserve" transform="translate(35.9998,179.319) rotate(-0,9,-6.5)" font-weight="normal" font-size="16">
    <text fill="rgb(38,38,38)" x="0 " y="-0">0</text>
   </g>
   <g font-family="FreeSans" font-style="normal" xml:space="preserve" transform="translate(26.9998,147.618) rotate(-0,18,-6.5)" font-weight="normal" font-size="16">
    <text fill="rgb(38,38,38)" x="0 9 " y="-0">10</text>
   </g>
   <g font-family="FreeSans" font-style="normal" xml:space="preserve" transform="translate(26.9998,115.917) rotate(-0,18,-6.5)" font-weight="normal" font-size="16">
    <text fill="rgb(38,38,38)" x="0 9 " y="-0">20</text>
   </g>
   <g font-family="FreeSans" font-style="normal" xml:space="preserve" transform="translate(26.9998,84.2167) rotate(-0,18,-6.5)" font-weight="normal" font-size="16">
    <text fill="rgb(38,38,38)" x="0 9 " y="-0">30</text>
   </g>
   <g font-family="FreeSans" font-style="normal" xml:space="preserve" transform="translate(26.9998,52.516) rotate(-0,18,-6.5)" font-weight="normal" font-size="16">
    <text fill="rgb(38,38,38)" x="0 9 " y="-0">40</text>
   </g>
   <polyline fill="none" points="52.9867,236.22 317.551,236.22" stroke-width="0.5" stroke="#262626" stroke-linecap="square" stroke-linejoin="miter" stroke-dasharray="16,0"/>
   <polyline fill="none" points="52.9867,46.0159 317.551,46.0159" stroke-width="0.5" stroke="#262626" stroke-linecap="square" stroke-linejoin="miter" stroke-dasharray="16,0"/>
   <polyline fill="none" points="52.9867,236.22 52.9867,46.0159" stroke-width="0.5" stroke="#262626" stroke-linecap="square" stroke-linejoin="miter" stroke-dasharray="16,0"/>
   <polyline fill="none" points="317.551,236.22 317.551,46.0159" stroke-width="0.5" stroke="#262626" stroke-linecap="square" stroke-linejoin="miter" stroke-dasharray="16,0"/>
   <g font-family="FreeSans" font-style="italic" xml:space="preserve" transform="translate(2.49981,141.118) rotate(-90,14.5,0)" font-weight="normal" font-size="17.6">
    <text fill="rgb(38,38,38)" x="0 " y="-3">h</text>
    <text font-style="normal" fill="rgb(38,38,38)" x="10 " y="-3">,</text>
    <text fill="rgb(38,38,38)" x="15 " y="-3">H</text>
   </g>
   <g font-family="FreeSans" font-style="italic" xml:space="preserve" transform="translate(173.269,281.233) rotate(-0,12,-15)" font-weight="normal" font-size="17.6">
    <text fill="rgb(38,38,38)" x="0 " y="-4">x</text>
    <text font-style="normal" fill="rgb(38,38,38)" x="9 " y="-4">,</text>
    <text fill="rgb(38,38,38)" x="14 " y="-4">y</text>
   </g>
   <polyline fill="none" points="53.0528,162.564 66.2149,164.368 79.4431,164.808 92.6713,165.024 105.9,165.141 132.356,165.262 158.812,165.344 185.269,165.407 211.725,165.464 238.182,165.521 264.638,165.579 291.095,165.636 317.551,165.686" stroke-width="1.25" stroke="#0000ff" stroke-linecap="butt" stroke-linejoin="round"/>
   <polyline fill="none" points="53.0528,159.564 56.0528,162.564 53.0528,165.564 50.0528,162.564 53.0528,159.564" stroke-width="1.25" stroke="#0000ff" stroke-linecap="square" stroke-linejoin="miter"/>
   <polyline fill="none" points="66.2149,161.368 69.2149,164.368 66.2149,167.368 63.2149,164.368 66.2149,161.368" stroke-width="1.25" stroke="#0000ff" stroke-linecap="square" stroke-linejoin="miter"/>
   <polyline fill="none" points="79.4431,161.808 82.4431,164.808 79.4431,167.808 76.4431,164.808 79.4431,161.808" stroke-width="1.25" stroke="#0000ff" stroke-linecap="square" stroke-linejoin="miter"/>
   <polyline fill="none" points="92.6713,162.024 95.6713,165.024 92.6713,168.024 89.6713,165.024 92.6713,162.024" stroke-width="1.25" stroke="#0000ff" stroke-linecap="square" stroke-linejoin="miter"/>
   <polyline fill="none" points="105.9,162.141 108.9,165.141 105.9,168.141 102.9,165.141 105.9,162.141" stroke-width="1.25" stroke="#0000ff" stroke-linecap="square" stroke-linejoin="miter"/>
   <polyline fill="none" points="132.356,162.262 135.356,165.262 132.356,168.262 129.356,165.262 132.356,162.262" stroke-width="1.25" stroke="#0000ff" stroke-linecap="square" stroke-linejoin="miter"/>
   <polyline fill="none" points="158.812,162.344 161.812,165.344 158.812,168.344 155.812,165.344 158.812,162.344" stroke-width="1.25" stroke="#0000ff" stroke-linecap="square" stroke-linejoin="miter"/>
   <polyline fill="none" points="185.269,162.407 188.269,165.407 185.269,168.407 182.269,165.407 185.269,162.407" stroke-width="1.25" stroke="#0000ff" stroke-linecap="square" stroke-linejoin="miter"/>
   <polyline fill="none" points="211.725,162.464 214.725,165.464 211.725,168.464 208.725,165.464 211.725,162.464" stroke-width="1.25" stroke="#0000ff" stroke-linecap="square" stroke-linejoin="miter"/>
   <polyline fill="none" points="238.182,162.521 241.182,165.521 238.182,168.521 235.182,165.521 238.182,162.521" stroke-width="1.25" stroke="#0000ff" stroke-linecap="square" stroke-linejoin="miter"/>
   <polyline fill="none" points="264.638,162.579 267.638,165.579 264.638,168.579 261.638,165.579 264.638,162.579" stroke-width="1.25" stroke="#0000ff" stroke-linecap="square" stroke-linejoin="miter"/>
   <polyline fill="none" points="291.095,162.636 294.095,165.636 291.095,168.636 288.095,165.636 291.095,162.636" stroke-width="1.25" stroke="#0000ff" stroke-linecap="square" stroke-linejoin="miter"/>
   <polyline fill="none" points="317.551,162.686 320.551,165.686 317.551,168.686 314.551,165.686 317.551,162.686" stroke-width="1.25" stroke="#0000ff" stroke-linecap="square" stroke-linejoin="miter"/>
   <polyline fill="none" points="53.4298,107.135 123.625,107.769 163.575,108.34 189.766,108.91 206.169,109.417 228.922,110.559 245.854,111.605 259.082,112.683 271.252,113.697 283.158,114.775 295.063,115.821 306.439,116.772 317.551,117.691" stroke-width="1.25" stroke="#ff0000" stroke-linecap="butt" stroke-linejoin="round"/>
   <polyline fill="none" points="53.4298,104.135 56.4298,107.135 53.4298,110.135 50.4298,107.135 53.4298,104.135" stroke-width="1.25" stroke="#ff0000" stroke-linecap="square" stroke-linejoin="miter"/>
   <polyline fill="none" points="123.625,104.769 126.625,107.769 123.625,110.769 120.625,107.769 123.625,104.769" stroke-width="1.25" stroke="#ff0000" stroke-linecap="square" stroke-linejoin="miter"/>
   <polyline fill="none" points="163.575,105.34 166.575,108.34 163.575,111.34 160.575,108.34 163.575,105.34" stroke-width="1.25" stroke="#ff0000" stroke-linecap="square" stroke-linejoin="miter"/>
   <polyline fill="none" points="189.766,105.91 192.766,108.91 189.766,111.91 186.766,108.91 189.766,105.91" stroke-width="1.25" stroke="#ff0000" stroke-linecap="square" stroke-linejoin="miter"/>
   <polyline fill="none" points="206.169,106.417 209.169,109.417 206.169,112.417 203.169,109.417 206.169,106.417" stroke-width="1.25" stroke="#ff0000" stroke-linecap="square" stroke-linejoin="miter"/>
   <polyline fill="none" points="228.922,107.559 231.922,110.559 228.922,113.559 225.922,110.559 228.922,107.559" stroke-width="1.25" stroke="#ff0000" stroke-linecap="square" stroke-linejoin="miter"/>
   <polyline fill="none" points="245.854,108.605 248.854,111.605 245.854,114.605 242.854,111.605 245.854,108.605" stroke-width="1.25" stroke="#ff0000" stroke-linecap="square" stroke-linejoin="miter"/>
   <polyline fill="none" points="259.082,109.683 262.082,112.683 259.082,115.683 256.082,112.683 259.082,109.683" stroke-width="1.25" stroke="#ff0000" stroke-linecap="square" stroke-linejoin="miter"/>
   <polyline fill="none" points="271.252,110.697 274.252,113.697 271.252,116.697 268.252,113.697 271.252,110.697" stroke-width="1.25" stroke="#ff0000" stroke-linecap="square" stroke-linejoin="miter"/>
   <polyline fill="none" points="283.158,111.775 286.158,114.775 283.158,117.775 280.158,114.775 283.158,111.775" stroke-width="1.25" stroke="#ff0000" stroke-linecap="square" stroke-linejoin="miter"/>
   <polyline fill="none" points="295.063,112.821 298.063,115.821 295.063,118.821 292.063,115.821 295.063,112.821" stroke-width="1.25" stroke="#ff0000" stroke-linecap="square" stroke-linejoin="miter"/>
   <polyline fill="none" points="306.439,113.772 309.439,116.772 306.439,119.772 303.439,116.772 306.439,113.772" stroke-width="1.25" stroke="#ff0000" stroke-linecap="square" stroke-linejoin="miter"/>
   <polyline fill="none" points="317.551,114.691 320.551,117.691 317.551,120.691 314.551,117.691 317.551,114.691" stroke-width="1.25" stroke="#ff0000" stroke-linecap="square" stroke-linejoin="miter"/>
   <polyline fill="none" points="285.803,165.624 285.803,115.007 244.061,165.534 262.599,112.976 192.915,165.424 235.69,110.977 142.932,165.294 210.277,109.624 110.676,165.163 144.632,108.069 73.1707,164.599" stroke-width="0.5" stroke="#00ffff" stroke-linecap="butt" stroke-linejoin="round"/>
   <polyline fill="none" points="285.803,165.624 285.803,115.007 285.803,47.1905 174.686,137.758 82.0887,213.23 82.0887,164.851 82.0887,107.394" stroke-width="0.5" stroke="#00ff00" stroke-linecap="butt" stroke-linejoin="round"/>
   <polyline fill="none" points="288.803,165.624 288.23,167.388 286.73,168.477 284.876,168.477 283.376,167.388 282.803,165.624 283.376,163.861 284.876,162.771 286.73,162.771 288.23,163.861 288.803,165.624" stroke-width="0.5" stroke="#00ff00" stroke-linecap="round" stroke-linejoin="round"/>
   <polyline fill="none" points="288.803,115.007 288.23,116.771 286.73,117.861 284.876,117.861 283.376,116.771 282.803,115.007 283.376,113.244 284.876,112.154 286.73,112.154 288.23,113.244 288.803,115.007" stroke-width="0.5" stroke="#00ff00" stroke-linecap="round" stroke-linejoin="round"/>
   <polyline fill="none" points="288.803,47.1905 288.23,48.9539 286.73,50.0437 284.876,50.0437 283.376,48.9539 282.803,47.1905 283.376,45.4271 284.876,44.3373 286.73,44.3373 288.23,45.4271 288.803,47.1905" stroke-width="0.5" stroke="#00ff00" stroke-linecap="round" stroke-linejoin="round"/>
   <polyline fill="none" points="177.686,137.758 177.113,139.521 175.613,140.611 173.759,140.611 172.259,139.521 171.686,137.758 172.259,135.994 173.759,134.905 175.613,134.905 177.113,135.994 177.686,137.758" stroke-width="0.5" stroke="#00ff00" stroke-linecap="round" stroke-linejoin="round"/>
   <polyline fill="none" points="85.0887,213.23 84.5158,214.994 83.0158,216.084 81.1617,216.084 79.6617,214.994 79.0887,213.23 79.6617,211.467 81.1617,210.377 83.0158,210.377 84.5158,211.467 85.0887,213.23" stroke-width="0.5" stroke="#00ff00" stroke-linecap="round" stroke-linejoin="round"/>
   <polyline fill="none" points="85.0887,164.851 84.5158,166.615 83.0158,167.704 81.1617,167.704 79.6617,166.615 79.0887,164.851 79.6617,163.088 81.1617,161.998 83.0158,161.998 84.5158,163.088 85.0887,164.851" stroke-width="0.5" stroke="#00ff00" stroke-linecap="round" stroke-linejoin="round"/>
   <polyline fill="none" points="85.0887,107.394 84.5158,109.157 83.0158,110.247 81.1617,110.247 79.6617,109.157 79.0887,107.394 79.6617,105.63 81.1617,104.541 83.0158,104.541 84.5158,105.63 85.0887,107.394" stroke-width="0.5" stroke="#00ff00" stroke-linecap="round" stroke-linejoin="round"/>
   <polyline fill="none" points="125.967,165.232 174.686,137.758 223.428,110.283" stroke-width="0.5" stroke="#ff00ff" stroke-linecap="butt" stroke-linejoin="round" stroke-dasharray="8,3,2,3"/>
   <polyline fill="none" points="122.967,165.232 128.967,165.232" stroke-width="0.5" stroke="#ff00ff" stroke-linecap="square" stroke-linejoin="miter"/>
   <polyline fill="none" points="125.967,162.232 125.967,168.232" stroke-width="0.5" stroke="#ff00ff" stroke-linecap="square" stroke-linejoin="miter"/>
   <polyline fill="none" points="123.846,163.111 128.089,167.354" stroke-width="0.5" stroke="#ff00ff" stroke-linecap="square" stroke-linejoin="miter"/>
   <polyline fill="none" points="123.846,167.354 128.089,163.111" stroke-width="0.5" stroke="#ff00ff" stroke-linecap="square" stroke-linejoin="miter"/>
   <polyline fill="none" points="171.686,137.758 177.686,137.758" stroke-width="0.5" stroke="#ff00ff" stroke-linecap="square" stroke-linejoin="miter"/>
   <polyline fill="none" points="174.686,134.758 174.686,140.758" stroke-width="0.5" stroke="#ff00ff" stroke-linecap="square" stroke-linejoin="miter"/>
   <polyline fill="none" points="172.565,135.636 176.808,139.879" stroke-width="0.5" stroke="#ff00ff" stroke-linecap="square" stroke-linejoin="miter"/>
   <polyline fill="none" points="172.565,139.879 176.808,135.636" stroke-width="0.5" stroke="#ff00ff" stroke-linecap="square" stroke-linejoin="miter"/>
   <polyline fill="none" points="220.428,110.283 226.428,110.283" stroke-width="0.5" stroke="#ff00ff" stroke-linecap="square" stroke-linejoin="miter"/>
   <polyline fill="none" points="223.428,107.283 223.428,113.283" stroke-width="0.5" stroke="#ff00ff" stroke-linecap="square" stroke-linejoin="miter"/>
   <polyline fill="none" points="221.307,108.162 225.549,112.404" stroke-width="0.5" stroke="#ff00ff" stroke-linecap="square" stroke-linejoin="miter"/>
   <polyline fill="none" points="221.307,112.404 225.549,108.162" stroke-width="0.5" stroke="#ff00ff" stroke-linecap="square" stroke-linejoin="miter"/>
  </g>
  <clipPath id="cp00350560">
   <polygon points="0,560 350,560 350,0 0,0"/>
  </clipPath>
  <g clip-path="url(#cp00350560)">
   <polygon fill="#ffffff" points="52.9867,498.411 317.551,498.411 317.551,308.207 52.9867,308.207" shape-rendering="crispEdges"/>
   <polyline fill="none" points="52.9867,498.411 52.9867,308.207" stroke-width="0.5" stroke="#262626" stroke-linecap="butt" stroke-opacity="0.15" stroke-linejoin="miter" stroke-dasharray="16,0"/>
   <polyline fill="none" points="105.9,498.411 105.9,308.207" stroke-width="0.5" stroke="#262626" stroke-linecap="butt" stroke-opacity="0.15" stroke-linejoin="miter" stroke-dasharray="16,0"/>
   <polyline fill="none" points="158.812,498.411 158.812,308.207" stroke-width="0.5" stroke="#262626" stroke-linecap="butt" stroke-opacity="0.15" stroke-linejoin="miter" stroke-dasharray="16,0"/>
   <polyline fill="none" points="211.725,498.411 211.725,308.207" stroke-width="0.5" stroke="#262626" stroke-linecap="butt" stroke-opacity="0.15" stroke-linejoin="miter" stroke-dasharray="16,0"/>
   <polyline fill="none" points="264.638,498.411 264.638,308.207" stroke-width="0.5" stroke="#262626" stroke-linecap="butt" stroke-opacity="0.15" stroke-linejoin="miter" stroke-dasharray="16,0"/>
   <polyline fill="none" points="317.551,498.411 317.551,308.207" stroke-width="0.5" stroke="#262626" stroke-linecap="butt" stroke-opacity="0.15" stroke-linejoin="miter" stroke-dasharray="16,0"/>
   <polyline fill="none" points="52.9867,498.411 52.9867,495.763" stroke-width="0.5" stroke="#262626" stroke-linecap="butt" stroke-linejoin="miter"/>
   <polyline fill="none" points="52.9867,308.207 52.9867,310.855" stroke-width="0.5" stroke="#262626" stroke-linecap="butt" stroke-linejoin="miter"/>
   <polyline fill="none" points="105.9,498.411 105.9,495.763" stroke-width="0.5" stroke="#262626" stroke-linecap="butt" stroke-linejoin="miter"/>
   <polyline fill="none" points="105.9,308.207 105.9,310.855" stroke-width="0.5" stroke="#262626" stroke-linecap="butt" stroke-linejoin="miter"/>
   <polyline fill="none" points="158.812,498.411 158.812,495.763" stroke-width="0.5" stroke="#262626" stroke-linecap="butt" stroke-linejoin="miter"/>
   <polyline fill="none" points="158.812,308.207 158.812,310.855" stroke-width="0.5" stroke="#262626" stroke-linecap="butt" stroke-linejoin="miter"/>
   <polyline fill="none" points="211.725,498.411 211.725,495.763" stroke-width="0.5" stroke="#262626" stroke-linecap="butt" stroke-linejoin="miter"/>
   <polyline fill="none" points="211.725,308.207 211.725,310.855" stroke-width="0.5" stroke="#262626" stroke-linecap="butt" stroke-linejoin="miter"/>
   <polyline fill="none" points="264.638,498.411 264.638,495.763" stroke-width="0.5" stroke="#262626" stroke-linecap="butt" stroke-linejoin="miter"/>
   <polyline fill="none" points="264.638,308.207 264.638,310.855" stroke-width="0.5" stroke="#262626" stroke-linecap="butt" stroke-linejoin="miter"/>
   <polyline fill="none" points="317.551,498.411 317.551,495.763" stroke-width="0.5" stroke="#262626" stroke-linecap="butt" stroke-linejoin="miter"/>
   <polyline fill="none" points="317.551,308.207 317.551,310.855" stroke-width="0.5" stroke="#262626" stroke-linecap="butt" stroke-linejoin="miter"/>
   <g font-family="FreeSans" font-style="normal" xml:space="preserve" transform="translate(48.4867,523.424) rotate(-0,4.5,-13)" font-weight="normal" font-size="16">
    <text fill="rgb(38,38,38)" x="0 " y="-0">0</text>
   </g>
   <g font-family="FreeSans" font-style="normal" xml:space="preserve" transform="translate(94.8995,523.424) rotate(-0,11,-13)" font-weight="normal" font-size="16">
    <text fill="rgb(38,38,38)" x="0 9 13 " y="-0">0.2</text>
   </g>
   <g font-family="FreeSans" font-style="normal" xml:space="preserve" transform="translate(147.812,523.424) rotate(-0,11,-13)" font-weight="normal" font-size="16">
    <text fill="rgb(38,38,38)" x="0 9 13 " y="-0">0.4</text>
   </g>
   <g font-family="FreeSans" font-style="normal" xml:space="preserve" transform="translate(200.725,523.424) rotate(-0,11,-13)" font-weight="normal" font-size="16">
    <text fill="rgb(38,38,38)" x="0 9 13 " y="-0">0.6</text>
   </g>
   <g font-family="FreeSans" font-style="normal" xml:space="preserve" transform="translate(253.638,523.424) rotate(-0,11,-13)" font-weight="normal" font-size="16">
    <text fill="rgb(38,38,38)" x="0 9 13 " y="-0">0.8</text>
   </g>
   <g font-family="FreeSans" font-style="normal" xml:space="preserve" transform="translate(313.051,523.424) rotate(-0,4.5,-13)" font-weight="normal" font-size="16">
    <text fill="rgb(38,38,38)" x="0 " y="-0">1</text>
   </g>
   <polyline fill="none" points="52.9867,498.411 317.551,498.411" stroke-width="0.5" stroke="#262626" stroke-linecap="butt" stroke-opacity="0.15" stroke-linejoin="miter" stroke-dasharray="16,0"/>
   <polyline fill="none" points="52.9867,460.37 317.551,460.37" stroke-width="0.5" stroke="#262626" stroke-linecap="butt" stroke-opacity="0.15" stroke-linejoin="miter" stroke-dasharray="16,0"/>
   <polyline fill="none" points="52.9867,422.329 317.551,422.329" stroke-width="0.5" stroke="#262626" stroke-linecap="butt" stroke-opacity="0.15" stroke-linejoin="miter" stroke-dasharray="16,0"/>
   <polyline fill="none" points="52.9867,384.289 317.551,384.289" stroke-width="0.5" stroke="#262626" stroke-linecap="butt" stroke-opacity="0.15" stroke-linejoin="miter" stroke-dasharray="16,0"/>
   <polyline fill="none" points="52.9867,346.248 317.551,346.248" stroke-width="0.5" stroke="#262626" stroke-linecap="butt" stroke-opacity="0.15" stroke-linejoin="miter" stroke-dasharray="16,0"/>
   <polyline fill="none" points="52.9867,308.207 317.551,308.207" stroke-width="0.5" stroke="#262626" stroke-linecap="butt" stroke-opacity="0.15" stroke-linejoin="miter" stroke-dasharray="16,0"/>
   <polyline fill="none" points="52.9867,498.411 55.6279,498.411" stroke-width="0.5" stroke="#262626" stroke-linecap="butt" stroke-linejoin="miter"/>
   <polyline fill="none" points="317.551,498.411 314.91,498.411" stroke-width="0.5" stroke="#262626" stroke-linecap="butt" stroke-linejoin="miter"/>
   <polyline fill="none" points="52.9867,460.37 55.6279,460.37" stroke-width="0.5" stroke="#262626" stroke-linecap="butt" stroke-linejoin="miter"/>
   <polyline fill="none" points="317.551,460.37 314.91,460.37" stroke-width="0.5" stroke="#262626" stroke-linecap="butt" stroke-linejoin="miter"/>
   <polyline fill="none" points="52.9867,422.329 55.6279,422.329" stroke-width="0.5" stroke="#262626" stroke-linecap="butt" stroke-linejoin="miter"/>
   <polyline fill="none" points="317.551,422.329 314.91,422.329" stroke-width="0.5" stroke="#262626" stroke-linecap="butt" stroke-linejoin="miter"/>
   <polyline fill="none" points="52.9867,384.289 55.6279,384.289" stroke-width="0.5" stroke="#262626" stroke-linecap="butt" stroke-linejoin="miter"/>
   <polyline fill="none" points="317.551,384.289 314.91,384.289" stroke-width="0.5" stroke="#262626" stroke-linecap="butt" stroke-linejoin="miter"/>
   <polyline fill="none" points="52.9867,346.248 55.6279,346.248" stroke-width="0.5" stroke="#262626" stroke-linecap="butt" stroke-linejoin="miter"/>
   <polyline fill="none" points="317.551,346.248 314.91,346.248" stroke-width="0.5" stroke="#262626" stroke-linecap="butt" stroke-linejoin="miter"/>
   <polyline fill="none" points="52.9867,308.207 55.6279,308.207" stroke-width="0.5" stroke="#262626" stroke-linecap="butt" stroke-linejoin="miter"/>
   <polyline fill="none" points="317.551,308.207 314.91,308.207" stroke-width="0.5" stroke="#262626" stroke-linecap="butt" stroke-linejoin="miter"/>
   <g font-family="FreeSans" font-style="normal" xml:space="preserve" transform="translate(35.9998,504.911) rotate(-0,9,-6.5)" font-weight="normal" font-size="16">
    <text fill="rgb(38,38,38)" x="0 " y="-0">0</text>
   </g>
   <g font-family="FreeSans" font-style="normal" xml:space="preserve" transform="translate(22.9998,466.87) rotate(-0,22,-6.5)" font-weight="normal" font-size="16">
    <text fill="rgb(38,38,38)" x="0 9 13 " y="-0">0.2</text>
   </g>
   <g font-family="FreeSans" font-style="normal" xml:space="preserve" transform="translate(22.9998,428.829) rotate(-0,22,-6.5)" font-weight="normal" font-size="16">
    <text fill="rgb(38,38,38)" x="0 9 13 " y="-0">0.4</text>
   </g>
   <g font-family="FreeSans" font-style="normal" xml:space="preserve" transform="translate(22.9998,390.789) rotate(-0,22,-6.5)" font-weight="normal" font-size="16">
    <text fill="rgb(38,38,38)" x="0 9 13 " y="-0">0.6</text>
   </g>
   <g font-family="FreeSans" font-style="normal" xml:space="preserve" transform="translate(22.9998,352.748) rotate(-0,22,-6.5)" font-weight="normal" font-size="16">
    <text fill="rgb(38,38,38)" x="0 9 13 " y="-0">0.8</text>
   </g>
   <g font-family="FreeSans" font-style="normal" xml:space="preserve" transform="translate(35.9998,314.707) rotate(-0,9,-6.5)" font-weight="normal" font-size="16">
    <text fill="rgb(38,38,38)" x="0 " y="-0">1</text>
   </g>
   <polyline fill="none" points="52.9867,498.411 317.551,498.411" stroke-width="0.5" stroke="#262626" stroke-linecap="square" stroke-linejoin="miter" stroke-dasharray="16,0"/>
   <polyline fill="none" points="52.9867,308.207 317.551,308.207" stroke-width="0.5" stroke="#262626" stroke-linecap="square" stroke-linejoin="miter" stroke-dasharray="16,0"/>
   <polyline fill="none" points="52.9867,498.411 52.9867,308.207" stroke-width="0.5" stroke="#262626" stroke-linecap="square" stroke-linejoin="miter" stroke-dasharray="16,0"/>
   <polyline fill="none" points="317.551,498.411 317.551,308.207" stroke-width="0.5" stroke="#262626" stroke-linecap="square" stroke-linejoin="miter" stroke-dasharray="16,0"/>
   <g font-family="FreeSans" font-style="italic" xml:space="preserve" transform="translate(180.269,539.424) rotate(-0,5,-11)" font-weight="normal" font-size="17.6">
    <text fill="rgb(38,38,38)" x="0 " y="-0">x</text>
   </g>
   <g font-family="FreeSans" font-style="italic" xml:space="preserve" transform="translate(12.9998,403.309) rotate(-90,5,0)" font-weight="normal" font-size="17.6">
    <text fill="rgb(38,38,38)" x="0 " y="-4">y</text>
   </g>
   <polyline fill="none" points="174.686,498.411 174.686,308.207" stroke-width="0.5" stroke="#ff00ff" stroke-linecap="butt" stroke-linejoin="round" stroke-dasharray="9,7"/>
   <polyline fill="none" points="285.803,498.411 285.803,308.207" stroke-width="0.5" stroke="#0000ff" stroke-linecap="butt" stroke-linejoin="round" stroke-dasharray="9,7"/>
   <polyline fill="none" points="82.0887,498.411 82.0887,308.207" stroke-width="0.5" stroke="#ff0000" stroke-linecap="butt" stroke-linejoin="round" stroke-dasharray="9,7"/>
   <polyline fill="none" points="53.0528,498.093 66.2149,447.627 79.4431,418.906 92.6713,400.076 105.9,388.283 132.356,371.925 158.812,359.752 185.269,350.242 211.725,341.493 238.182,332.933 264.638,324.374 291.095,316.195 317.551,308.207" stroke-width="1.25" stroke="#000000" stroke-linecap="butt" stroke-linejoin="round"/>
   <polyline fill="none" points="56.0528,498.093 55.4798,499.856 53.9798,500.946 52.1257,500.946 50.6257,499.856 50.0528,498.093 50.6257,496.329 52.1257,495.24 53.9798,495.24 55.4798,496.329 56.0528,498.093" stroke-width="1.25" stroke="#000000" stroke-linecap="round" stroke-linejoin="round"/>
   <polyline fill="none" points="69.2149,447.627 68.6419,449.39 67.1419,450.48 65.2878,450.48 63.7878,449.39 63.2149,447.627 63.7878,445.863 65.2878,444.773 67.1419,444.773 68.6419,445.863 69.2149,447.627" stroke-width="1.25" stroke="#000000" stroke-linecap="round" stroke-linejoin="round"/>
   <polyline fill="none" points="82.4431,418.906 81.8701,420.669 80.3701,421.759 78.516,421.759 77.016,420.669 76.4431,418.906 77.016,417.142 78.516,416.053 80.3701,416.053 81.8701,417.142 82.4431,418.906" stroke-width="1.25" stroke="#000000" stroke-linecap="round" stroke-linejoin="round"/>
   <polyline fill="none" points="95.6713,400.076 95.0984,401.839 93.5984,402.929 91.7443,402.929 90.2443,401.839 89.6713,400.076 90.2443,398.312 91.7443,397.222 93.5984,397.222 95.0984,398.312 95.6713,400.076" stroke-width="1.25" stroke="#000000" stroke-linecap="round" stroke-linejoin="round"/>
   <polyline fill="none" points="108.9,388.283 108.327,390.046 106.827,391.136 104.972,391.136 103.472,390.046 102.9,388.283 103.472,386.52 104.972,385.43 106.827,385.43 108.327,386.52 108.9,388.283" stroke-width="1.25" stroke="#000000" stroke-linecap="round" stroke-linejoin="round"/>
   <polyline fill="none" points="135.356,371.925 134.783,373.689 133.283,374.778 131.429,374.778 129.929,373.689 129.356,371.925 129.929,370.162 131.429,369.072 133.283,369.072 134.783,370.162 135.356,371.925" stroke-width="1.25" stroke="#000000" stroke-linecap="round" stroke-linejoin="round"/>
   <polyline fill="none" points="161.812,359.752 161.239,361.516 159.739,362.605 157.885,362.605 156.385,361.516 155.812,359.752 156.385,357.989 157.885,356.899 159.739,356.899 161.239,357.989 161.812,359.752" stroke-width="1.25" stroke="#000000" stroke-linecap="round" stroke-linejoin="round"/>
   <polyline fill="none" points="188.269,350.242 187.696,352.005 186.196,353.095 184.342,353.095 182.842,352.005 182.269,350.242 182.842,348.479 184.342,347.389 186.196,347.389 187.696,348.479 188.269,350.242" stroke-width="1.25" stroke="#000000" stroke-linecap="round" stroke-linejoin="round"/>
   <polyline fill="none" points="214.725,341.493 214.152,343.256 212.652,344.346 210.798,344.346 209.298,343.256 208.725,341.493 209.298,339.729 210.798,338.639 212.652,338.639 214.152,339.729 214.725,341.493" stroke-width="1.25" stroke="#000000" stroke-linecap="round" stroke-linejoin="round"/>
   <polyline fill="none" points="241.182,332.933 240.609,334.697 239.109,335.787 237.255,335.787 235.755,334.697 235.182,332.933 235.755,331.17 237.255,330.08 239.109,330.08 240.609,331.17 241.182,332.933" stroke-width="1.25" stroke="#000000" stroke-linecap="round" stroke-linejoin="round"/>
   <polyline fill="none" points="267.638,324.374 267.065,326.138 265.565,327.227 263.711,327.227 262.211,326.138 261.638,324.374 262.211,322.611 263.711,321.521 265.565,321.521 267.065,322.611 267.638,324.374" stroke-width="1.25" stroke="#000000" stroke-linecap="round" stroke-linejoin="round"/>
   <polyline fill="none" points="294.095,316.195 293.522,317.959 292.022,319.049 290.168,319.049 288.668,317.959 288.095,316.195 288.668,314.432 290.168,313.342 292.022,313.342 293.522,314.432 294.095,316.195" stroke-width="1.25" stroke="#000000" stroke-linecap="round" stroke-linejoin="round"/>
   <polyline fill="none" points="320.551,308.207 319.978,309.97 318.478,311.06 316.624,311.06 315.124,309.97 314.551,308.207 315.124,306.443 316.624,305.354 318.478,305.354 319.978,306.443 320.551,308.207" stroke-width="1.25" stroke="#000000" stroke-linecap="round" stroke-linejoin="round"/>
   <polyline fill="none" points="52.9867,498.411 317.551,308.207" stroke-width="0.5" stroke="#000000" stroke-linecap="butt" stroke-linejoin="round" stroke-dasharray="9,7"/>
   <polyline fill="none" points="285.803,331.031 244.061,331.031 244.061,347.713 192.915,347.713 192.915,367.059 142.932,367.059 142.932,385.329 110.676,385.329 110.676,432.524 73.1707,432.524 73.1707,483.9" stroke-width="0.5" stroke="#00ffff" stroke-linecap="butt" stroke-linejoin="round"/>
   <polyline fill="none" points="285.803,331.031 244.061,347.713 192.915,367.059 142.932,385.329 110.676,432.524 73.1707,483.9" stroke-width="0.5" stroke="#00ff00" stroke-linecap="butt" stroke-linejoin="round"/>
   <polyline fill="none" points="285.803,328.031 288.803,331.031 285.803,334.031 282.803,331.031 285.803,328.031" stroke-width="0.5" stroke="#00ff00" stroke-linecap="square" stroke-linejoin="miter"/>
   <polyline fill="none" points="244.061,344.713 247.061,347.713 244.061,350.713 241.061,347.713 244.061,344.713" stroke-width="0.5" stroke="#00ff00" stroke-linecap="square" stroke-linejoin="miter"/>
   <polyline fill="none" points="192.915,364.059 195.915,367.059 192.915,370.059 189.915,367.059 192.915,364.059" stroke-width="0.5" stroke="#00ff00" stroke-linecap="square" stroke-linejoin="miter"/>
   <polyline fill="none" points="142.932,382.329 145.932,385.329 142.932,388.329 139.932,385.329 142.932,382.329" stroke-width="0.5" stroke="#00ff00" stroke-linecap="square" stroke-linejoin="miter"/>
   <polyline fill="none" points="110.676,429.524 113.676,432.524 110.676,435.524 107.676,432.524 110.676,429.524" stroke-width="0.5" stroke="#00ff00" stroke-linecap="square" stroke-linejoin="miter"/>
   <polyline fill="none" points="73.1707,480.9 76.1707,483.9 73.1707,486.9 70.1707,483.9 73.1707,480.9" stroke-width="0.5" stroke="#00ff00" stroke-linecap="square" stroke-linejoin="miter"/>
   <polyline fill="none" points="52.9867,323.423 296.65,498.602" stroke-width="0.5" stroke="#ff00ff" stroke-linecap="butt" stroke-linejoin="round" stroke-dasharray="8,3,2,3"/>
  </g>
 </g>
</svg>
