<?xml version='1.0' encoding='UTF-8' standalone='no'?>
<svg xmlns="http://www.w3.org/2000/svg" viewBox="0 0 520 834" xmlns:xlink="http://www.w3.org/1999/xlink" width="520pt" height="834pt">
 <title>Figure 1</title>
 <desc>
Creator: GL2PS 1.4.2, (C) 1999-2020 C. Geuzaine
For: Octave
CreationDate: Sun Oct 16 00:13:33 2022
</desc>
 <defs/>
 <polygon points="0,0 520,0 520,834 0,834" fill="#ffffff"/>
 <g>
  <polygon points="0,834 520,834 520,0 0,0" shape-rendering="crispEdges" fill="#ffffff"/>
  <clipPath id="cp00520834">
   <polygon points="0,834 520,834 520,0 0,0"/>
  </clipPath>
  <g clip-path="url(#cp00520834)">
   <polygon points="67.6499,355.107 470.947,355.107 470.947,66.626 67.6499,66.626" shape-rendering="crispEdges" fill="#ffffff"/>
   <polyline stroke-linecap="butt" points="67.6499,355.107 67.6499,66.626" stroke-linejoin="miter" stroke-opacity="0.15" stroke="#262626" fill="none" stroke-dasharray="16,0" stroke-width="0.5"/>
   <polyline stroke-linecap="butt" points="148.309,355.107 148.309,66.626" stroke-linejoin="miter" stroke-opacity="0.15" stroke="#262626" fill="none" stroke-dasharray="16,0" stroke-width="0.5"/>
   <polyline stroke-linecap="butt" points="228.969,355.107 228.969,66.626" stroke-linejoin="miter" stroke-opacity="0.15" stroke="#262626" fill="none" stroke-dasharray="16,0" stroke-width="0.5"/>
   <polyline stroke-linecap="butt" points="309.628,355.107 309.628,66.626" stroke-linejoin="miter" stroke-opacity="0.15" stroke="#262626" fill="none" stroke-dasharray="16,0" stroke-width="0.5"/>
   <polyline stroke-linecap="butt" points="390.288,355.107 390.288,66.626" stroke-linejoin="miter" stroke-opacity="0.15" stroke="#262626" fill="none" stroke-dasharray="16,0" stroke-width="0.5"/>
   <polyline stroke-linecap="butt" points="470.947,355.107 470.947,66.626" stroke-linejoin="miter" stroke-opacity="0.15" stroke="#262626" fill="none" stroke-dasharray="16,0" stroke-width="0.5"/>
   <polyline stroke-linecap="butt" points="67.6499,355.107 67.6499,351.068" stroke-linejoin="miter" stroke="#262626" fill="none" stroke-width="0.5"/>
   <polyline stroke-linecap="butt" points="67.6499,66.626 67.6499,70.6657" stroke-linejoin="miter" stroke="#262626" fill="none" stroke-width="0.5"/>
   <polyline stroke-linecap="butt" points="148.309,355.107 148.309,351.068" stroke-linejoin="miter" stroke="#262626" fill="none" stroke-width="0.5"/>
   <polyline stroke-linecap="butt" points="148.309,66.626 148.309,70.6657" stroke-linejoin="miter" stroke="#262626" fill="none" stroke-width="0.5"/>
   <polyline stroke-linecap="butt" points="228.969,355.107 228.969,351.068" stroke-linejoin="miter" stroke="#262626" fill="none" stroke-width="0.5"/>
   <polyline stroke-linecap="butt" points="228.969,66.626 228.969,70.6657" stroke-linejoin="miter" stroke="#262626" fill="none" stroke-width="0.5"/>
   <polyline stroke-linecap="butt" points="309.628,355.107 309.628,351.068" stroke-linejoin="miter" stroke="#262626" fill="none" stroke-width="0.5"/>
   <polyline stroke-linecap="butt" points="309.628,66.626 309.628,70.6657" stroke-linejoin="miter" stroke="#262626" fill="none" stroke-width="0.5"/>
   <polyline stroke-linecap="butt" points="390.288,355.107 390.288,351.068" stroke-linejoin="miter" stroke="#262626" fill="none" stroke-width="0.5"/>
   <polyline stroke-linecap="butt" points="390.288,66.626 390.288,70.6657" stroke-linejoin="miter" stroke="#262626" fill="none" stroke-width="0.5"/>
   <polyline stroke-linecap="butt" points="470.947,355.107 470.947,351.068" stroke-linejoin="miter" stroke="#262626" fill="none" stroke-width="0.5"/>
   <polyline stroke-linecap="butt" points="470.947,66.626 470.947,70.6657" stroke-linejoin="miter" stroke="#262626" fill="none" stroke-width="0.5"/>
   <g transform="translate(63.1499,380.127) rotate(-0,4.5,-13)" font-weight="normal" font-style="normal" font-family="FreeSans" xml:space="preserve" font-size="16">
    <text x="0 " y="-0" fill="rgb(38,38,38)">0</text>
   </g>
   <g transform="translate(137.309,380.127) rotate(-0,11,-13)" font-weight="normal" font-style="normal" font-family="FreeSans" xml:space="preserve" font-size="16">
    <text x="0 9 13 " y="-0" fill="rgb(38,38,38)">0.2</text>
   </g>
   <g transform="translate(217.969,380.127) rotate(-0,11,-13)" font-weight="normal" font-style="normal" font-family="FreeSans" xml:space="preserve" font-size="16">
    <text x="0 9 13 " y="-0" fill="rgb(38,38,38)">0.4</text>
   </g>
   <g transform="translate(298.628,380.127) rotate(-0,11,-13)" font-weight="normal" font-style="normal" font-family="FreeSans" xml:space="preserve" font-size="16">
    <text x="0 9 13 " y="-0" fill="rgb(38,38,38)">0.6</text>
   </g>
   <g transform="translate(379.288,380.127) rotate(-0,11,-13)" font-weight="normal" font-style="normal" font-family="FreeSans" xml:space="preserve" font-size="16">
    <text x="0 9 13 " y="-0" fill="rgb(38,38,38)">0.8</text>
   </g>
   <g transform="translate(466.447,380.127) rotate(-0,4.5,-13)" font-weight="normal" font-style="normal" font-family="FreeSans" xml:space="preserve" font-size="16">
    <text x="0 " y="-0" fill="rgb(38,38,38)">1</text>
   </g>
   <polyline stroke-linecap="butt" points="67.6499,355.107 470.947,355.107" stroke-linejoin="miter" stroke-opacity="0.15" stroke="#262626" fill="none" stroke-dasharray="16,0" stroke-width="0.5"/>
   <polyline stroke-linecap="butt" points="67.6499,313.896 470.947,313.896" stroke-linejoin="miter" stroke-opacity="0.15" stroke="#262626" fill="none" stroke-dasharray="16,0" stroke-width="0.5"/>
   <polyline stroke-linecap="butt" points="67.6499,272.684 470.947,272.684" stroke-linejoin="miter" stroke-opacity="0.15" stroke="#262626" fill="none" stroke-dasharray="16,0" stroke-width="0.5"/>
   <polyline stroke-linecap="butt" points="67.6499,231.472 470.947,231.472" stroke-linejoin="miter" stroke-opacity="0.15" stroke="#262626" fill="none" stroke-dasharray="16,0" stroke-width="0.5"/>
   <polyline stroke-linecap="butt" points="67.6499,190.261 470.947,190.261" stroke-linejoin="miter" stroke-opacity="0.15" stroke="#262626" fill="none" stroke-dasharray="16,0" stroke-width="0.5"/>
   <polyline stroke-linecap="butt" points="67.6499,149.049 470.947,149.049" stroke-linejoin="miter" stroke-opacity="0.15" stroke="#262626" fill="none" stroke-dasharray="16,0" stroke-width="0.5"/>
   <polyline stroke-linecap="butt" points="67.6499,107.838 470.947,107.838" stroke-linejoin="miter" stroke-opacity="0.15" stroke="#262626" fill="none" stroke-dasharray="16,0" stroke-width="0.5"/>
   <polyline stroke-linecap="butt" points="67.6499,66.626 470.947,66.626" stroke-linejoin="miter" stroke-opacity="0.15" stroke="#262626" fill="none" stroke-dasharray="16,0" stroke-width="0.5"/>
   <polyline stroke-linecap="butt" points="67.6499,355.107 71.6858,355.107" stroke-linejoin="miter" stroke="#262626" fill="none" stroke-width="0.5"/>
   <polyline stroke-linecap="butt" points="470.947,355.107 466.911,355.107" stroke-linejoin="miter" stroke="#262626" fill="none" stroke-width="0.5"/>
   <polyline stroke-linecap="butt" points="67.6499,313.896 71.6858,313.896" stroke-linejoin="miter" stroke="#262626" fill="none" stroke-width="0.5"/>
   <polyline stroke-linecap="butt" points="470.947,313.896 466.911,313.896" stroke-linejoin="miter" stroke="#262626" fill="none" stroke-width="0.5"/>
   <polyline stroke-linecap="butt" points="67.6499,272.684 71.6858,272.684" stroke-linejoin="miter" stroke="#262626" fill="none" stroke-width="0.5"/>
   <polyline stroke-linecap="butt" points="470.947,272.684 466.911,272.684" stroke-linejoin="miter" stroke="#262626" fill="none" stroke-width="0.5"/>
   <polyline stroke-linecap="butt" points="67.6499,231.472 71.6858,231.472" stroke-linejoin="miter" stroke="#262626" fill="none" stroke-width="0.5"/>
   <polyline stroke-linecap="butt" points="470.947,231.472 466.911,231.472" stroke-linejoin="miter" stroke="#262626" fill="none" stroke-width="0.5"/>
   <polyline stroke-linecap="butt" points="67.6499,190.261 71.6858,190.261" stroke-linejoin="miter" stroke="#262626" fill="none" stroke-width="0.5"/>
   <polyline stroke-linecap="butt" points="470.947,190.261 466.911,190.261" stroke-linejoin="miter" stroke="#262626" fill="none" stroke-width="0.5"/>
   <polyline stroke-linecap="butt" points="67.6499,149.049 71.6858,149.049" stroke-linejoin="miter" stroke="#262626" fill="none" stroke-width="0.5"/>
   <polyline stroke-linecap="butt" points="470.947,149.049 466.911,149.049" stroke-linejoin="miter" stroke="#262626" fill="none" stroke-width="0.5"/>
   <polyline stroke-linecap="butt" points="67.6499,107.838 71.6858,107.838" stroke-linejoin="miter" stroke="#262626" fill="none" stroke-width="0.5"/>
   <polyline stroke-linecap="butt" points="470.947,107.838 466.911,107.838" stroke-linejoin="miter" stroke="#262626" fill="none" stroke-width="0.5"/>
   <polyline stroke-linecap="butt" points="67.6499,66.626 71.6858,66.626" stroke-linejoin="miter" stroke="#262626" fill="none" stroke-width="0.5"/>
   <polyline stroke-linecap="butt" points="470.947,66.626 466.911,66.626" stroke-linejoin="miter" stroke="#262626" fill="none" stroke-width="0.5"/>
   <g transform="translate(45.644,361.607) rotate(-0,14,-6.5)" font-weight="normal" font-style="normal" font-family="FreeSans" xml:space="preserve" font-size="16">
    <text x="0 5 " y="-0" fill="rgb(38,38,38)">-2</text>
   </g>
   <g transform="translate(45.644,320.396) rotate(-0,14,-6.5)" font-weight="normal" font-style="normal" font-family="FreeSans" xml:space="preserve" font-size="16">
    <text x="0 5 " y="-0" fill="rgb(38,38,38)">-1</text>
   </g>
   <g transform="translate(50.644,279.184) rotate(-0,9,-6.5)" font-weight="normal" font-style="normal" font-family="FreeSans" xml:space="preserve" font-size="16">
    <text x="0 " y="-0" fill="rgb(38,38,38)">0</text>
   </g>
   <g transform="translate(50.644,237.972) rotate(-0,9,-6.5)" font-weight="normal" font-style="normal" font-family="FreeSans" xml:space="preserve" font-size="16">
    <text x="0 " y="-0" fill="rgb(38,38,38)">1</text>
   </g>
   <g transform="translate(50.644,196.761) rotate(-0,9,-6.5)" font-weight="normal" font-style="normal" font-family="FreeSans" xml:space="preserve" font-size="16">
    <text x="0 " y="-0" fill="rgb(38,38,38)">2</text>
   </g>
   <g transform="translate(50.644,155.549) rotate(-0,9,-6.5)" font-weight="normal" font-style="normal" font-family="FreeSans" xml:space="preserve" font-size="16">
    <text x="0 " y="-0" fill="rgb(38,38,38)">3</text>
   </g>
   <g transform="translate(50.644,114.338) rotate(-0,9,-6.5)" font-weight="normal" font-style="normal" font-family="FreeSans" xml:space="preserve" font-size="16">
    <text x="0 " y="-0" fill="rgb(38,38,38)">4</text>
   </g>
   <g transform="translate(50.644,73.126) rotate(-0,9,-6.5)" font-weight="normal" font-style="normal" font-family="FreeSans" xml:space="preserve" font-size="16">
    <text x="0 " y="-0" fill="rgb(38,38,38)">5</text>
   </g>
   <polyline stroke-linecap="square" points="67.6499,355.107 470.947,355.107" stroke-linejoin="miter" stroke="#262626" fill="none" stroke-dasharray="16,0" stroke-width="0.5"/>
   <polyline stroke-linecap="square" points="67.6499,66.626 470.947,66.626" stroke-linejoin="miter" stroke="#262626" fill="none" stroke-dasharray="16,0" stroke-width="0.5"/>
   <polyline stroke-linecap="square" points="67.6499,355.107 67.6499,66.626" stroke-linejoin="miter" stroke="#262626" fill="none" stroke-dasharray="16,0" stroke-width="0.5"/>
   <polyline stroke-linecap="square" points="470.947,355.107 470.947,66.626" stroke-linejoin="miter" stroke="#262626" fill="none" stroke-dasharray="16,0" stroke-width="0.5"/>
   <g transform="translate(26.144,210.867) rotate(-90,14.5,0)" font-weight="normal" font-style="italic" font-family="FreeSans" xml:space="preserve" font-size="17.6">
    <text x="0 " y="-3" fill="rgb(38,38,38)">h</text>
    <text x="10 " font-style="normal" y="-3" fill="rgb(38,38,38)">,</text>
    <text x="15 " y="-3" fill="rgb(38,38,38)">H</text>
   </g>
   <g transform="translate(257.299,400.127) rotate(-0,12,-15)" font-weight="normal" font-style="italic" font-family="FreeSans" xml:space="preserve" font-size="17.6">
    <text x="0 " y="-4" fill="rgb(38,38,38)">x</text>
    <text x="9 " font-style="normal" y="-4" fill="rgb(38,38,38)">,</text>
    <text x="14 " y="-4" fill="rgb(38,38,38)">y</text>
   </g>
   <polyline stroke-linecap="butt" points="67.6499,255.375 97.8972,255.458 136.21,255.581 178.557,255.787 224.936,256.282 279.381,257.106 343.909,258.301 422.552,260.321 470.947,261.845" stroke-linejoin="round" stroke="#0000ff" fill="none" stroke-width="0.5"/>
   <polyline stroke-linecap="square" points="67.6499,252.375 70.6499,255.375 67.6499,258.375 64.6499,255.375 67.6499,252.375" stroke-linejoin="miter" stroke="#0000ff" fill="none" stroke-width="0.5"/>
   <polyline stroke-linecap="square" points="97.8972,252.458 100.897,255.458 97.8972,258.458 94.8972,255.458 97.8972,252.458" stroke-linejoin="miter" stroke="#0000ff" fill="none" stroke-width="0.5"/>
   <polyline stroke-linecap="square" points="136.21,252.581 139.21,255.581 136.21,258.581 133.21,255.581 136.21,252.581" stroke-linejoin="miter" stroke="#0000ff" fill="none" stroke-width="0.5"/>
   <polyline stroke-linecap="square" points="178.557,252.787 181.557,255.787 178.557,258.787 175.557,255.787 178.557,252.787" stroke-linejoin="miter" stroke="#0000ff" fill="none" stroke-width="0.5"/>
   <polyline stroke-linecap="square" points="224.936,253.282 227.936,256.282 224.936,259.282 221.936,256.282 224.936,253.282" stroke-linejoin="miter" stroke="#0000ff" fill="none" stroke-width="0.5"/>
   <polyline stroke-linecap="square" points="279.381,254.106 282.381,257.106 279.381,260.106 276.381,257.106 279.381,254.106" stroke-linejoin="miter" stroke="#0000ff" fill="none" stroke-width="0.5"/>
   <polyline stroke-linecap="square" points="343.909,255.301 346.909,258.301 343.909,261.301 340.909,258.301 343.909,255.301" stroke-linejoin="miter" stroke="#0000ff" fill="none" stroke-width="0.5"/>
   <polyline stroke-linecap="square" points="422.552,257.321 425.552,260.321 422.552,263.321 419.552,260.321 422.552,257.321" stroke-linejoin="miter" stroke="#0000ff" fill="none" stroke-width="0.5"/>
   <polyline stroke-linecap="square" points="470.947,258.845 473.947,261.845 470.947,264.845 467.947,261.845 470.947,258.845" stroke-linejoin="miter" stroke="#0000ff" fill="none" stroke-width="0.5"/>
   <polyline stroke-linecap="butt" points="67.6499,196.855 145.486,200.358 212.434,203.242 269.299,205.715 321.727,207.982 370.123,210.248 414.486,212.309 452.799,213.958 470.947,214.782" stroke-linejoin="round" stroke="#ff0000" fill="none" stroke-width="0.5"/>
   <polyline stroke-linecap="square" points="67.6499,193.855 70.6499,196.855 67.6499,199.855 64.6499,196.855 67.6499,193.855" stroke-linejoin="miter" stroke="#ff0000" fill="none" stroke-width="0.5"/>
   <polyline stroke-linecap="square" points="145.486,197.358 148.486,200.358 145.486,203.358 142.486,200.358 145.486,197.358" stroke-linejoin="miter" stroke="#ff0000" fill="none" stroke-width="0.5"/>
   <polyline stroke-linecap="square" points="212.434,200.243 215.434,203.243 212.434,206.243 209.434,203.243 212.434,200.243" stroke-linejoin="miter" stroke="#ff0000" fill="none" stroke-width="0.5"/>
   <polyline stroke-linecap="square" points="269.299,202.715 272.299,205.715 269.299,208.715 266.299,205.715 269.299,202.715" stroke-linejoin="miter" stroke="#ff0000" fill="none" stroke-width="0.5"/>
   <polyline stroke-linecap="square" points="321.727,204.982 324.727,207.982 321.727,210.982 318.727,207.982 321.727,204.982" stroke-linejoin="miter" stroke="#ff0000" fill="none" stroke-width="0.5"/>
   <polyline stroke-linecap="square" points="370.123,207.248 373.123,210.248 370.123,213.248 367.123,210.248 370.123,207.248" stroke-linejoin="miter" stroke="#ff0000" fill="none" stroke-width="0.5"/>
   <polyline stroke-linecap="square" points="414.486,209.309 417.486,212.309 414.486,215.309 411.486,212.309 414.486,209.309" stroke-linejoin="miter" stroke="#ff0000" fill="none" stroke-width="0.5"/>
   <polyline stroke-linecap="square" points="452.799,210.958 455.799,213.958 452.799,216.958 449.799,213.958 452.799,210.958" stroke-linejoin="miter" stroke="#ff0000" fill="none" stroke-width="0.5"/>
   <polyline stroke-linecap="square" points="470.947,211.782 473.947,214.782 470.947,217.782 467.947,214.782 470.947,211.782" stroke-linejoin="miter" stroke="#ff0000" fill="none" stroke-width="0.5"/>
   <polyline stroke-linecap="butt" points="422.552,260.321 422.552,212.656 360.465,258.726 379.238,210.672 292.64,257.352 332.917,208.506 237.524,256.472 296.102,206.874 202.267,256.04 253.914,205.046 167.1,255.732 199.773,202.697 128.965,255.558 139.46,200.087 95.5555,255.451" stroke-linejoin="round" stroke="#00ffff" fill="none" stroke-width="0.5"/>
   <polyline stroke-linecap="butt" points="422.552,260.321 422.552,212.656 422.552,99.799 253.167,233.63 112.013,345.156 112.013,255.503 112.013,198.851" stroke-linejoin="round" stroke="#00ff00" fill="none" stroke-width="0.5"/>
   <polyline stroke-linecap="round" points="425.552,260.321 424.979,262.084 423.479,263.174 421.625,263.174 420.125,262.084 419.552,260.321 420.125,258.557 421.625,257.467 423.479,257.467 424.979,258.557 425.552,260.321" stroke-linejoin="round" stroke="#00ff00" fill="none" stroke-width="0.5"/>
   <polyline stroke-linecap="round" points="425.552,212.656 424.979,214.419 423.479,215.509 421.625,215.509 420.125,214.419 419.552,212.656 420.125,210.893 421.625,209.803 423.479,209.803 424.979,210.893 425.552,212.656" stroke-linejoin="round" stroke="#00ff00" fill="none" stroke-width="0.5"/>
   <polyline stroke-linecap="round" points="425.552,99.799 424.979,101.562 423.479,102.652 421.625,102.652 420.125,101.562 419.552,99.799 420.125,98.0356 421.625,96.9458 423.479,96.9458 424.979,98.0356 425.552,99.799" stroke-linejoin="round" stroke="#00ff00" fill="none" stroke-width="0.5"/>
   <polyline stroke-linecap="round" points="256.167,233.63 255.594,235.393 254.094,236.483 252.24,236.483 250.74,235.393 250.167,233.63 250.74,231.867 252.24,230.777 254.094,230.777 255.594,231.867 256.167,233.63" stroke-linejoin="round" stroke="#00ff00" fill="none" stroke-width="0.5"/>
   <polyline stroke-linecap="round" points="115.013,345.156 114.44,346.919 112.94,348.009 111.086,348.009 109.586,346.919 109.013,345.156 109.586,343.392 111.086,342.302 112.94,342.302 114.44,343.392 115.013,345.156" stroke-linejoin="round" stroke="#00ff00" fill="none" stroke-width="0.5"/>
   <polyline stroke-linecap="round" points="115.013,255.503 114.44,257.267 112.94,258.356 111.086,258.356 109.586,257.267 109.013,255.503 109.586,253.74 111.086,252.65 112.94,252.65 114.44,253.74 115.013,255.503" stroke-linejoin="round" stroke="#00ff00" fill="none" stroke-width="0.5"/>
   <polyline stroke-linecap="round" points="115.013,198.851 114.44,200.615 112.94,201.704 111.086,201.704 109.586,200.615 109.013,198.851 109.586,197.088 111.086,195.998 112.94,195.998 114.44,197.088 115.013,198.851" stroke-linejoin="round" stroke="#00ff00" fill="none" stroke-width="0.5"/>
   <polyline stroke-linecap="butt" points="209.568,256.118 253.167,233.63 304.355,207.231" stroke-linejoin="round" stroke="#ff00ff" fill="none" stroke-dasharray="9,7" stroke-width="0.5"/>
  </g>
  <clipPath id="cp00520834">
   <polygon points="0,834 520,834 520,0 0,0"/>
  </clipPath>
  <g clip-path="url(#cp00520834)">
   <polygon points="67.6499,743.073 470.947,743.073 470.947,454.591 67.6499,454.591" shape-rendering="crispEdges" fill="#ffffff"/>
   <polyline stroke-linecap="butt" points="67.6499,743.073 67.6499,454.591" stroke-linejoin="miter" stroke-opacity="0.15" stroke="#262626" fill="none" stroke-dasharray="16,0" stroke-width="0.5"/>
   <polyline stroke-linecap="butt" points="148.309,743.073 148.309,454.591" stroke-linejoin="miter" stroke-opacity="0.15" stroke="#262626" fill="none" stroke-dasharray="16,0" stroke-width="0.5"/>
   <polyline stroke-linecap="butt" points="228.969,743.073 228.969,454.591" stroke-linejoin="miter" stroke-opacity="0.15" stroke="#262626" fill="none" stroke-dasharray="16,0" stroke-width="0.5"/>
   <polyline stroke-linecap="butt" points="309.628,743.073 309.628,454.591" stroke-linejoin="miter" stroke-opacity="0.15" stroke="#262626" fill="none" stroke-dasharray="16,0" stroke-width="0.5"/>
   <polyline stroke-linecap="butt" points="390.288,743.073 390.288,454.591" stroke-linejoin="miter" stroke-opacity="0.15" stroke="#262626" fill="none" stroke-dasharray="16,0" stroke-width="0.5"/>
   <polyline stroke-linecap="butt" points="470.947,743.073 470.947,454.591" stroke-linejoin="miter" stroke-opacity="0.15" stroke="#262626" fill="none" stroke-dasharray="16,0" stroke-width="0.5"/>
   <polyline stroke-linecap="butt" points="67.6499,743.073 67.6499,739.033" stroke-linejoin="miter" stroke="#262626" fill="none" stroke-width="0.5"/>
   <polyline stroke-linecap="butt" points="67.6499,454.591 67.6499,458.631" stroke-linejoin="miter" stroke="#262626" fill="none" stroke-width="0.5"/>
   <polyline stroke-linecap="butt" points="148.309,743.073 148.309,739.033" stroke-linejoin="miter" stroke="#262626" fill="none" stroke-width="0.5"/>
   <polyline stroke-linecap="butt" points="148.309,454.591 148.309,458.631" stroke-linejoin="miter" stroke="#262626" fill="none" stroke-width="0.5"/>
   <polyline stroke-linecap="butt" points="228.969,743.073 228.969,739.033" stroke-linejoin="miter" stroke="#262626" fill="none" stroke-width="0.5"/>
   <polyline stroke-linecap="butt" points="228.969,454.591 228.969,458.631" stroke-linejoin="miter" stroke="#262626" fill="none" stroke-width="0.5"/>
   <polyline stroke-linecap="butt" points="309.628,743.073 309.628,739.033" stroke-linejoin="miter" stroke="#262626" fill="none" stroke-width="0.5"/>
   <polyline stroke-linecap="butt" points="309.628,454.591 309.628,458.631" stroke-linejoin="miter" stroke="#262626" fill="none" stroke-width="0.5"/>
   <polyline stroke-linecap="butt" points="390.288,743.073 390.288,739.033" stroke-linejoin="miter" stroke="#262626" fill="none" stroke-width="0.5"/>
   <polyline stroke-linecap="butt" points="390.288,454.591 390.288,458.631" stroke-linejoin="miter" stroke="#262626" fill="none" stroke-width="0.5"/>
   <polyline stroke-linecap="butt" points="470.947,743.073 470.947,739.033" stroke-linejoin="miter" stroke="#262626" fill="none" stroke-width="0.5"/>
   <polyline stroke-linecap="butt" points="470.947,454.591 470.947,458.631" stroke-linejoin="miter" stroke="#262626" fill="none" stroke-width="0.5"/>
   <g transform="translate(63.1499,768.093) rotate(-0,4.5,-13)" font-weight="normal" font-style="normal" font-family="FreeSans" xml:space="preserve" font-size="16">
    <text x="0 " y="-0" fill="rgb(38,38,38)">0</text>
   </g>
   <g transform="translate(137.309,768.093) rotate(-0,11,-13)" font-weight="normal" font-style="normal" font-family="FreeSans" xml:space="preserve" font-size="16">
    <text x="0 9 13 " y="-0" fill="rgb(38,38,38)">0.2</text>
   </g>
   <g transform="translate(217.969,768.093) rotate(-0,11,-13)" font-weight="normal" font-style="normal" font-family="FreeSans" xml:space="preserve" font-size="16">
    <text x="0 9 13 " y="-0" fill="rgb(38,38,38)">0.4</text>
   </g>
   <g transform="translate(298.628,768.093) rotate(-0,11,-13)" font-weight="normal" font-style="normal" font-family="FreeSans" xml:space="preserve" font-size="16">
    <text x="0 9 13 " y="-0" fill="rgb(38,38,38)">0.6</text>
   </g>
   <g transform="translate(379.288,768.093) rotate(-0,11,-13)" font-weight="normal" font-style="normal" font-family="FreeSans" xml:space="preserve" font-size="16">
    <text x="0 9 13 " y="-0" fill="rgb(38,38,38)">0.8</text>
   </g>
   <g transform="translate(466.447,768.093) rotate(-0,4.5,-13)" font-weight="normal" font-style="normal" font-family="FreeSans" xml:space="preserve" font-size="16">
    <text x="0 " y="-0" fill="rgb(38,38,38)">1</text>
   </g>
   <polyline stroke-linecap="butt" points="67.6499,743.073 470.947,743.073" stroke-linejoin="miter" stroke-opacity="0.15" stroke="#262626" fill="none" stroke-dasharray="16,0" stroke-width="0.5"/>
   <polyline stroke-linecap="butt" points="67.6499,685.376 470.947,685.376" stroke-linejoin="miter" stroke-opacity="0.15" stroke="#262626" fill="none" stroke-dasharray="16,0" stroke-width="0.5"/>
   <polyline stroke-linecap="butt" points="67.6499,627.68 470.947,627.68" stroke-linejoin="miter" stroke-opacity="0.15" stroke="#262626" fill="none" stroke-dasharray="16,0" stroke-width="0.5"/>
   <polyline stroke-linecap="butt" points="67.6499,569.984 470.947,569.984" stroke-linejoin="miter" stroke-opacity="0.15" stroke="#262626" fill="none" stroke-dasharray="16,0" stroke-width="0.5"/>
   <polyline stroke-linecap="butt" points="67.6499,512.287 470.947,512.287" stroke-linejoin="miter" stroke-opacity="0.15" stroke="#262626" fill="none" stroke-dasharray="16,0" stroke-width="0.5"/>
   <polyline stroke-linecap="butt" points="67.6499,454.591 470.947,454.591" stroke-linejoin="miter" stroke-opacity="0.15" stroke="#262626" fill="none" stroke-dasharray="16,0" stroke-width="0.5"/>
   <polyline stroke-linecap="butt" points="67.6499,743.073 71.6858,743.073" stroke-linejoin="miter" stroke="#262626" fill="none" stroke-width="0.5"/>
   <polyline stroke-linecap="butt" points="470.947,743.073 466.911,743.073" stroke-linejoin="miter" stroke="#262626" fill="none" stroke-width="0.5"/>
   <polyline stroke-linecap="butt" points="67.6499,685.376 71.6858,685.376" stroke-linejoin="miter" stroke="#262626" fill="none" stroke-width="0.5"/>
   <polyline stroke-linecap="butt" points="470.947,685.376 466.911,685.376" stroke-linejoin="miter" stroke="#262626" fill="none" stroke-width="0.5"/>
   <polyline stroke-linecap="butt" points="67.6499,627.68 71.6858,627.68" stroke-linejoin="miter" stroke="#262626" fill="none" stroke-width="0.5"/>
   <polyline stroke-linecap="butt" points="470.947,627.68 466.911,627.68" stroke-linejoin="miter" stroke="#262626" fill="none" stroke-width="0.5"/>
   <polyline stroke-linecap="butt" points="67.6499,569.984 71.6858,569.984" stroke-linejoin="miter" stroke="#262626" fill="none" stroke-width="0.5"/>
   <polyline stroke-linecap="butt" points="470.947,569.984 466.911,569.984" stroke-linejoin="miter" stroke="#262626" fill="none" stroke-width="0.5"/>
   <polyline stroke-linecap="butt" points="67.6499,512.287 71.6858,512.287" stroke-linejoin="miter" stroke="#262626" fill="none" stroke-width="0.5"/>
   <polyline stroke-linecap="butt" points="470.947,512.287 466.911,512.287" stroke-linejoin="miter" stroke="#262626" fill="none" stroke-width="0.5"/>
   <polyline stroke-linecap="butt" points="67.6499,454.591 71.6858,454.591" stroke-linejoin="miter" stroke="#262626" fill="none" stroke-width="0.5"/>
   <polyline stroke-linecap="butt" points="470.947,454.591 466.911,454.591" stroke-linejoin="miter" stroke="#262626" fill="none" stroke-width="0.5"/>
   <g transform="translate(50.644,749.573) rotate(-0,9,-6.5)" font-weight="normal" font-style="normal" font-family="FreeSans" xml:space="preserve" font-size="16">
    <text x="0 " y="-0" fill="rgb(38,38,38)">0</text>
   </g>
   <g transform="translate(37.644,691.876) rotate(-0,22,-6.5)" font-weight="normal" font-style="normal" font-family="FreeSans" xml:space="preserve" font-size="16">
    <text x="0 9 13 " y="-0" fill="rgb(38,38,38)">0.2</text>
   </g>
   <g transform="translate(37.644,634.18) rotate(-0,22,-6.5)" font-weight="normal" font-style="normal" font-family="FreeSans" xml:space="preserve" font-size="16">
    <text x="0 9 13 " y="-0" fill="rgb(38,38,38)">0.4</text>
   </g>
   <g transform="translate(37.644,576.484) rotate(-0,22,-6.5)" font-weight="normal" font-style="normal" font-family="FreeSans" xml:space="preserve" font-size="16">
    <text x="0 9 13 " y="-0" fill="rgb(38,38,38)">0.6</text>
   </g>
   <g transform="translate(37.644,518.787) rotate(-0,22,-6.5)" font-weight="normal" font-style="normal" font-family="FreeSans" xml:space="preserve" font-size="16">
    <text x="0 9 13 " y="-0" fill="rgb(38,38,38)">0.8</text>
   </g>
   <g transform="translate(50.644,461.091) rotate(-0,9,-6.5)" font-weight="normal" font-style="normal" font-family="FreeSans" xml:space="preserve" font-size="16">
    <text x="0 " y="-0" fill="rgb(38,38,38)">1</text>
   </g>
   <polyline stroke-linecap="square" points="67.6499,743.073 470.947,743.073" stroke-linejoin="miter" stroke="#262626" fill="none" stroke-dasharray="16,0" stroke-width="0.5"/>
   <polyline stroke-linecap="square" points="67.6499,454.591 470.947,454.591" stroke-linejoin="miter" stroke="#262626" fill="none" stroke-dasharray="16,0" stroke-width="0.5"/>
   <polyline stroke-linecap="square" points="67.6499,743.073 67.6499,454.591" stroke-linejoin="miter" stroke="#262626" fill="none" stroke-dasharray="16,0" stroke-width="0.5"/>
   <polyline stroke-linecap="square" points="470.947,743.073 470.947,454.591" stroke-linejoin="miter" stroke="#262626" fill="none" stroke-dasharray="16,0" stroke-width="0.5"/>
   <g transform="translate(27.644,598.832) rotate(-90,5,0)" font-weight="normal" font-style="italic" font-family="FreeSans" xml:space="preserve" font-size="17.6">
    <text x="0 " y="-4" fill="rgb(38,38,38)">y</text>
   </g>
   <g transform="translate(264.299,784.093) rotate(-0,5,-11)" font-weight="normal" font-style="italic" font-family="FreeSans" xml:space="preserve" font-size="17.6">
    <text x="0 " y="-0" fill="rgb(38,38,38)">x</text>
   </g>
   <polyline stroke-linecap="butt" points="67.6499,743.073 97.8972,687.396 136.21,639.508 178.557,598.832 224.936,561.329 279.381,526.712 343.909,494.979 422.552,467.573 470.947,454.591" stroke-linejoin="round" stroke="#000000" fill="none" stroke-width="0.5"/>
   <polyline stroke-linecap="round" points="70.6499,743.073 70.077,744.836 68.577,745.926 66.7228,745.926 65.2228,744.836 64.6499,743.073 65.2228,741.309 66.7228,740.219 68.577,740.219 70.077,741.309 70.6499,743.073" stroke-linejoin="round" stroke="#000000" fill="none" stroke-width="0.5"/>
   <polyline stroke-linecap="round" points="100.897,687.396 100.324,689.159 98.8242,690.249 96.9701,690.249 95.4701,689.159 94.8972,687.396 95.4701,685.632 96.9701,684.542 98.8242,684.542 100.324,685.632 100.897,687.396" stroke-linejoin="round" stroke="#000000" fill="none" stroke-width="0.5"/>
   <polyline stroke-linecap="round" points="139.21,639.508 138.638,641.271 137.138,642.361 135.283,642.361 133.783,641.271 133.21,639.508 133.783,637.744 135.283,636.655 137.138,636.655 138.638,637.744 139.21,639.508" stroke-linejoin="round" stroke="#000000" fill="none" stroke-width="0.5"/>
   <polyline stroke-linecap="round" points="181.557,598.832 180.984,600.595 179.484,601.685 177.63,601.685 176.13,600.595 175.557,598.832 176.13,597.069 177.63,595.979 179.484,595.979 180.984,597.069 181.557,598.832" stroke-linejoin="round" stroke="#000000" fill="none" stroke-width="0.5"/>
   <polyline stroke-linecap="round" points="227.936,561.329 227.363,563.093 225.863,564.182 224.009,564.182 222.509,563.093 221.936,561.329 222.509,559.566 224.009,558.476 225.863,558.476 227.363,559.566 227.936,561.329" stroke-linejoin="round" stroke="#000000" fill="none" stroke-width="0.5"/>
   <polyline stroke-linecap="round" points="282.381,526.712 281.808,528.475 280.308,529.565 278.454,529.565 276.954,528.475 276.381,526.712 276.954,524.948 278.454,523.858 280.308,523.858 281.808,524.948 282.381,526.712" stroke-linejoin="round" stroke="#000000" fill="none" stroke-width="0.5"/>
   <polyline stroke-linecap="round" points="346.909,494.979 346.336,496.742 344.836,497.832 342.982,497.832 341.482,496.742 340.909,494.979 341.482,493.215 342.982,492.125 344.836,492.125 346.336,493.215 346.909,494.979" stroke-linejoin="round" stroke="#000000" fill="none" stroke-width="0.5"/>
   <polyline stroke-linecap="round" points="425.552,467.573 424.979,469.336 423.479,470.426 421.625,470.426 420.125,469.336 419.552,467.573 420.125,465.809 421.625,464.72 423.479,464.72 424.979,465.809 425.552,467.573" stroke-linejoin="round" stroke="#000000" fill="none" stroke-width="0.5"/>
   <polyline stroke-linecap="round" points="473.947,454.591 473.374,456.355 471.874,457.444 470.02,457.444 468.52,456.355 467.947,454.591 468.52,452.828 470.02,451.738 471.874,451.738 473.374,452.828 473.947,454.591" stroke-linejoin="round" stroke="#000000" fill="none" stroke-width="0.5"/>
   <polyline stroke-linecap="butt" points="67.6499,743.073 470.947,454.591" stroke-linejoin="round" stroke="#000000" fill="none" stroke-dasharray="9,7" stroke-width="0.5"/>
   <polyline stroke-linecap="butt" points="422.552,489.209 360.465,489.209 360.465,520.191 292.64,520.191 292.64,553.325 237.524,553.325 237.524,579.66 202.267,579.66 202.267,609.837 167.1,609.837 167.1,648.564 128.965,648.564 128.965,691.706 95.5555,691.706 95.5555,723.111" stroke-linejoin="round" stroke="#00ffff" fill="none" stroke-width="0.5"/>
   <polyline stroke-linecap="butt" points="422.552,489.209 360.465,520.191 292.64,553.325 237.524,579.66 202.267,609.837 167.1,648.564 128.965,691.706 95.5555,723.111" stroke-linejoin="round" stroke="#00ff00" fill="none" stroke-width="0.5"/>
   <polyline stroke-linecap="square" points="422.552,486.209 425.552,489.209 422.552,492.209 419.552,489.209 422.552,486.209" stroke-linejoin="miter" stroke="#00ff00" fill="none" stroke-width="0.5"/>
   <polyline stroke-linecap="square" points="360.465,517.191 363.465,520.191 360.465,523.191 357.465,520.191 360.465,517.191" stroke-linejoin="miter" stroke="#00ff00" fill="none" stroke-width="0.5"/>
   <polyline stroke-linecap="square" points="292.64,550.325 295.64,553.325 292.64,556.325 289.64,553.325 292.64,550.325" stroke-linejoin="miter" stroke="#00ff00" fill="none" stroke-width="0.5"/>
   <polyline stroke-linecap="square" points="237.524,576.66 240.524,579.66 237.524,582.66 234.524,579.66 237.524,576.66" stroke-linejoin="miter" stroke="#00ff00" fill="none" stroke-width="0.5"/>
   <polyline stroke-linecap="square" points="202.267,606.837 205.267,609.837 202.267,612.837 199.267,609.837 202.267,606.837" stroke-linejoin="miter" stroke="#00ff00" fill="none" stroke-width="0.5"/>
   <polyline stroke-linecap="square" points="167.1,645.564 170.1,648.564 167.1,651.564 164.1,648.564 167.1,645.564" stroke-linejoin="miter" stroke="#00ff00" fill="none" stroke-width="0.5"/>
   <polyline stroke-linecap="square" points="128.965,688.706 131.965,691.706 128.965,694.706 125.965,691.706 128.965,688.706" stroke-linejoin="miter" stroke="#00ff00" fill="none" stroke-width="0.5"/>
   <polyline stroke-linecap="square" points="95.5556,720.112 98.5556,723.112 95.5556,726.111 92.5556,723.112 95.5556,720.112" stroke-linejoin="miter" stroke="#00ff00" fill="none" stroke-width="0.5"/>
   <polyline stroke-linecap="butt" points="67.6499,454.591 411.543,743.361" stroke-linejoin="round" stroke="#ff00ff" fill="none" stroke-width="0.5"/>
   <polyline stroke-linecap="butt" points="253.167,743.073 253.167,454.591" stroke-linejoin="round" stroke="#ff00ff" fill="none" stroke-dasharray="9,7" stroke-width="0.5"/>
   <polyline stroke-linecap="butt" points="422.552,743.073 422.552,454.591" stroke-linejoin="round" stroke="#0000ff" fill="none" stroke-dasharray="9,7" stroke-width="0.5"/>
   <polyline stroke-linecap="butt" points="112.013,743.073 112.013,454.591" stroke-linejoin="round" stroke="#ff0000" fill="none" stroke-dasharray="9,7" stroke-width="0.5"/>
  </g>
 </g>
</svg>
